<mxfile host="app.diagrams.net" modified="2024-01-23T10:21:11.898Z" agent="Mozilla/5.0 (Windows NT 10.0; Win64; x64) AppleWebKit/537.36 (KHTML, like Gecko) Chrome/120.0.0.0 Safari/537.36" etag="cNisJt-GE2tDQsZrsuYl" version="22.1.21" type="github">
  <diagram name="Страница — 1" id="PHlmHzXDOKXYndV5tq3y">
    <mxGraphModel dx="1195" dy="622" grid="1" gridSize="10" guides="1" tooltips="1" connect="1" arrows="1" fold="1" page="1" pageScale="1" pageWidth="827" pageHeight="1169" math="0" shadow="0">
      <root>
        <mxCell id="0" />
        <mxCell id="1" parent="0" />
        <mxCell id="yEgj6qXWK7Eluj3ogHR2-1" value="client WS Connection" style="shape=umlActor;verticalLabelPosition=bottom;verticalAlign=top;html=1;outlineConnect=0;" vertex="1" parent="1">
          <mxGeometry x="250" y="20" width="30" height="60" as="geometry" />
        </mxCell>
        <mxCell id="yEgj6qXWK7Eluj3ogHR2-4" value="" style="endArrow=classic;html=1;rounded=0;" edge="1" parent="1" target="yEgj6qXWK7Eluj3ogHR2-5">
          <mxGeometry width="50" height="50" relative="1" as="geometry">
            <mxPoint x="264.65999999999997" y="100" as="sourcePoint" />
            <mxPoint x="264.65999999999997" y="180" as="targetPoint" />
          </mxGeometry>
        </mxCell>
        <mxCell id="yEgj6qXWK7Eluj3ogHR2-24" value="" style="edgeStyle=orthogonalEdgeStyle;rounded=0;orthogonalLoop=1;jettySize=auto;html=1;fillColor=#fff2cc;strokeColor=#d6b656;" edge="1" parent="1" source="yEgj6qXWK7Eluj3ogHR2-5">
          <mxGeometry relative="1" as="geometry">
            <mxPoint x="318.1299999999999" y="340" as="targetPoint" />
            <Array as="points">
              <mxPoint x="265" y="300" />
              <mxPoint x="318" y="300" />
            </Array>
          </mxGeometry>
        </mxCell>
        <mxCell id="yEgj6qXWK7Eluj3ogHR2-61" style="edgeStyle=orthogonalEdgeStyle;rounded=0;orthogonalLoop=1;jettySize=auto;html=1;entryX=0;entryY=0.75;entryDx=0;entryDy=0;fillColor=#dae8fc;strokeColor=#6c8ebf;" edge="1" parent="1" source="yEgj6qXWK7Eluj3ogHR2-5" target="yEgj6qXWK7Eluj3ogHR2-34">
          <mxGeometry relative="1" as="geometry">
            <Array as="points">
              <mxPoint x="90" y="190" />
              <mxPoint x="90" y="725" />
            </Array>
          </mxGeometry>
        </mxCell>
        <mxCell id="yEgj6qXWK7Eluj3ogHR2-5" value="WSS Handler 1" style="rounded=0;whiteSpace=wrap;html=1;" vertex="1" parent="1">
          <mxGeometry x="204.99999999999986" y="160" width="120" height="60" as="geometry" />
        </mxCell>
        <mxCell id="yEgj6qXWK7Eluj3ogHR2-57" style="edgeStyle=orthogonalEdgeStyle;rounded=0;orthogonalLoop=1;jettySize=auto;html=1;entryX=1;entryY=0.75;entryDx=0;entryDy=0;fillColor=#dae8fc;strokeColor=#6c8ebf;" edge="1" parent="1" source="yEgj6qXWK7Eluj3ogHR2-6" target="yEgj6qXWK7Eluj3ogHR2-34">
          <mxGeometry relative="1" as="geometry">
            <Array as="points">
              <mxPoint x="800" y="190" />
              <mxPoint x="800" y="725" />
            </Array>
          </mxGeometry>
        </mxCell>
        <mxCell id="yEgj6qXWK7Eluj3ogHR2-6" value="WSS Handler N" style="rounded=0;whiteSpace=wrap;html=1;" vertex="1" parent="1">
          <mxGeometry x="474.9999999999998" y="160" width="120" height="60" as="geometry" />
        </mxCell>
        <mxCell id="yEgj6qXWK7Eluj3ogHR2-22" value="" style="edgeStyle=orthogonalEdgeStyle;rounded=0;orthogonalLoop=1;jettySize=auto;html=1;fillColor=#fff2cc;strokeColor=#d6b656;" edge="1" parent="1" source="yEgj6qXWK7Eluj3ogHR2-12">
          <mxGeometry relative="1" as="geometry">
            <mxPoint x="690" y="280" as="targetPoint" />
          </mxGeometry>
        </mxCell>
        <mxCell id="yEgj6qXWK7Eluj3ogHR2-12" value="RabbitMQ" style="html=1;shadow=0;dashed=0;align=center;verticalAlign=middle;shape=mxgraph.arrows2.arrow;dy=0;dx=30;notch=30;" vertex="1" parent="1">
          <mxGeometry x="200" y="340" width="405" height="40" as="geometry" />
        </mxCell>
        <mxCell id="yEgj6qXWK7Eluj3ogHR2-14" style="edgeStyle=orthogonalEdgeStyle;rounded=0;orthogonalLoop=1;jettySize=auto;html=1;fillColor=#fff2cc;strokeColor=#d6b656;" edge="1" parent="1" source="yEgj6qXWK7Eluj3ogHR2-6" target="yEgj6qXWK7Eluj3ogHR2-12">
          <mxGeometry relative="1" as="geometry">
            <Array as="points">
              <mxPoint x="535" y="300" />
              <mxPoint x="487" y="300" />
            </Array>
          </mxGeometry>
        </mxCell>
        <mxCell id="yEgj6qXWK7Eluj3ogHR2-15" value="" style="shape=flexArrow;endArrow=classic;html=1;rounded=0;exitX=0.102;exitY=1.013;exitDx=0;exitDy=0;exitPerimeter=0;entryX=0.89;entryY=0.021;entryDx=0;entryDy=0;entryPerimeter=0;" edge="1" parent="1" target="yEgj6qXWK7Eluj3ogHR2-12">
          <mxGeometry width="50" height="50" relative="1" as="geometry">
            <mxPoint x="560" y="220" as="sourcePoint" />
            <mxPoint x="560" y="289" as="targetPoint" />
          </mxGeometry>
        </mxCell>
        <mxCell id="yEgj6qXWK7Eluj3ogHR2-16" value="" style="strokeWidth=2;html=1;shape=mxgraph.flowchart.database;whiteSpace=wrap;" vertex="1" parent="1">
          <mxGeometry x="328.13" y="240" width="148.75" height="60" as="geometry" />
        </mxCell>
        <mxCell id="yEgj6qXWK7Eluj3ogHR2-20" value="" style="edgeStyle=orthogonalEdgeStyle;rounded=0;orthogonalLoop=1;jettySize=auto;html=1;fillColor=#f8cecc;strokeColor=#b85450;" edge="1" parent="1">
          <mxGeometry relative="1" as="geometry">
            <mxPoint x="660" y="270" as="sourcePoint" />
            <mxPoint x="476.8799999999999" y="290" as="targetPoint" />
            <Array as="points">
              <mxPoint x="590" y="270" />
              <mxPoint x="590" y="290" />
            </Array>
          </mxGeometry>
        </mxCell>
        <mxCell id="yEgj6qXWK7Eluj3ogHR2-46" value="" style="edgeStyle=orthogonalEdgeStyle;rounded=0;orthogonalLoop=1;jettySize=auto;html=1;entryX=0.983;entryY=0.327;entryDx=0;entryDy=0;entryPerimeter=0;fillColor=#f8cecc;strokeColor=#b85450;" edge="1" parent="1" source="yEgj6qXWK7Eluj3ogHR2-17" target="yEgj6qXWK7Eluj3ogHR2-34">
          <mxGeometry relative="1" as="geometry">
            <mxPoint x="465" y="700" as="targetPoint" />
            <Array as="points">
              <mxPoint x="740" y="700" />
            </Array>
          </mxGeometry>
        </mxCell>
        <mxCell id="yEgj6qXWK7Eluj3ogHR2-17" value="&lt;div style=&quot;&quot;&gt;&lt;br&gt;&lt;/div&gt;" style="rounded=0;whiteSpace=wrap;html=1;align=center;" vertex="1" parent="1">
          <mxGeometry x="660" y="220" width="120" height="60" as="geometry" />
        </mxCell>
        <mxCell id="yEgj6qXWK7Eluj3ogHR2-27" value="" style="shape=singleArrow;direction=north;whiteSpace=wrap;html=1;arrowWidth=0.27857142857142964;arrowSize=0.09727891156462593;" vertex="1" parent="1">
          <mxGeometry x="372.5" y="380" width="60" height="380" as="geometry" />
        </mxCell>
        <mxCell id="yEgj6qXWK7Eluj3ogHR2-35" value="" style="edgeStyle=orthogonalEdgeStyle;rounded=0;orthogonalLoop=1;jettySize=auto;html=1;entryX=0.5;entryY=1;entryDx=0;entryDy=0;fillColor=#fff2cc;strokeColor=#d6b656;" edge="1" parent="1" source="yEgj6qXWK7Eluj3ogHR2-28" target="yEgj6qXWK7Eluj3ogHR2-17">
          <mxGeometry relative="1" as="geometry">
            <Array as="points">
              <mxPoint x="720" y="470" />
            </Array>
          </mxGeometry>
        </mxCell>
        <mxCell id="yEgj6qXWK7Eluj3ogHR2-28" value="MS QUOTES" style="rounded=0;whiteSpace=wrap;html=1;" vertex="1" parent="1">
          <mxGeometry x="342.5" y="440" width="120" height="60" as="geometry" />
        </mxCell>
        <mxCell id="yEgj6qXWK7Eluj3ogHR2-39" value="" style="edgeStyle=orthogonalEdgeStyle;rounded=0;orthogonalLoop=1;jettySize=auto;html=1;" edge="1" parent="1">
          <mxGeometry relative="1" as="geometry">
            <mxPoint x="720" y="280" as="sourcePoint" />
            <mxPoint x="720" y="280" as="targetPoint" />
          </mxGeometry>
        </mxCell>
        <mxCell id="yEgj6qXWK7Eluj3ogHR2-32" value="MS CANDLES" style="rounded=0;whiteSpace=wrap;html=1;" vertex="1" parent="1">
          <mxGeometry x="342.5" y="520" width="120" height="60" as="geometry" />
        </mxCell>
        <mxCell id="yEgj6qXWK7Eluj3ogHR2-41" value="" style="edgeStyle=orthogonalEdgeStyle;rounded=0;orthogonalLoop=1;jettySize=auto;html=1;fillColor=#fff2cc;strokeColor=#d6b656;" edge="1" parent="1" source="yEgj6qXWK7Eluj3ogHR2-33">
          <mxGeometry relative="1" as="geometry">
            <mxPoint x="720" y="280" as="targetPoint" />
          </mxGeometry>
        </mxCell>
        <mxCell id="yEgj6qXWK7Eluj3ogHR2-33" value="MS ORDER BOOK" style="rounded=0;whiteSpace=wrap;html=1;" vertex="1" parent="1">
          <mxGeometry x="342.5" y="600" width="120" height="60" as="geometry" />
        </mxCell>
        <mxCell id="yEgj6qXWK7Eluj3ogHR2-44" value="" style="edgeStyle=orthogonalEdgeStyle;rounded=0;orthogonalLoop=1;jettySize=auto;html=1;fillColor=#fff2cc;strokeColor=#d6b656;" edge="1" parent="1" source="yEgj6qXWK7Eluj3ogHR2-34">
          <mxGeometry relative="1" as="geometry">
            <mxPoint x="720" y="280" as="targetPoint" />
          </mxGeometry>
        </mxCell>
        <mxCell id="yEgj6qXWK7Eluj3ogHR2-34" value="MS POSITION" style="rounded=0;whiteSpace=wrap;html=1;" vertex="1" parent="1">
          <mxGeometry x="342.5" y="680" width="120" height="60" as="geometry" />
        </mxCell>
        <mxCell id="yEgj6qXWK7Eluj3ogHR2-42" value="" style="edgeStyle=orthogonalEdgeStyle;rounded=0;orthogonalLoop=1;jettySize=auto;html=1;fillColor=#fff2cc;strokeColor=#d6b656;" edge="1" parent="1" source="yEgj6qXWK7Eluj3ogHR2-32">
          <mxGeometry relative="1" as="geometry">
            <mxPoint x="463" y="550" as="sourcePoint" />
            <mxPoint x="720" y="280" as="targetPoint" />
          </mxGeometry>
        </mxCell>
        <mxCell id="yEgj6qXWK7Eluj3ogHR2-48" value="" style="endArrow=classic;html=1;rounded=0;entryX=1.003;entryY=0.327;entryDx=0;entryDy=0;entryPerimeter=0;fillColor=#f8cecc;strokeColor=#b85450;" edge="1" parent="1" target="yEgj6qXWK7Eluj3ogHR2-28">
          <mxGeometry width="50" height="50" relative="1" as="geometry">
            <mxPoint x="740" y="460" as="sourcePoint" />
            <mxPoint x="790" y="410" as="targetPoint" />
          </mxGeometry>
        </mxCell>
        <mxCell id="yEgj6qXWK7Eluj3ogHR2-49" value="" style="endArrow=classic;html=1;rounded=0;entryX=1.003;entryY=0.327;entryDx=0;entryDy=0;entryPerimeter=0;fillColor=#f8cecc;strokeColor=#b85450;" edge="1" parent="1">
          <mxGeometry width="50" height="50" relative="1" as="geometry">
            <mxPoint x="739.5" y="540" as="sourcePoint" />
            <mxPoint x="462.5" y="540" as="targetPoint" />
          </mxGeometry>
        </mxCell>
        <mxCell id="yEgj6qXWK7Eluj3ogHR2-50" value="" style="endArrow=classic;html=1;rounded=0;entryX=1.003;entryY=0.327;entryDx=0;entryDy=0;entryPerimeter=0;fillColor=#f8cecc;strokeColor=#b85450;" edge="1" parent="1">
          <mxGeometry width="50" height="50" relative="1" as="geometry">
            <mxPoint x="739.5" y="620" as="sourcePoint" />
            <mxPoint x="462.5" y="620" as="targetPoint" />
          </mxGeometry>
        </mxCell>
        <mxCell id="yEgj6qXWK7Eluj3ogHR2-55" value="" style="edgeStyle=orthogonalEdgeStyle;rounded=0;orthogonalLoop=1;jettySize=auto;html=1;fillColor=#dae8fc;strokeColor=#6c8ebf;" edge="1" parent="1">
          <mxGeometry relative="1" as="geometry">
            <mxPoint x="660" y="240" as="sourcePoint" />
            <mxPoint x="476.8799999999999" y="260" as="targetPoint" />
            <Array as="points">
              <mxPoint x="590" y="240" />
              <mxPoint x="590" y="260" />
            </Array>
          </mxGeometry>
        </mxCell>
        <mxCell id="yEgj6qXWK7Eluj3ogHR2-58" value="" style="endArrow=classic;html=1;rounded=0;entryX=0.996;entryY=0.667;entryDx=0;entryDy=0;entryPerimeter=0;fillColor=#dae8fc;strokeColor=#6c8ebf;" edge="1" parent="1" target="yEgj6qXWK7Eluj3ogHR2-33">
          <mxGeometry width="50" height="50" relative="1" as="geometry">
            <mxPoint x="800" y="640" as="sourcePoint" />
            <mxPoint x="620" y="600" as="targetPoint" />
          </mxGeometry>
        </mxCell>
        <mxCell id="yEgj6qXWK7Eluj3ogHR2-59" value="" style="endArrow=classic;html=1;rounded=0;entryX=0.996;entryY=0.667;entryDx=0;entryDy=0;entryPerimeter=0;fillColor=#dae8fc;strokeColor=#6c8ebf;" edge="1" parent="1">
          <mxGeometry width="50" height="50" relative="1" as="geometry">
            <mxPoint x="800.5" y="560" as="sourcePoint" />
            <mxPoint x="462.5" y="560" as="targetPoint" />
          </mxGeometry>
        </mxCell>
        <mxCell id="yEgj6qXWK7Eluj3ogHR2-60" value="" style="endArrow=classic;html=1;rounded=0;entryX=0.996;entryY=0.667;entryDx=0;entryDy=0;entryPerimeter=0;fillColor=#dae8fc;strokeColor=#6c8ebf;" edge="1" parent="1">
          <mxGeometry width="50" height="50" relative="1" as="geometry">
            <mxPoint x="800.5" y="480" as="sourcePoint" />
            <mxPoint x="462.5" y="480" as="targetPoint" />
          </mxGeometry>
        </mxCell>
        <mxCell id="yEgj6qXWK7Eluj3ogHR2-62" value="" style="endArrow=classic;html=1;rounded=0;entryX=0;entryY=0.5;entryDx=0;entryDy=0;fillColor=#dae8fc;strokeColor=#6c8ebf;" edge="1" parent="1" target="yEgj6qXWK7Eluj3ogHR2-33">
          <mxGeometry width="50" height="50" relative="1" as="geometry">
            <mxPoint x="90" y="630" as="sourcePoint" />
            <mxPoint x="340" y="590" as="targetPoint" />
          </mxGeometry>
        </mxCell>
        <mxCell id="yEgj6qXWK7Eluj3ogHR2-65" value="" style="endArrow=classic;html=1;rounded=0;entryX=0;entryY=0.5;entryDx=0;entryDy=0;fillColor=#dae8fc;strokeColor=#6c8ebf;" edge="1" parent="1">
          <mxGeometry width="50" height="50" relative="1" as="geometry">
            <mxPoint x="89.5" y="549.8" as="sourcePoint" />
            <mxPoint x="342.5" y="549.8" as="targetPoint" />
          </mxGeometry>
        </mxCell>
        <mxCell id="yEgj6qXWK7Eluj3ogHR2-66" value="" style="endArrow=classic;html=1;rounded=0;entryX=0;entryY=0.5;entryDx=0;entryDy=0;fillColor=#dae8fc;strokeColor=#6c8ebf;" edge="1" parent="1">
          <mxGeometry width="50" height="50" relative="1" as="geometry">
            <mxPoint x="89.5" y="469.8" as="sourcePoint" />
            <mxPoint x="342.5" y="469.8" as="targetPoint" />
          </mxGeometry>
        </mxCell>
        <mxCell id="yEgj6qXWK7Eluj3ogHR2-67" value="" style="endArrow=none;dashed=1;html=1;rounded=0;" edge="1" parent="1">
          <mxGeometry width="50" height="50" relative="1" as="geometry">
            <mxPoint x="780" y="220" as="sourcePoint" />
            <mxPoint x="660" y="150" as="targetPoint" />
            <Array as="points">
              <mxPoint x="810" y="150" />
            </Array>
          </mxGeometry>
        </mxCell>
        <mxCell id="yEgj6qXWK7Eluj3ogHR2-68" value="" style="endArrow=none;dashed=1;html=1;rounded=0;" edge="1" parent="1">
          <mxGeometry width="50" height="50" relative="1" as="geometry">
            <mxPoint x="10" y="180" as="sourcePoint" />
            <mxPoint x="325" y="290" as="targetPoint" />
            <Array as="points">
              <mxPoint x="100" y="180" />
            </Array>
          </mxGeometry>
        </mxCell>
        <mxCell id="yEgj6qXWK7Eluj3ogHR2-11" value="" style="shape=flexArrow;endArrow=classic;html=1;rounded=0;exitX=0.102;exitY=1.013;exitDx=0;exitDy=0;exitPerimeter=0;entryX=0.042;entryY=0;entryDx=0;entryDy=0;entryPerimeter=0;" edge="1" parent="1" source="yEgj6qXWK7Eluj3ogHR2-5" target="yEgj6qXWK7Eluj3ogHR2-12">
          <mxGeometry width="50" height="50" relative="1" as="geometry">
            <mxPoint x="230" y="280" as="sourcePoint" />
            <mxPoint x="217" y="280" as="targetPoint" />
          </mxGeometry>
        </mxCell>
        <mxCell id="yEgj6qXWK7Eluj3ogHR2-92" style="edgeStyle=orthogonalEdgeStyle;rounded=0;orthogonalLoop=1;jettySize=auto;html=1;exitX=0;exitY=1;exitDx=0;exitDy=0;exitPerimeter=0;" edge="1" parent="1" source="yEgj6qXWK7Eluj3ogHR2-72">
          <mxGeometry relative="1" as="geometry">
            <mxPoint x="510" y="79.66666666666674" as="targetPoint" />
          </mxGeometry>
        </mxCell>
        <mxCell id="yEgj6qXWK7Eluj3ogHR2-72" value="client WS Connection" style="shape=umlActor;verticalLabelPosition=bottom;verticalAlign=top;html=1;outlineConnect=0;" vertex="1" parent="1">
          <mxGeometry x="520" y="20" width="30" height="60" as="geometry" />
        </mxCell>
        <mxCell id="yEgj6qXWK7Eluj3ogHR2-73" value="" style="endArrow=classic;html=1;rounded=0;" edge="1" parent="1">
          <mxGeometry width="50" height="50" relative="1" as="geometry">
            <mxPoint x="534.66" y="100" as="sourcePoint" />
            <mxPoint x="535" y="160" as="targetPoint" />
          </mxGeometry>
        </mxCell>
        <mxCell id="yEgj6qXWK7Eluj3ogHR2-74" value="" style="shape=image;verticalLabelPosition=bottom;labelBackgroundColor=default;verticalAlign=top;aspect=fixed;imageAspect=0;image=data:image/png,iVBORw0KGgoAAAANSUhEUgAAAWsAAACdCAYAAABy+lnIAAAAAXNSR0IArs4c6QAAAARnQU1BAACxjwv8YQUAAAAJcEhZcwAADsMAAA7DAcdvqGQAAGBCSURBVHhe7d0FuG1V1Tfw7Wt3d3d3BwaoIAiCkqLAJSSkubRFhyghHQL3IsIFFexCUezu7u7uej9+87v/+6x3u/epfe65Z587xvOsZ5+z91xzjvyPMedaa65r/O/V1CsqKioqmtf0P8s/i4qKiormMRVYFxUVFY0BFVgXFRUVjQEVWBcVFRWNARVYFxUVFY0BFVgXFRUVjQEVWBcVFRWNARVYFxUVFY0BFVgXFRUVjQEVWBcVFRWNARVYFxUVFY0BFVgXFRUVjQEVWBcVFRWNARVYFxUVFY0BFVgXFRUVjQEVWBcVFRWNARVYFxUVFY0BFVgXFRUVjQEVWBcVFRWNARVYFxUVFY0BFVgXFRUVjQEVWBcVFRWNAV3jf6+m5X/PiJz+l7/8pffzn/+89+9//3v5t/9N17jGNXrXve51eze+8Y17N7vZzZZ/W1RUVFQ0FRoZrP/2t7/1Pv3pT/cOP/zw3m9/+9ve//zPfxfrhrjWta7Vu+9979t7xjOe0dtss82W/1JUVFRUNBUaeRnkP//5T+/3v/997wtf+ELvmte8Zu/Rj35074lPfGLvSU960ooDSF/72tfu/exnP+v94he/WH5mUVFRUdFUaeTK2hLIlVde2dthhx3aseeee7alDsAd+sxnPtN717ve1fv617/ee+QjH9nbbbfd2vf//Oc/W2XuE+gj5wH261//+q1Kt3zST9r/4x//6P3rX/9acV6XbnCDG/Suc53rtHO10fbvf/97a0vcVPqWZRzhVZu0Rc534EV/zicvnrvy6Q+vvrvhDW/Y/v/zn//cziFLztX3H//4x/Z/xvY9ef7617+u4M+Yzrve9a7X+PSdNvgiT8bUritD93c68J12+d7fZDEO/sKbT6Tdn/70pzamsf2GLwebph35yZJlr8iecwaRtnTnPOPjPeR/fd/oRjdawbN2DnKjjIF//Dlfn3ghS9dXopu09z+52Mb/aef8P/zhD60dvmMzsiLnObRBN73pTdsnXZIF37EZwhe9+8SP/ukUj2mD2Ms4DudH787xXdd2xooN8B5791N41U5/+kX6zHj6JOMwG+CbDXwfGfFiXKRfh/PZWlvkfzI6J+Pqy5ja4cH32jk/Nu3aiP39jz9tnasPffqu21+X79WJVhlYM8i3v/3t3nvf+97ed77znd6vf/3rZoTb3va2vfvd7369Zz7zmb1b3vKWKwCiS9/61rd6n/zkJ3vf+973WiA5Lwdae+21e494xCOao333u99tVf/HPvax1jbGv9vd7tZ71KMe1XvCE57QxhRY+PzUpz7V+tYX5xDg+nvwgx/cAupNb3pT7wMf+EDvFre4ReONHByQzHe5y116m266aQPkN77xjb0HPehB7XjAAx7Q9GS56Iwzzmh9mXHgUZ/08p73vKfNOvBBd85bc801W58C8Ktf/WqT4fvf/34bU383uclNWh+Pf/zje7e73e3a7z/60Y9acKy33nrtO0H0kY98pJ2nn3XWWafJv2zZsqZn4zzwgQ9s7b74xS82/u55z3v21lhjjWard7zjHb23ve1tvZ122qm1xdu73/3u1vYnP/nJigC/9a1v3Xv605/e+uraPvTLX/6yd/HFFzc5fvOb36xIMGTxv/O23nrr3u1vf/vGy+c+97lmB/ZjCwF9pzvdqdmC7djWdZJ3vvOdvTe84Q3NHgKZO7OHv9mVH/mOXJtssklv3XXXXRHwdHX66ae3dmS75JJL2ucuu+zSeAYufOa0005r/++7777tPDzRy09/+tP2O73yhTvc4Q69jTbaqHeve92r8Ys/Nn//+9/feGJb57MX3dK/Wak2Z511VvP3xzzmMb0NNtigd6tb3aqdI0bom39YQuQ3/LafACC/u+KKK3qf+MQnmk7plo9o78Afu3/+85/v/epXv2o2YD/6sYR5j3vco9nA9z/4wQ96l19+efOjZz3rWW0MscH3v/SlL/We8pSn9LbZZpsmE5u+733va7z+7ne/a/7Hbx/60Ic2f6ML37OpPvg7PbADv9Hm3ve+d/v/9a9/fYsJMYKfH//4x+07/T3kIQ/pPfnJT16RPFY3WiV3g3AiDv/Zz362ASSD3/GOd2zBCEi+/OUvN4D54Q9/uPyM/0uMCagFMxBicAHHiJZaAAmH4uwcwxgcSDsO6xPQACHtjenzQx/6UBtb4AMNjs7pv/a1r7X+JBSJ5Zvf/Garsu585zu3dkAH0DoXb86RIDg8JxUMX/nKV1pS+/CHP9ycG3gBA7wKRkEL8PEHiPAnkQn4/A0YBDRdkZd8QAN/AEM7AYNHgIfoVh++k+Twhyf80Z2/2eMb3/jGCv7wSh4AwAaSgOCOjMAA0OEVLwLeOWQxjoTYT3ilN+cZDxhFfwLS+OQzjr8ld/q+zW1u08YAIGxEV8Yil4RFx2Txu/74kL9jA3o1Nn/TL5kDws5N0tGGP2oTMobv2d7hfzqIjpHxAInfnGtMOuNTV111VeufPdmLvsjN/vRMPgDLF4ytPd3iLUnHuB//+McboLMfuQaRvgKkZKY3ulVwiJN8j0f84Zcv0ZmDbvmRNnjyvzElJPYE5mSRNPAZO/sUX9oC4MQxmYxJV2zukw/TtfjTTrziWzKTQPibdmKWzxqPrfmoZCgexfHqStda/jmnJFgZFwhwPtXoU5/61AZ6qhvGe/Ob39wMJLsOIs7MqVVZqj5OydCXXXZZM7bfVDgcXIDuuOOOvfvc5z4tcDiSSuv888/vbbzxxg2ctfvgBz/Yu/nNb9478MAD23cc9u1vf3sLUPyqiDiYKmD33Xdvn4Lyox/9aAP6bqCH8CkwtAGGHBq40QHQkJQkDf2pGgQOXoCVsVXOCfwXvehFTU+CjN5UM6o9VZp2xnJwemANwH0aBw+DSHtBByQEk3b465I2+kiCpV9V0wEHHNBsJlhPPfXUBlSCCSj19xGiM3pUIQIwsgGCJBfgYAzym4HxDYlR4JKXfxhDlYUvwCzwt99++zZLiq7plU3MjICD2Q0gwiP+gAF5+FiAlA+xiz4CCtEpuyGJBcibTajyXZ/xO39lL/3jl5+Yhflbpa5/vAJCF+PJwm7a4cEdUmyqbzphQ/YDYvyQDM4fRkBQBco3Hve4x7UKX6XKVkcccUQDYpU8W9/97ndfYQO6w78kro/I2SW2URwBTv1JIsinSllsANRtt9222YDuzEb4seQupgA2/zK70Q7wihcxx6YSb2ya2JCk8ItPfu/a1+pMq6yyzrTcdIrDCHqOIqhMRQUSJx1G2gNjU3ZBxkE4/MMe9rDmXM43jqnj85///BYkAtjyxLKrp4IAwe+CAnhzQlUPQAfU+lSdmAJuvvnm7VPgT5cEICBUMXJQASOgODoHFpj4Nq5lCyCnMll//fV7L3vZy3r3v//9mxNLIPjDN2C49NJLW8A7n0OTAwk4SeHYY49t57z85S9vyw+qnEEkyASbhASABARg6BKQW7p0aQvAt771rU0Pd73rXVfYDP/AO0GNn5mSqg9P7GiMrKH62xiCmU7ZLDJPRvT9tKc9rfkbWX2qCOmEr/E5sxrAKcn7nr/o3/9dedhJUgUgAA5AA0k653Pa448cbK6qfc1rXtM79NBDey996Ut7Rx55ZEs8mRUYB9GlSpjt6TC/SV6Irys0hhFeADLfTRLgw4qZxYsXt6IEaA5LosOIvumav9GHJRr6RPRCZsktyZccYlG8LFq0qCUzv0uO9Kz4YlPtFCZ4xZOErY24ILtEJ/FpB6glu9WdVtmcQkAyviAUKAwsKDkCUGI8DjiMtOV8gCKgwTkBDSdyvuwsKASP5CCATLuAtPGSxQWvNoKBs6tI9Ol/U1wOHyCdDuEDeKooVE/WZTm0QOLA5NNGxWRcIIgvoG5cQIIH/AEB4E4OSYxTa4vI4CAPPeCdLvTrE99p26UEEdBHxiNnPyjoM30YA3+ZkvrNOPSOBwCjzUxJYiAvPlSl9GYMdk4S8bskhX+/TUb6sWarL0BIf5IzwJY8ASEAkQzoi71U9vSiugO6IT5FRnrjT2zCd9iR35Cdz5GDf9MNf2ZbdufrxgFSZDIeGegSUIsHM0QJQ/9+5xspIAaRMY3F59kO6LMXP2An6798mPyD/GAiIqflKzMKPNAjGRB780vjA974L3n4bxI/3thLbHdl1g87+5tNxQOb6gP//qbv+PbqTqsMrCl/mAF8z1CTGai/D38LGsTAgkaGPu6441asjZuGu8gkYLqBHifrkj44i2AE8s6fDgFUgKCaF4gudgloZCxjDhoXcdwAgWm9JQfrtZKcYFTdqRYBAIoeVCC+32+//XpHHXVU75BDDmkzA0DcT/gDXi4kARQXk4BWPwG7rbbaqrfddtu1KkeSpJuQsf1PFgAxCvXbtJ8yVtc/BumvS2QCyuQALoDaujHQBiiABnA897nPbbO8Cy+8sOnOsWTJkqajkGrPBc2zzz67AarzzHzcsprkGr7Yhp3SVw7LIC9+8YvbkkF3FgPgJA7LA2xuCQF4W7aYTEYUX+q2FQ98l9+wd9duUyF6Mjvgc2YV/DhJwzjx4X4Se8Z0mHEZdyIZujalhw033LDpQhxYKskMY3WmVQLWjMYJObOLIqrPGMpUjpMKoK4j95P21sQcWQowXdMfwGBwU3vOorowLbMkIjh9BwQT+LK97zm1qkZAqwZUVKoryw7W0TngVEm/uQDqLgn9C+w4NodPFcshTSfxTw5VjAs5xx9/fKvsMuV/7GMf23v2s5/d7higw1z8IUcAAnWDyOH/QYEigdEfQLHc0uWvn5xvVgCQcpFN8Bufniz10Du7TncG0iV2Zw93DtAd29Klvy0fGM/vlqiMR26fg+QLRR9swC/Yk60ttQBw56s6gYO1XksWjoMOOqhdD/F9yBSdvGwgKQJcv0vqdMlH6BHo65ON+AGf04YtJYAzzzyzVc5Zq0dkAob0a7mLDiwbdMcfROSTkOLbztWv8fDrThPXRcjMj6ZC4otfShz6cHeQZQxjRdfsHHu7/kQ257GXZSHLb/zX72Sz5s3PU0Hz8/DKDhJC1uXZxBIK+RUTuYje9fPVjVYJWAsc4MDQuaAkewJaa4qmc4JBRTGMGM1UE2i4su58jsGojP7whz+8AaKEABA5riAT9CorjqvK9b1PFbfqElDrywU9F6hUOJwqyWSqpK0pJFprrbXaNDSOiDiwCpWMApQjZ0zjq9oEHnByHoDSp+8EuampT4AgOICEz+lQkoDrBtb+jTMR6OFXhQqMnItfvLKfKpXe/Y6nmRJd0BXbsS2fyDhsy05mDwKezthREkm1NxGpDJ0PBMmpGs5yDnAwTVclm2FIimZC1mK7RQPZ6Ml4QIaN8Ul+iQVf+pKIgZv2gAv/Dn+rzvk9e3V9Ci/G0jc/pGOy6msywjs7kstFPzFBb/wX4IqpiWzbT/yOLMjyhyU89u0S2ciIR/Lzg9gKD4BZP87jX2JR/HVt6hwJWqIB2PEdvPIlYC1u6XjU6yHjTjMvgUYgzmztC2ABQhetzj333Oa8MrAlCleNBe0wYkygIetb5hAonJzjWA8UZEBYYAjyk046qZ3DYTg20APOHFLAqF5U3oLp6KOPbmPozxgej1fVCqCpkrGAG4AQRBKGgAn5nWOqWPDkLhZ6kBSAByBxNwRwMRXVj98tqeBLAGmbJQmgNV1HlgD0r7L2t4CYiAImKh6B5gIo3QkyiZfeHfibKbGfKpGuAA6ZjQEgVcVbbLFFs4lKToXKl9z9gLfJCGAASRWacdh00LLPRMQ38eaCmwvWbMcOdCBp+E3iZB/LT2ZmqtrY1qEid5DHDC/EJ/gJ4GLT2LlbfQ8jlbwL6fzILNCaO3+gKz7GZmSmRzOiycj45JC8JC4xo7DpEv7EMZnEoeUh8rMXkDUmOenYbIGPAmmzRm2cT2cufvJ3tqSDEJvCAHZSmChkJPMA+upGIz8UwyEArmyZOxcYoat0FQJlA0jB7oIHZ5AxVYiMCGyxwrAMyGH9DdD7SWXEGU07gZVgVSFqy8DOlc0ZX1WRqZf+GVpAcFjOpzLg6Jzackwu4iH9AXz9qW4EjaqcHBwRwBlXdQUEfK+i184tV2R0HgADwOS0xKNPiYLj4YF+8OnClXO0xT8gJY+AVmnTkfbkIgMdm10IDO39TU7fk4tM+FORCCJ/q1b0QYdsxx74oxfnW2rwN/7oRaJTwZruG4NO6Ig92Z1OyZPExHb47yd8GdNvdKIvQIcHoOfTEgt5/Z0x6AwZFyDi3994lcTogh4Bsd/xo8pzsAl/9DviBwL+nHPOaevT7lagR30MInzwE0kDAR42Ijd7sZVzfeoHELI9gBELeCQDPwVo2uHPbEo1SQ8SB17pJrNNOmcvuuJP7C5O2JN+ndtP+sersQCnfo2HJ32yJd3G7rFB7nBiA+OwAZmytMW38MW+xmAPyzqAH8AaAxAb12/GRZKMMfkEfwL89EYf2iN2ND6bKtLghqU5cui/G3P0Jt70p93qSCOD9aogDudiGycH/IKuqGgYSRQATCICsoDIRWb3SRcVjQutkjXroqK5JMs7r3rVq1pFrRp3sVnFXVQ0TjSWlbVplCmtaVuWVYqKhpHlENN8FbalABevrcFavikqGhcaS7AuKioqWt2olkGKioqKxoAKrIuKiorGgAqsi4qKisaACqyLioqKxoAKrIuKiorGgAqsi4qKisaACqyLioqKxoBGvs/agwYeOrB7Fspz+9kHwf4e9kKwX4L9LeyXYE8A+wzYo8ChjYdb7ENgHwF7WNg0ySPC2T4V2edAP/ZHsE+AMexHYM9o+2fYl8B+Ch580MbmTL73WLp9O/TT3bMEr/b9sI8BnuxJ4IEb+zDoC29kwJt9FOzJQFb9eaDCGA7kO3tw2O8i+2rQje/xRyb8IvseOPSLf3uL2DvBXgjZvArf9sewjwdZyUJ/9GIfBQc5kUeojYNHuiSn/TzwZuOhfiKb/umX3LYKja7xyF74x1N299OP/sjXJXtlONcWAPTJfggPbGHvB3uc2J+CLGSiJ3s+xB76xbuNjZCHnejZHi30E5/Sno3sAGcPC/rFn7008JU9PrTLvhPa8huPmts7JLpjV33b5dG5+GMTZF8OTz3yGfrAIx+x/whb6Jsf4w+fsSufYL/Yhq3ozgNc9tHAj/0xHHiid2PrL0Sf9o/xSDwdkcn4+GU3PsIW9gmhT3bXH16101f8hbzG6af4JL3y1fgce/NFY+vH/jJk4BfGMB6bOi/7sfhbzPA39hAzXTvgWT/a4pnf0Zn+2FJ/fIb9+Z09VvRDbw5/G0Nf+qVX/mR88tqDhz950Iks+mNXOrdfiY2m9K2tPUbILhb9z25kolO+x+edw1eMZRw2Qtri1wZi+rdXCrnwQxY60KfX6/XHyGzRyGDNYe2iZZN7zHoyDCUYKdXuY3aue+UrX9mMyiAUpo3ABIJ21rJrGLBhIAGYfaQpFHHC5zznOW0XMY8L68OmMl6rxMEpjJMBfbvuefsyELHJlN/1wwgMSmzO443scX5OatMe72b0Nz6QzXRsuu+VRnZR0x+AyeudED7txOZ7gemNzQLexkEXXXRR6wu/yIZAtk21ARVn05+A8L0dyJDk52W4nNsTmjb/t7sgcLKpko2kOBOyX7E+8Eh2TuXxarv9eZVUP3FY49onmGN59Zdd4dhRwLIV/gULXeDjJS95yYpXN4XoUNDrh/0BGhshQcof2NbeLeTi5Hkbub+1YS96oA+vMmMbgE7PdhhkP6CjL+1terX33nu3lysY+7zzzuudfPLJLdCyKRGfIhff22uvvZpPes2ZDYPozfsH2cKmQV7qIJjt8ogHMtENm3k0PeAjOfBjfqdv/unFFnaR41f4Axb8k55sOCTw3/KWt7S+2A4/5CcbXdGpBNENbiAjTiQRspKJjsQSUOBzzgNsAJrfebMNIKI77RUgW265ZduASeLoJzsmihlt+Sp7I/Ymj7H9tueeezYd6B/PgBuwilGP7BuDHHzcrpawgI1iBz6P5z322KO9NR3PdKsvfUqKdCv2+Cob0JHkb6dC8a9P9oMVKdb4k21s6cX7JZctW9b2fgfYvrM9K/mWLFnSdLnmmms23XjvKvn4uP/5AD9MbJPJ7p/HHHNMG8vLNuwsybZsLBZ33XXX5jdikn7EIFn0K6mIJf60MmhWtkhlQJmGs9sgB1Eyh6b4LgkGwgtMxqMwwqoO7b3LyTmFN3EIUi/XlPm0AzIeG6ZsTiIYKE6mtoua7M0I2vguDu9cn0AOCOEX6MmgwBm4CQKBpHrVj03oAZPf9Ic3MnI+/JPDMYhkYU4rUAUAp3YuY/peduaMAkklNR8IYOL7ggsuaAFFjxyQ/IJI4LPHICIXe7zgBS9oekRsw6b8AAEWyYw+JEegpyoR0LalpWNAr1rBB5sBSEEhCJH+BFyXVLMSgpcEqKKdqyAwfr/vdYlvSDL0n13sALPkIGD1JXlKAvwO30ABuOATH+znRb38k54kXEAIWLRJkcFP+DSe+Lp+JQz+RXeDiB4AEz7onZ6MSWf6MxY5bYmqL4ALJMms0mRHW5uKM/7qCAFEduKD+pAI2BtwSfrARmITQ3xAG4WU743NP/ixnS9tK4zoRZJS0ePZeGIJz5KR9ooX+nE+fvVnXHqhX0nXS6H15Xx9qVSBKEphIHb5gt+7xH70pOhgX76hLzFrTL6BX/qid997h2Y/uBo7PBvT74BaEmBbeo4+2VmhqTInC/usLJqVNWtMUgwHo4woRIZXRXeJoILD9EKVI6P6n2IECuVQIiB1Lsf2phWJgFK0U30wPOUl86oQbBbvMLaMxyCUymDGBcIA28EJBIOKRPUAHBiY05g64cu4ZGEICQJ/HJqsjCcAOTon8KkPzixwVeYSCTn873e/dQMN78CCk0km2l5xxRXtsD0lOY3bJe2dC9zSFv9Z5kH4ARR0lDaC0MsZjE2H/URGM4gEKSfGD2ekBwFO7kFEv5wbAMf+wF8wqVDIjG8VGD6Br2pGv6oeoKXKyvsOyaE6BoZsoQ0/sJVrvz+ppASIPo2rT75gWSMB1SV6Ab6CHUioElV2xmRPOic33+Bz+vSJD/w4X+Wft5jHPx3a4FsfbEvPkYWvAi/j8T08+pvuBpElMkmNH+KBviQOPk2f/NQ4lmMUOJE9syvgxLeNzR+6pG+20k+29+XPZqYKLIlXIQX4yaode0YXgN6Y/EHsI598iA60c/ibjhRH/BjIim1t2Sv215++JAbjxT8VODDEmOKaPvzWjb0u4Z/t4kPhLzbxHawxprHhAD9hhy7hl67JLdYkAH0rsviz2VB8iz/SFVlX5hIImvMLjBwe6HIIRGgKE7Ccy0ExAXWKoCABBTACwhzfIXhkdNWNwGUchjWFsVwiK1KoROL8ALjxVIvG4pSA1ieDOt95ASEAZlzBLbMyLuNzPOMDW4DMIZ3PuIIVAAtqbwX33j3TV9M2QKwf5ws2DsgpXve617U3kju8ERvI6qNLAsv02zJH2vof73hBgpMzqzDSxjKFqWpeMcURu0R3gm3R1VNMv1kWIacA4Yj0P1PCD91IxGwBUNjfmBmD/SRDgUiOTJH9HkCYDZI0jEOPbCuh8AV28x17GBPg8RfEFwAGHQJxNqEP/ul/PtX1T/wCPSDBL7RfunRpS95mH9qQfabEPuzNxhIYPlLt4duMhDx0Cbj4dpfIx9bk0s6SG9tIYvRuOYdOJHuxp1IWt/TlXHFlWWvTTTdtfUyF2J9O9MfeEgYwdUgc+GEb/LJBP4kxfiFW6Nd5/clY/2bH9GFGhl8+FD+jh8Rov/93Sd/O9ynJ4iezenqAGxk7GKFgcMymr/bTnIM16heI4qI8ge2gDO26BvG3w++pYrVhjG47RhUoQDMAlnNDztVPKP/7ZIBu2/DLYSQWyUZ2ZchXvOIVDYBN8QUQZ9IHh+CYZhDAElB3Dy9MzRowp1CpPO95z+sdfPDB7UiyyTWAkPbW63bZZZcVbf2fRITwCzxUZWljKUYgW84xFcdjP5FPsNIt+SWyQcA+E4p+0SC7otiUDlWOKhzBwR6zQXzBzMKsgc4tEUgaGd9neOvy6NO5QDeVan8blO/IQJc+2YQNLUmoEq3XA8F+AJ0u8S980I0xQ+EBaYOPftKGbgOaZl2WJwCSClpVGdl85m8UOwI9s8yuHGkziJyHH9TtD+X/6C3tFESWarwPU8xYGpWggKKEkoSHB/4i4ZgpAFrFWcYQq5ZnyaXyds1j8eLFbZ3bMqhzuiRuFWg+M9sH2Gyp2jdb6JfV//3fzTbNOVgLRBWMypLRGSfTGoFDGQKJAWTaTHf8D3wz3Tc9FwQMxskCkg5rdipaxnZ+xtBfgsjf+DBWMqLsS+GmYpwxDgbAjOt3WVuloaLBr0rAgTfyOCeZXN/AJks0ea8fR8C7QFERCRwVinYuUDlUn4JbP13iKBKASi9tBR1eAmpk4WgqgLQB/ACd46ni8dkl+hV8qiz8q3b0x5GdQ78zJTrVJz3TP8BUceLB/8YFgmyvLV2yKRnoL0E5KpEFUAJdlXyWIpBxVf0Cks35B54QXzBTsraOV22AtzYOdqc/7fmK88mKb4fEacmPPS2/WA6gA+1mQnjFN78hCx6MT5/8HY/+xicf1L6f8AXUJH8VvyQuOVsaAG76Zg+ykUm84tc4ZoSW3gCfsY2lHRo0FjKemI29+ZP+HP7XD3/DL7vrMzrGl4Md8OQc4Bn9+R6oaoN3M5duxW9c/qxvMW+5jQ3ELZvhqUt41Q8d4w2W8EfVvzjTTyg+jFeH/1cWzTlYE9raFMUSktEYXmaUDQEMB2IklSrAFdiUykksk3AcgGm6xyGthQpExuM0qoQLL7ywTVuM51yOBcQZVjvBZw0qty7phzE4jLfQCCZ9GcuYjKudIMefKaCK2VV+lbWr3fgXmIysL05HTnzgjzH9jzfLGFlTnAsSfPiKc/UTgAQkl1xySdPJzjvv3HQscbmow7FnSpIHIFTZ079KTvLER2wjiNgTn8BBkJheSmhJQqOSoDOW6hFQAdT0LUAlBt/xSf6BJ/riQ3zKHSV8EE9AkX/yqYAKXbEpuQCzRIwAmL5dM/G95TS+B/hmQvrji3i1rIUPesSreLE8yMcBC1/l2/1Ebrzw5xQ3bCypACq8+51s4tNvWerDuzs1HPzauMbD1zBbsb8iRR8KAnEgtvzPJvQNBOk2SZu+FBri64QTTmgzREWHMd1RkthhC7Ml+syF0G7S8DcfJAP+3Pmx77779vbff/82+6SDLmkvdukPP5K02LC27v8ukZu/SB74SNJaGTQ7Jcs0iHCU7Co2hRNU4AoelQ5HUT0CQwEL2ACgAOAoDK6qtZYNfBiYEaxVAW3EmADHBTMBBHgFvosup5xySlOoMX1yThcGgIQLDxzJ2pc+ORhnxQcg5iiWQRg8gRhKhczQqaa8NkrGl5zy7kWycyoVjGnZTAN2IoqO6cNtSOTkSGSyRqvCjjMLNL+rrACS31Xqqnf8Ala/CVzyTXWNsp9UN5YdAAkdAz16SiJmf7MJPEtuKkZTYECC2EFC9z1A5Dv6nA4JQIFJ98DO2KEEqArMnQoA0G2B7AiI+R/gkMD4p9v4BKjrDNqwI/8kR5YSgHwIWNC72RVfdd2CP/HTQWA6GemfjYANndKTfvBELncziaf4ZD9FXklEkgScbGvGx+58iK/rw9+ui7iFEwFaSYCu2Mr4Yo5e+sEsJJbEtv7oEtArivAhFvG+aNGiltDxgsQtm7O9mJPEJTo20C56Iwe/hQ1wwVhdohs6d77lRksi2vvfucMSDF8ho9sjxYhrN2aZ+ArRN/mBuX7clTZdv5wqXfMVFl1HIIrlzIAA6FEYUqkFmCiWEhnWcoLM6XcG5tAUx8GBMMdPUAEYFS3nYFDAYp03t8rIfAJekOgrF/U4IKAGxMYTePpC2lI2xRrX1Xyf+smyivbk0U5/lj6MiUeGGOT8+GN8fOMNGJBTsHAwv+MRP4IDMBmX/uiJzNETolOOIMkITFM7TodvbXwnOBDg0482WcvLjEQ/dKwvgCG4AUoCm8zsJqnox1V6dlDVCF56oA+80SuZuiTZkklCY5vwT990LdDMlgQJ3fAHAYgnlSud4Zt+HcCPnwAKctAb++MDv4IGmPAFehb4ZFf1ABCEH2MDGbJI6mTjLwLdUhQ9OY+NVaj0aUzfkxuP5GYzvgpoVGT0QgfaBDy0wSf94iNFB/1rw76+pxs6FNj4pnfAwkdC9GlsfOBHP+SlN2ORQTI1PvuTjS6BCD3Rt99cx5Bg+4GrS3SId/w4R0ECkPDDz8IbubJ0Q7d8UnxJeipyBZHvxJIx8Yu05Yf8zfeRRX+Wo5zHbxC7SGT4IAO9ZYnHQTY+JU7w6KALMUG//Jrvso/++RZ+YYD/+Td90Z2ijM35iHb6wRt9+994EilbKcJS5AB59uE3dEcH8IosbOM3302k81Fo5IdiEiwCCeOUgCjc9xyWgQSZG9QZgaIpjTIM73fGphhAqC3nZAQKCIuUro32jIb0L5iMJzgRB9MfR1YtqmwFKzDhUPrTF8DCs0/jOh/PjOVv7RzGCn/OG0T4xC8n157ByOB7/KUvpC8HOaIneswYiFzOxUf45Pza6d+5CXJOrA/nAzjjAA/n4idERjrRnzac1XfAJ32Ed5/s4Hv8G1//zu1SZGR/Tt/l36FP/flef8akp+gXZUxtPEABQDyMYMxuYnQe0AAQ/MhFWACtz1SEyJg5BCgd0F10KeH6ji7Jh3xPPsQm8Sk84iE2oHP/D/LPAJx+tNO/NvoCvuTEA9s4h77Yqyujc/DKz2Jn/eY8bcMHfRqf/PhBfvebNnju2r9LxiefO4aOPvroVhGKDcCKp1D80BjG0z/eyOmI3/iNH5E9Y/oeGLOrQ7/G7PaH9EdOvqkNWelNG/rojzntjE1OfoeH+E9sKIbpka2dzwZ4p1MY5W860w7RVeQxNts4D7/a+J2PkSm+rR88kMehPR0M0/moNGev9aJUYE1woOleaNPClU3Wm1zxVX1YlpC9i+YvWbYRLJ4sFDxdEhAqqTwIZbnCrKdoeiQWFS/iwno0XbpbSEwCKUBWNP9ozi4wyjoqaVNhGambvVcmCXhVjXFl5KL5TZbRTIkHVSe+4zumq5NN8YuGk6RnicC1CJ9A2jKVyrGAev7SnFXWpjbWnUx9Mi0yhVjZZPqjUjOdMjXMMk3R/CTLG5lS909/uaqpqylo7DlXSX8hER1aYrAWS9f0aLkgy0hF85PmDKyLioqKimZOc36fdVFRUVHR9KnAuqioqGgMqMC6qKioaAyowLqoqKhoDKjAuqioqGgMaNbvBnFLkEcv3arnvmYPvuSpolHII50eqfUQRJ4a8oCNW7zyiHvIQxMeFXYrkt88+h1yK5+9KTzJ5L5v+0x40ilPU1GHv902lntO9eM+bXsxzIYsRbNLbuPjG+zmoQ5PLbLv6kKe6nR7qvvP3RLrabuihUezCta6sq/BOeec0x7LtBeC/RQ8dz8qvfa1r23vA7Tns3ulPYElKXhs3bvQUETxfj7v7/MwjHfw2XQn5Ak4O275zX4NNnay65d7T50vyfhbQsg9vB5p9iiu3b/sXVA0v0gCXrp0abv/2n4b9rhg39WFTj/99BZ3XgiQPWmKFh7NyjKI5+dtuuLtIt5wYjctmyqtLPKklYD02KwnsALSqnrj+l8FbF8Ch2BWdUkgqmjfqZZtuGMPCsnFDmsnnnhi22JRRe2dfpKDwxtWdtxxxwqCeUj2yzA78si05GrTKA95rE7Ej21gdPHFF7cd4IoWJs1KZQ0AVac29fb2FLt42UlNNboyKmvVk6mut0fYktGe0h499vSbJQ7bevoUwFtssUU7xw5twN339ihRVduPWoADZ2BuA6Fly5a1N0kYyyuYJqKAP7CwLJOpt75U6Hiy1EIXdh/zxJhHpv3uMH2XNMhi1zcJxveSi6c9JSL/IzzSI3m197/xJUkHPnxHHuOa1ZgOa2Nsn3lCDW/GtkSlvzy2LdnZCY0e/a0/55jJaKtytccKOT3xll3u6NWyk9mItr43O8GTis/YxtSfhOd3n1yPrPjTp02EkHNN6/WJT4+fD1vWAE426mJruxnaWtdYEnLk1oexLGUZ21KJ72zagz+ydmdUwN4ug+yBD7MxesWH5MA2dM6ntMWD38muX/2wG92q8OmKf/Avy3n6GTRDowv90zG/cdi7A5/410dsgvSvaPG7LVe9cJav28oVLytrQ6GiVUMjb5GKBIrNvzkHkOAonFRA2sNhNiodIGs/as4J/KzPeUehIBOkAEeAAmrrzapv63d4AVrABvgJLAEBGFQknB8JBoFp32lvbbYfsL1sJyLga33cu/m8+t7GOHYxs++vN5vjWfAaR9XjIIMtQPGJf29tEWzAgZ60Bw723zW9NUvxGi576pJL4AtifwMMuwrq19us9advy0P0QyZ/ewekvaHJJqE6R790xk7AH1la8nqyHPqztSSQAUyAxssJgKjxVXNIcl6yZElbNwbofADg081ZZ53V9i6mF3tQ68u1DPYxI3OupSjneokpe7gWYSxLG+SxzSVbDiK/e1WWrVBtT0k3ANrLj4GXFycYn02BHVkBtjH4giIg/Glrvwz6J5sEgY8zzzyz2cm2tmyqPbnwRMc2sbchP/3Zj5vebCAGtMkqyfI9OveKKj4sLvrJrND4CgWET4WFbWPxz8bsaCw+IRnaFM0YEqZzycdH6HcutnMomjuaFbBWVahWsp+yagVxnJUB1tbljCPYBAtnVWUAay81yEY/gklQqlgAukor+9qqbvAbmglY61uiEjwuZHqNvuDxt0SV6sq+v0AScCL77toBEMAAN+CAV8ElwAWlfrUDEPZ5ttEOYAMI9tYF8HgFnqo0r+vXVvUogakWgSFQJQ/g2XDDDVviwB++jAs8yekiFeCz/ajfvSiALJKdNsAXSBtXX8bBE8KrN5ZkG0lgDUxUvJIisLU/MDAFpNqaSZBXf8aVONZZZ50G1tqwJcAFsN6UzcZdolvtgCOgtdcwOVTDkrFExp7Gpkc2Zy/juc5BXv3Tu5maMWxohCd+xYfISYdsZzx2kHCAKv1oz2+APIBkT7YmJx/ls+xAT3zQmBKlsSzX9JPkT8fsKlkYj5/jD8++B/y7775706ffJVFFkv7NivDL/nykLoYvLJqVNWtgzEEFC+eZi6vR3SreVFGAqjRUaAIQOLt7Q6UqSICi6atEgkdgMRsEXASFJOICjwNwAggJrEv0IvjwBaxtEC9hAB2BiE9TYCDiO21MaYGstoBcO0lHxae9v90hI7mYAttYX2BLoAIXCV4Vp6WfvIbfARxMnwGYylEypFe21JcD+AAiPFnuISsAAg76BWIOegZcPlV5kiKQw4exzWwAjfOANTtJAIhcEoLvHSpy/LDnMDIm8NUH/lNRInzQPTAlS2YtgJ+fhG+yAkX6AojaSjZsAPi0RWTCn5mT7/Vtq90sz/AByY/P0TG7SZyShQSdpRZjsonvIis9+Z8MxgnpE8/sxQ7sr9KWRNja/tNsI7nEB8UDGek2ti9aODS291kLNEEoSIG1aSaQEMAA3G+qOoGrggR+AWvgNhvr6NMlvHrxQtYrBRk+BBm+vE5M5SwAfQ/IJR5Vp/9VS/oAmq4RAFtVsCqOzHSiigPuLpSqon0HSIBl1sW1dZ7kARBVoQBDf87Bj/NU5f72hhy6A4z6UknTKUAAMD6BEdAFFgANuOnTlP6oo45q7887/PDD2xKBcwAiMGQfNgOEBx10ULuOYKng1FNPbYlpGAFc1bexgTRZ8EunkgMgzSuv9GW5Q9u8rkwVDATple4tbVhuUKlLKOQgDyKbBEIO+jMDiL5D9AvsM0PyOz+TrPgnGY1Ph2ZO5HQceeSRbbmHrow7U0ohgGf2pJ+ihUXzDqw5NcDi4JyuSwJbQDoECpASqCpMlZjgBWgqHxWPgLEcwZEFA8ARPKonv8014Rtf3SCPPIJLMDsAjoDvAhC+U0UBEu1Uatr4Xjukb20BYiq1fOdwvrbOSSWsH0Hub0CmT+2Qdr4zHr2ZelsCUdl76a87aKwZq/CBjT61NYbk4ILfokWL2guFt9lmm7ZU5FD16sc4ANCywFZbbdXaudXSsoYZ0DAyDp05vys/iozkBs4qUZvrk18lS39A3PIFcAbWZFRlS/ISkj7pBbEZX1PdOhdwq5q7gKhv7Yxr/PAQHfvUBpirusnpkDToXrKYKDlNRsbCs3HxbbyihUVzCtYJMEsSwzI/sBb4Ki2fHF17lTEQ4JAJTsGu0lShAWvVmqkoUPG74NEGoJviqxxVH/7321yToMSrgI8uAJwZgerZtBdoCDZt/Eb+6Mz/dKCtZKMt0FD5BRDoz7qnKp0+fOdcbQIw/pfY8EOXdJGKUOWnXYLdeXgGNKpQSwaWu7S3JptpfPqmd3w5VLim8ZaG3FnjzS6WX9hIxS6RooD1C1/4wnYErCd6CwxQwjdADjjlYGfrypYDALClJHcFkYEfpFL2ElhtfA+MzcTwhXdyhIyjn0022aR9b13fzIKuQ9FTkl7shzc+agyHtXdgHVldF2BPa9l4mSmR27jG6Oe/aGHQnFqU4wpqU2SAEUDoEqfntB5qAQYcXnvAA0g4O6BKsAoEa3mqawEUsA6p7vzuYpcpv7Vl4LAqCP+5a0BgSUAqVLMIwGTq7pNuLCWQib60s/QAFPVhqYMcEo+LjipD7ehXf+5GUe0CUgBqhkI3kp92/gcO+gWoKkkzEp/WUbVznv78be3ZWHijfxXm4sWLW2VtGu8edBUs8AUUlgSAuSRkrRt/5JUg3IvvmrZbPLtgN10CSuxsFsCuZMEvviV6d+dY1uBLAJ3N+YxkB1Atm/EpwCkx5AWs/K+rz5DzrRfnwp0LjV1wpV964q8ONvY7udlq2EwuiU07vM+UyEW/Ei5bkbloYdGs3A3SJRdKgISAAKS5G4Tj+80FLUFk3RZQ9FcAAFzAqAyBioo5AKdKdiVd0GSqropSSfrdOKa8KkABgAQxgHOrnPNdALIWrJrpknEFqKnoVO8GEZQCnkyAzBopAh7AFl+C1IUgIAhIBaXzAC+5BDk9qUCBMBn8Tn+CHZCrAh1AXOAbJwGpmiMj0KZ3h+SmErSMIHiBF2AEcKb/+vIpiVnWIKfExxZATNBbF8eztXHn5o3S5ARW5DJDceBXfwCajvGIf+Bj6Qng06v+2Amou0vDufEJcnfvBiEXWYDQoLtBtCM/PfIRFwglG+3wQwa8Gz86VO3yR9Usv/FbgJttyEBuSUalLRmwjcTCn4C6cfXvDhay8iMJCNE1WY1lbP/ji47ZTt/ukuG7EgK59c3PVfSWYNiI7/NRSyQovmkmQD53opC9GzuSuesB+CGjaxKJgaKFQbNeWXM2FUqWG/yPOJwgBEDuNxUggyoJAQK03E3BQd2/rYrRj2Dm0N3ANY62ABz4+13ghwSU/vAEvDjyoMpaEBoDz9oPq4S6pD2AUkl2q3lBigdgaFx9o7QX0HTgkMQAlym4JAPIVK6WBYCQ+3UFoaoN7+72kOjI5f8AiPuw3ZsNEAQpQDLL8JsAliQAmxmGJAEgAIkHlzLNByrGBXSqc/f0SibGU4HicRA5n+7pgN7876IkewEpMyQJ0PowXiRCYAQI2YLczg8BITLQHzkHVYnkMg7eABPgBYDOJbcExAaA2q19wNUsC09sTBa3v0moEjkQlUzoiT9pEz7wgD9j0o++FRQSDZ/m2+woqUmMbAZw6VNxgA9y+tSXxMqv6ZdujMmueKI/+qCbkHH5Dj9zvv8dIefjRcIxhmRJN0ULi2Z9I6dMxzivCoLTAy/DqGL8pgoAroCpWx2EBLh2CQYE5Diw/vQbUi2pZB2+VxHpM85sTEGUylv1JQAHAYC2KjpBr9LpAvAg0l7QAgr8CTKEf4nGuHgSYC7EqRQtF1juABx0BLzw1dUTmVV3ZgT+d5BHG8FsLP9HNnoyHiIX+cjpe4Dv4RDj2UPFOfqjI4lOf8ZF+Ca/vthRO78BGrrwOchedKBSBSjasBMA0Q87GpOsKHaUcMnAfhKHcVTtSBKng/gR3sNjPwE+iUxVDKRctAtw6rc7NlmNjQc807Eq2Xj0hh8HGYEdWehSP34HlnSibzMn+gP2O+ywQwP+RYsWtfOc7+DfxtQP3bKnIoUsXT06R1++wy9fdh4bhnwvyTtX7IRXRE904K4Xa/PuBhpmq6LxpXoH4xzRCSec0JYCVNGWRVTvK5sshwAxQawidOvcQiOACzCt0QNHt+MlscwFWfLYdttt2wzHNgWSwbDEsrLIjMWyi0RrycjMoGjhUaXeOaJUlCppFehckMpK1aYi71/zXShEp5a+zKhUwWZFqua5IsCsKjY7ou9Uu3NJlhZV49ay56IIKFo1VJX1HJFps2UB4GKKC7RXNlnKMKYlIOMBtYVIljFc6LXcATQlxrmqbi2jWJ92bcIyjkQ814BtacWykWUTM4q5KgaK5pYKrIuKiorGgGoZpKioqGgMqMC6qKioaAyowLqoqKhoDKjAuqioqGgMaNZe6+UeYvd6euINuRrvCrknuNyF4B7YqZL7ZpctW9Y24/EAwrCr6656273Nfa5FRYg7u33Pk4se5/bACB9yZ4w7JeztYS9oDzDNxR05RUWzRSNX1p5AExweiQbWnvYC3m4XA+Aeb/aU2XTI+R6f9oiwcz0h6OmvHG7T8ui0R5g9uVVUhNzC5x5rj3Bn3xW+4ulKD4zwHcDt6cq6Capo3GjkyhpQA2SPU9vzwab37nW1Y5x3wgFU+0/su+++y8+YnGxBaWN2DzrYUtOGNu5NDgk+e2DY9c0eE2ecccbyX4pWZwLUioWjjz663V9uW1b3PpvVeezfQytmfB6eWVUPsBQVzZRGBmuVC+AE2B6j9ji1wHCjvo1xXv3qV7elkMMOO2zKwRGwBsQe47UhjodJQipte17YntMeHgFr1ZNK3G/GN54n+GwIlM3u8yQffm1WlL0cqEGwexrNns02AzJ1tgmQ8fxGLn1m4xy70NkwCZl2m1mYYtsUyQMapuG+84SZx6DtCwJE7LTmMXB9aIcn+1rYkMiDDTZ4Mgb5TdfNUiQ9wGPzJm8kIaPDwzb4VFU6PFZugyb7WAx75BqgsZnz2Y/8AMw59rigA3rpJ7JIwNkhjpzIBkJ49r1lBntX6FfCdg7d0Rv9kRH/lsjwYfZlrxh60abrIzaDIg9esh+HilmFbK8M/XoAho5sNEUO/XlZMZvhx54elsvIR//syg+AtvP5C9uRAeFRsWFsyyTG1IY8ZpFIn3RLB54YZCey2vvFQzLasYkx2ZVO2djyHn9ShNCdQ/XPFh6s4Qv4IodNndgRD343g2R/YzroDt/82CvGyIbMSPmb840jUVkK4m/iCl98nU74Of61YyeH/b7pwIH4NxvQAz7sT4L87slYsen8bnyG6MHYfMP4Ci66Iyf7sZ19X2xihU9bB5hN0wl7I9/Tk82ztEXiymP+bKwvPpP+bOylPxtvsa/+6INdss8QfyIXHbELfY8DjfyoE6cVnAxBUQlyTmHzGg7rWNnEMRjZ7mnAjbE5JGNyJJ/2TAAWjMvRrYsLJg4B6Cyt+JszcwzGFlwqeQblAPrkVACXfMAT2bfZVpkSlt39gE9mFoJEYHA6AAlwOK8+jSVA7ePhb/qzcxuwRpwMkNj/Af+AVN8BTjxo61NgOPRD5kFgHT3ZoQ8A6UvgcXYBaV8NG01lU6ouuYbgPIlPYASs8S7xCVz8A2JyCiozL/zROb4kKL5BT3i1ZJGd5wKu2cRJX8DK93gFJAoAv7MDG/tbO0DGB/EYsMSXftnewZ5+A+x80u/0CoyNp08Uu7A3v9AnMPWpPwGOJ+PyF/+zJ7v5ji7pNZtxiQtJTFKiJ3Zkc0UE2QGKduzge3KxJ/sBSiDPryW5JAlLhcb0Zns+HLD2nf7wkc3BABvd8W9EFygARk6Axp/scJnd/RA5yScpAGoFET3Fb/VFJxJLN9EiNhA7diG0f7pXxrGn7yUb7dnN9/TMp8WG+GUDfdMJ3ozlXH4taUhK7MmO+NEf4reKKDzrR5yKH/rQnsx05zz6kWiTmOY7jQzWqhBK5JBxdobkNDIqwwvqfkPOJhlPJc0wXtXkDRxeWoq3gMZFF13UgkglwREcjGXjfMssHMiG9QzczyvjCxRBRlZOf8ghhzTAGkQcgmOrtABBgkPf3r8HkACb7To5EWc87bTTGj+AHp948AkABC6AWWuttZo+VRT6p2/8A1jAwNEFJr0LHkHYJXwAPYnFyx123nnntsxkXAEuWAQVngaB9VRI8APoVDQ77bRTC0g2Ajp4MxPyXYIeUPERb+02tna2EAWQ+rO0Ro98SoUlmbAj/Xibvf3RtSVvQEywek2YYEyfgE3bvEBAFQ48AR0++QsbSQgAxhhesmCvcf2r2PHDRna2k5QAADsDeyDqrTSATlIyVsCKjrskaRjLb/zJMqHzY3Pj8dlddtll+RnTJyAqIeGDvu0OiDe+hd9TTjml6Ys+8YNHfmN2KCEjtuEXkrQEix96krjEm2JGX3QopgbFuThhN+/hjG6cy1eBP2KzJUuWNL/zwmk6p2szitNPP72BNFAVN4Cdz3tzDxuJyfTHvxHw9j8dmCWxF1+DB/TBR8UBvYwLWI9c/zOQrCcgKIOyBFAu/FE6oFvZRPkMpCJWDaj2JRDTXtUJpwDoPjkBXvHM6BxIlaMyG2Q4gS0ws79ylgnI3k8AEUhdeumlzcFMtdIOoKqkOK9qQtBzFsFia0vLRX4D5qpc1YOqHK+AmlwCCi8ShyQi2ACZgPJJD2QU9P2kH78DELqhI1NYMklYpo+uL+BrGOmXky+7elbiOoXD32SWpBxZVsAP0L3kkkuaPswyVHgABAgACLoRoGTDk2UgCclMJH0ZE+haYmNf5/keH8agAwAAOOmfvfSpD/2Shx/oW1IG3KmUVcbaOJwj+OlWkEuKEiVwYnMJwMGufIEd+I9zgJVZFrkAAjubwejDd8YNsZUYOeecc1bM5tiB3HjgM2mnQp8pZelIYqcriYkdHBKPsfFHH3SX5R1y8QkHG0gq5MSjA49mqPyPfsQVn/L3IGJj/dK/PiVVMvuOT6aIANj6lzC0ow8JzMxB7Fhq4gvsT5/40Cb9dWfw/hdXsCczB/qUoMkDK+gnhdQ40Kws1lA45ZnmqTJM2ThBAowzr0wyvvE4tqqJUzCcLM/oAlEbAS1wfDKSjMxBZ4v0CTgEgWQFDDmeMYzPyQSPpJDpl+pS4G+wwQataghY4xHgkQsBnPAbMOKQWSvliICYU3No4/UT/jgpPgQBPemLnvBqfGt5EsgwUtVwduOpAB3+DiDpGwgGPAUgXTgAKx7IQg58CmQgnZmZ/8nJZn7nU4ATWApMf5Mzyyf0SVbf65tOgQ39kIM+JVY61keWP/BIFxmbHvDkXECkAAFUEl8XaPsJz/p1nr/ZPssO0bXzu/YATJnx+Z0dJIQUPeTUFxAcBoBTIfzjQVzwIwnOmGzBLnSDd2Ow6yAiPyDGk1iiJzZKksIz0GN/9poJGZvf0otxADaiA3qVaNmX3/mkM74lcXYBukv4xK8YUZzxFQlLks7y2Uz5XVU0K2DNGU2FvHbo7LPPbkq2r66N4AUN465sEqgJiEFTMb9pw0gBALwNM/ZMiB4EgopKVgfIQCL8+KQLn10e8SIgAL3AwScwBeAclyOrsoGMAATQS66eMp511llNFtW2KtIsRrKaiMJDP+FBUGeMYQRMvFbMEoq7LhyWEMxeVJzRMwBUpZv6pp3jiCOO6O2///5tWgwsQl0w8zd+UHj1NhfTdm9XEbQC0bTcjMBY+ALUeJho1qNfnzkmorTv8tZPsY0lNMsswI1fmTmpPNnP+d0+JEV3qljCUjUCq/yetuwkeXT9ZLqUfuhZPHbtcNRRR7WL/njAJ1AcROEHDeIlv0+mp6nQsPN9T0c5gLU4mQiszRa8Mf68885r6/B0KTZiFwly3GhkFJWdKMb6mooHQFlfVVEmiEKcH1j2TwtHJU4EFDml6g3gZKlDtjYFMrbqRdUG7BgbwHQBYxTirKpJVa6sbz1aBanyQHiU7VWwAVw6oD/8SnQu4gBsfXFCgGTtUHVg2kwOSVGF5BPvpt+mekBBfxx5GAgBMHqiA31JENGTBKNKNivKFf9BRA6ACJAkFIeliW7Vn2UUdvY/P1AxIX1bW6cr/OBVdezAS6oslZDfnadfswxTWH2TWbXlN/rVnuzsm4ueZJPI6EO/AD5+gR+Vu4D1vYPNjA1sVV/OI5PKc6I1TQmOzdkNP5Yw8MbOeFLF9YOQmZXfJRqA41zjhlcX0Hzqrxs/0yX+oQJWPPEpvsb+7GVcS2xmAOQeBpRAXB9iXKVPT2zG/+hJHNGTNhPpaSJiZzrh7zAk/odnejEL4APa8FPjk2NYUkZmEtax+SsfhUfinT35JV0Pk3m+0shgLegEkUoPMKoUZDDKpVgHw1Iw5xUwnITChoHKTMiU19pUwFlwM7yxTDmz1mtM3+GD4fAPKASsoAGkgn+iqeEgIpu+9AtoVbn92RvIcRqBaEpGN6bj+HMBB0BxoowLiKyfkg3AmWILmIzhe6AjUBAZgBQnJ2e/M3JcAEBuNjE2XZHf2O6MwJf+Z0oAwtqtQMIr4MG3cUzBJQMXGfGJP3xqlzZ4kshc5NOXGQo9AEU6BsZkpkt6ZDMHENHe1FxQswU7p1+AakzA4nyB61M7Y2oHkNjC7Ij/AjU+NdHsCwDSpaRkbDYxPhsADGPiu9/X9al/fqmP8Jn1ZeebLQFV5Pwsa7AXG5E74yfhRRfiC0hLTGQAei76ZhxLV+5eMmORUIw3iJwvsYgJvIkrehLzwJBtoqeZJBY+SdfGMdvSt2UksogP/PIhtqUrusGvxEy32vEff2d5g/z4pRcxCKwVF2wkvhLrdDdOgD3y3SCM7g4CVQyFMSIHY4CQK+SuRFOgq8em716q7qLZTLNxlxicw5jiCBAB5zakVG6M7I4CAW5K5GlLwa+qAB4cTjuOISAYFUgAtakak7MDWVN/67767M/6eNxyyy3btDnruMbVVkVmfZ/Tcnp9kUvgAxVTZ0GmT1e3OSiA9ek7BwfGBwDitPoQsCFtVCQqOvd9AzMArQ05VTaumpN9phQwNO2mR6/bIiN/kADNvEy9VcgSKxnxLbF6yAnfeMGTC650wp9U04LMXSxAxnfaCTrBCBAFolkIf5PcTIHpFvkNQLsnOctfeDIDUiFanqEfffre7JDOfYfHYcS3+LFZkdkRv0slS/90AFjJ1SX98n1Jnc7IRQbkXFN1vgQEzRb9Zgw+oy1gEnP6dneDGESADaADKr7j7TGWIyVKepMoycgmEh9f4pfidhABO7p3hwY+vBoueqJbF6WnoqfJyGzE3Tvi00VpBzClIwWgREgvlpvYnP2Aud+1gz3kJhewJ5M7wugMHohz5zvEAH+QwFIYjQNd82rQfMXyv2dEnIahgIwLMxxA9SYgcjCEaouBgSTlchLg0AX1EIUyfKp0lWOCDunHmL4DLPr3N5ADyAJEMDMKUBCklhMYSNUmcAS45QP8CYi0lcFlaxWt/wEJuSwzAG/8xsD4I69zjK8fwW885+ETCRrrq6ou/OlDgAIW5+TinnFU//o3NtnpSFt94JVuOS5A0JffBRTnxI8xACL+/U5PXXIeBzd29IQHAEuPgJy+B9kFYOCFfPjTB2Iv8htfP3SpHSBjE3rDZ6b+WSMVYCo1PuF/CcvYZAgvztE3vrWha/3zNwcdqUD5l7F9Z2z6J7u2xqY3OmZz/eDLQX59+ltb7fTJX+iRjlASDhvgCY94MoY+nG9Mdgh/fJOttE+VTPe+9x29xLYIX5GJ7HTgd/oFTn7Tv0988Elt+E38WL90KLH7TbLjB/rRR3ydnGJQG/7D5/Cvn/ghir/4LX04P37Gr8VS9DSI9IEvlbPzExf0Th76MB5/ok9jJTbogr8YE9YosIzLlmTwfexLv8byNzn4I97pI3ESW/AVffMbbcaBRn6CcZxI9WEqKEgErYDoJ9PCY489tt2r7UIaZ+gHvKLZIYHndj7VocCyIdco1VnR/yd63Weffdr90qPcpz2fSFWfpToX3s3c+smsQ/xKThK/RLKQaLVCIRVMsrGsPogYGnAA9HHJuEVFXeLbqlXV5EIhlbuYVMWbsQ2izGzI7e+FRiMvg4wTmcoyuumVqdEgwNbGlNbyhqmZKXhVeyuHLIfRLVuY0puilq5HJz5sOcA0X2GyEMgCQJZjspzYT+S2zGK5A7BbFllItFotgxQVFRWNK9VibFFRUdEYUIF1UVFR0RhQgXVRUVHRGFCBdVFRUdEYUIF1UVFR0RhQgXVRUVHRGNDIt+65V9aeGsuWLWt7OdjPoEvuffSsvieLPK7qZn3tioqKioqmTiNX1sDarmU2zfE4aJf8ZrMZj4ief/75baMbj8IWFRUVFU2PVuoyiA167HZl5yugbde1oqKioqLp08jLIPaOtUGSN4fstttuvb333rt9bz9d2zXaDtX2lx4VtWuZF7Rq10+WS+zqpjq3ub4dtuwE5pFRm7LYJctjpLZZtXOeDcn9LgE4PBru8Vo7iXlE3PaJ3jVn21RbPNr61Dn2y/U/vsMXMgswvkfN9WWHMI9B247RBjHar7feeit2SAs5z1afloL0Z8tL45OdHNnOMTvT6dsuYnZjs0GUXee01YddAcmUXffsDmaHNTzZKZBu7ClMFvqyrGR3MbvgeVQbmcWwh8eNyZ5lKX2Swbv3bKtq/4TsmNZPtljVxt7B+Hcu23nM11jOpUdbzSL6ZxePApPVI+N2e/NYv5cmZNdDj/rrj23w6VFo24vS6aB9WLwVxj7UzssugNzVeL6zUZG9IPxvxmanOVvkGt/vdM3WdEkf5De2bULZDa+I3tmC7Wwz4Htbu5ox0nEegTe2tsY0trHogT3sBJedJfFii1a+6zv2tn0n/sjDF7Qzpl3vtPF4tK1z+YJtXG2FYFdCW5vSK3/hK/TA1mTCG35sO2wzLD4rBgbtCWInyfgkPfCp6ICfixv9Dtq0TKFlW1Z92/7XOexNdnakZ1ul4lOBhk8xSmb9GQtPdoLkx+LElqzxCyQ2bS/rOzYgH18XV/ri72Q3tqVUOjMe2/NVNoUZ7I6MI57ZNLsIkoGt1l133f/jc841hg2i6N32sl7EgQfn95M+6IQuyWc7Xfuv45eOslWF//VrK1Z+zm/ixzOhkfez7idOSLEcHcgxqO0Obbpv3+BhxIEpgTNzWg4Vp+K0AkY/+svbpwUgg3Ac7TgDw9joRbuTTz657aNNSXbtUuELGEa2NzJQ4/AMFMfHP4M7jGlsLwbgeHbh6wdrfOuL0wpQ4+uL42WTfUGAT6DH2YA2EOYsDK4dB+FgAog8gt/fgkPQ06cdAzk5Puk4QYDohhx4OOGEExr/22yzTQtC4ziHU7u2IDA4PL0MAmu8ZA9gf3PIgASwBcSC397D9MVxXZcAPByc3gA73UjWgkDiIXfO8/o3Ox866GQQWNOLl+0KTLLhg07Y1t+SDbkBFdvaW11gBCCyN4S/6Zs/8QNLctlKEwFwgQ4wHfgH1nwRSOIbkUfw+Q444UNQS7RIoEp0bO9luBIp4JUw+D778ZMELH/ISzhs+cmn7eMMdNmPnQAxvfMpf5ONT/Bx5/FnOgKQm2++edszYxBYsxEd0SmAIzufICv96E8xRM++6xL9kofM4pjuYkff2/jMDpbOA8TGoGe+E93xB2PwF0lDIUWO2IDO7FUtCYpPCURxAkPoLj7ok870Q09kYD/nsqE9ZpCYFDPilT6Ap+TPVnCCfuNz9G73R7IpIOjywgsvbH4+DKwBMVzQh/7YSj98AzCLX75BBu35AB+cV2DNgWRXjKriOCFQYLRBARkCZoBNNWajc8IxAmEdBJV1VRoCguOouAUrkDv11FObkoEZ5wnhB9BaL+cwNr4HqIA6iQVwbbTRRi14gM4FF1zQxhScjDwT4lSpRDbddNPmyMDkjDPOaAGPFw7J6EBk0aJFTU8CSUVLDu+QY3QOtmTJkhZM9sumG/05V7UAVABetnw1NmfkyIJZsKsCOb7+Bf5EJDgdeMeng00FO7BnIzo+5phjmv6AuhcZ0KGXGghmbfAXomtja3f55Ze3hKTdZAT8zcQEIVARkEuXLm32Q8Zw8Tog6sUD5FeRAT4A6Rw2YF8+SKdko0tEJr4aYAlJPosXL24AqE/9HH/88U0Xg8j3QIc9JDX2oh/25X90ig9+gQ9gr72gN1bIOapzRQuwCIiQszs2MOIXdNDP+yAyJt8XRxIo/zY+nwSggJNdJwIUdhSrwIlMkqOxfc9P+S6f9LKPNdZYo4GlN8qwD5spHlTT/EB7oIgP+sIXvACu+DFzMxYbAHqyO09sktm7PMmEX0UH2YA98iZ3hQKfWZkkDslvBstHvN7Qp4RiVsknJVExOBV/n4hmHawFIaMwjspG1mEwjtmfsbtEYAbhLARVBQIsQQdc9KUN4VU/BFdlAWJj+vQ/5wEKIYGDGF3gy8bGAW768J0+LbNwOGOriIAb8Beo+pM4vBDVuZwDT87RlrMNIm0Emf7JjkcA6hCQfvcbPjidJEQWQa0SogOBDiToFMj438EhtEmVycElL6QvUzHfc24JR2CoujP9m8gWeNYXWQWRJONTX+whUACOihcAqsKNFVnZKckkhGcBjmdAjh98TEbsxEZk9zf9dBOofgAbXgNExhak9AisjSuI6Z0fSJKCB/+I7vBMhi7xOSBgPDanA/obBNYKBuMBP3akP32Sm8z4ZGdgxGf8TV/a8C+yIf4HaPiUsRQSdI2cg/gp31Dd+uRHipbJqjbykYm8ZBcvKmD+hX9j6nsiIo+4NC47kpkd+TN+yKk6pzcJSNGAL8UW/dO7+FVssY0DsZtlRudpZwz8OE8/qm084p8/8kPxZCzt2Z+fxKZ8YpBN2UKSoa8AOb/mx6EkWEnh3HPPbd+R0dj41Gf0xNf8b2yzRMWeAol+YAfew/9EMTcVmtULjJzO9EOVAjQ5JgFUjJMRxXFeAceZVNCmFZYJBIsA0wbYAkljMSgQMx2jHIHo+67itQlI6ZdR4/SMCdQyFaNM7RicscjCcPrkiCpdgO1Qjal0ADpnGUT4AS4cOI6srfGNw5jkZcxUWeQJqDnf+PpQaTgsAZlCZny8CTqOHAcS+MCCvlQ6pqOSD6cUYIJ/IscBJuyGNwClQjWFdD7+8SZQpkqCjj+wJ6Bz62aAalTCnwpT9c+WgEHwAAQVnLHplk+YjjoEDhCZTQKyfAGI6NsUGiAErI3Pj+k+4+PZ+qlXqQECBOhV1PyZX7IXQOpSEqTxAlJsNhlY8w9+wp/wxCf5BR8CRkB/Ir8wLjnZEcBbq02i07c+ySt+fJ/+yKzyNJNhI76fV5bx6SxNAnDf0YFij/6095sxfKaIMD6/5ofa05HxJiPySoaWuRLLMEachaIncdiNd3EHl9gmsRYiE1yyNMfXzQroAV6x+2z4+qyCNcUDEMEjQ6pmBM1UiPCcIZWP97Htt99+bTolkzo4mbUpa45AjZNxBG+NUJE7r9/ZrDMLBgHLwQGmMYYRPgQ4SlbmBAD1wAMPbK/wN/0yxQPm3n+nuugnxhe4AP4lL3lJk8V0k5MxrOC0vme98cQTT2wO6zvOiGcZHC/dQ2AfcMABvSOPPLLx4b2Bhx56aHsbCB1wZgSsnQ+sc+GNQwMIAZB2wyh25NhAe999923jsIXEm4pkqiSo6MLsRIIiHz5mg6Ib1G9737ODw9+CyAEQ2GA2SRVmrdbFRBd26Yj/4AmIDgNB4Md/JFw8WjrxzkSBL9ECZG1CfFPCsfYNNLzTM5X3ZMTv2Rbw8GV25b/GBYBAZRifiO5iR/pjR+eEyJuY6RKeJWly4p09fAJ2PCkAxIXEGz3kGET5LcmDn+JjKj4Fl/baa6/eIYcc0mLIIemkgENkECNiKm1c+xJTCirr211wD8GjFFmSH3zg+7NFswLWUZ5MpPIzFbbOxuGmWsEwlLUta90cSqUgK5n+chJCM7h1VyBnDVPlZywViICgrARmSD+AlpGsiQN5oI9SdVGwc/xvLONTtuqP4RiSM+sHePlUFRmP8w6qrDk9kAcMZGBo/NIJOVT8Do7PafM+PfLQWVcO/ZARH36jFwfZBACe4+SILjivgPI9m9CZhDaVLE8flo8czsc3efGh4tAv0J0q0RHbkkFfqq7pAv4wkuDYScBmJkQPbEy/SMHAjsDNYSoOFGeD+IA+6RfgSLbAM6BFTjpnE3anW/7iPDy7DpAXOCP2VZE5nCcJKDJCKknVHUCIb2s3FcKTCpT++SR/MA7fA3qKrEEgFJI4jC1h99uRvyuWFAp0oT8ysgW7sD9ZjcE2iUPJDVaIvbzijZ8Zgz6dKz787jOFh3H5Idyw3Ga5hB9MRkBYLLrgLZYdzusmKX+LEfKlDXm1o38zksRaCLbgzYzATMcsQVxaZqIPcTMqzVplLcthDLMqQGvVAG+iTN0lYMxpXXxy1ZsjR8A4PuMzHod24cWFNgoFKAH0LmghAAcwZUm/ecOzvlPFmwIBZ47jfOANpICRoBNk+uMsqgEOxGnS97CqyXcATvWh8nWRZPvtt2+GT9IwrnYAmtNanwQsqn9BjUckCMjKSQCvQOCkrpJ7GMkFKrqnH6RPunceB1OFSQouqvluMiInPVhPBBTGS0VFT/RJ71MlcqoSjZ+7BmaL8CL4MnPCKx79DxyAhwTJ1sBGQDmHD7Glg5/RtU8+Mh0CvOSjMzrJEkAIOAJVSUUbM0S2FfTsZ3nJEbCO7QCpZRwgx+bxa4lBnAAzy4yqyalOsfkrYBYLu+++e6usvWvUWECU38fnBhEfY0dTfbMHvMaWYpS/4wd48tUsUZAZzy5E64MMLkKS2ezbhWkyq/LZiG0kIbbhd9qLb3pTrLGx4glYiyX69z8dx6bsIvGICbafLjnXeV0fEeuJ+RCbaEtmuhEjfHy77bZr3ytgrWPTQz/AT5dm5QIjJhwUDKhloelOc1U67gKxnmRt1FQfQOrXGqeryADUfdqc/LjjjmsGYmTtKBPQcZCAaUjAAEnArNrKmnBIQHCSVMiCwAFEgaL+OJzpEEdiRMrnnBtvvHHjvdsfwrc+c1GOUwtWjsfZgTN5rE+aWlkKASwMzBl8GhtP9AroATyHyBqbMQAB3QgeFUmXVBvklqD0yYkAGiCbiFQ62uNt2fK1OvoVHJwQPwJjqgQgAI/ZDZnJNVsEiK2F0oegPeigg5pegA6/4DvA2fKZpAWsLUfhQ+AhPqH6oSc2cKFrqpSxVNTuRJEM+UYo1aylOEFr2StFDCBR5Zsl4SfAh4AxG7geo0ABpJIQ//MbW7JDCpmpEL8VOwoqy2N41yefVAkC7S4Q9RNe2dE6Mn67cuJdYcB33BHE78UVHZMTHtCPvxVjdCa+8hwAXvimmbXf+K1b4PAp1sMXPzQrkBAtO1muEw8uBNJ9EpeYU/So1tlUEp0qGR9A45N+/C8OJRd25s/RuyQqeYgV8rKz+IYN7gJR8EhCeBOf04mbfhr5HYyUzACU6KKKtVwVKacKpSrArIBl7H6iZOCrLcP7X3tG0SdHYnDTH8oXiMCD8BxHvyosUxDK1A7IAl3JQ9+clfNkaUU1wcGAremRIDJVdw6j+B7f+hFwkoGx8UX5HNMMQt/hXxBpy8AcLEsGzjOG/gGrAAWm+md4v+GZPPjzG9lz+5y/09ahPyCk4sYHmY0HCOmeDPg3vu8FNicCauTEq6mgNv1EPvywacYjgz7MFAQtGUOcmA8IvPCB6FuCEniCXHCSj27wyWb6NF6As0uqJvzRsfG1oQN9kotu6MXfvjcu/6EbtjJe7jN30ZscxgR25NPOYRmBH0i4dEpPZlkSAd61ca4xABTb0G/sYXw+Ska6xwPyPV83pvH8BgR8kpk/64f92AMwOMf4xqDjVOySMh/zyZ8lIX4hVvCkf/zyL7rqJ/bBLx0aN/JrK2bwDtB8300ayLn45i94ix1TULA5O5IBz/pnY4cx6FZsOpe+AF+AXZzhIbokK/uIAXZLHOsHb86jM3JKZHysK7d2kct3ije8An5/05/4w2d8DhZoj7/IT2Yx7ns8+J5v8DmyOJ+/6Y8+9G1csxb2Zkf6oCNYxY/0R6aZ0mr7Dka377jHk/IZiQGLFiapeA477LDe+uuv36pmCaA/Oagu99hjjwaE2hbNbzJDOPzww1siV8mzaT8QKiLYVGI0c+1PQuNGs7ZmXVQ0X0kVpGpUlQnoQUHrexWSKrNo/pPZiRm8SnyYTVXqZjYq74VAIy+DjCuZcpqeCFDTJVOUooVJpuPI9FQFZjmhP7hNVy1fAOsC7PlP7OWwJBfABs79ZCnPUgXAHvfKerVdBgHUgpiBrT0NMnTRwiAuzt5s7BgUtN02WXMvmr/EXuKXLSezqd8GXRMZN1ptwbqoqKhonKjKyaKioqIxoALroqKiojGgAuuioqKiMaAC66KioqIxoALroqKiojGgAuuioqKiMaBZuXXPvYye388eEci9j9kvw7P17nW0J0DahbTz3H2e1U8bz/y76b17/6T7X/OsPrKXg/bd+2KJ47l8+wFo53eHezKN4UAeinE413f41EbbPDCT8T0tpY3HVn1HRvsxZM8T35HDePrxt37s66B/D2Loxw369ruwh4D+9KttUVFR0WQ0K2ANgOxza/c4z+wDIMBmQxa70nks1BNGduJKO8MCMsBl1zTP+HsSyc5k9nKwOxrABnIBbEBtHwD9AVYbiNuNDDhrAzQBqN37bDjk6US7djlszGOzGhvuaGdbUTvK2cTHd3bLAsD2D7ZNK5kArn5tzmRDIDz6zu5utrW09242ucmmPZtttlkDYXzZiQtQ77rrrk1+u/15V6RNqexHYnMXeioqKiqajEZ+3BzAAWgAB1w9/ulxXUCssgR2gNlhy0HVsN8BuUe8VaNATz/A1baiANNWoIDUbl5AXKULcAGtcwC3bRHtTQ2Es5eudip3n/aDsLOeLRRt1OOxcmPbItLeug6g71y710kixrUlJf7sJgZsjWtnLklCf5KObRHxl0eYjQnEPdZqpmCWQI7sxmWfW1tA2mrVjmLkIv9CeLKqqKho5dPIYG0fYJuje6eZLVK9PdxWmYATgOUlAkDRTneqTnsiqypVoipSG5MDadsY2oPW3wDV3tWLFi1qez8DPL8BXgBnm0IJwuY8XlHkZQTZblMFq63X9RgfjxIHYLXNofHwLHFYtrDTmq0avdVc//o2I7BLm20cgSyebGvqU9UvsajI8aiNSlwlLRkAeeCvf4nI+fZMxoutL/GqWi+gLioqmiqNvGCqYgVCqlggBXxV1f63tOAdcUAyb8iwubjlC+8ltMXh2Wef3QASoKtWfVrPBbwq4WzQoroGqsBP5TuIVNOWJFTzwD3LJyFr4d5g4QW6KnQbrtv3GEkmqmazA8nGeMAULzYR9942cthH2NstgK723rEI5G1sLyFYJrEUg2fJR6IB1mQ0u9hkk03aMkhRUVHRdGhksAaA1m0tS7iolx3N/A3QVLLA2yblvgPAKmrAblkBKKs0reGqioEckFTx5n8EfC0vAENHSLLw9u3LLrusAac3RwBLFbdxu6QiVlHr13KFJRv9IkBKFp926TIDIAdeyKGt5RcJRT8qf8DvYiTSD2B3jkTg0zIHnlXdlkMkIvrQrqioqGg6NDJYAzOgCKAcwA6pUK1Dq6YBtXbWhtdee+3ewQcf3CprhyWMffbZp1WcABYg6kOVrNpNf/6XFIB3F4S90+3MM8/sHX/88b3TTz+9vZoJKFpz1tb5Dn250AjMvWhAxdvdVhG46tf/xsq4Pq1ZSwqWdZx/1llntSUPIAzIvbkib13RZ8YE5HSgb/9LMmYhkkJRUVHRdGhksE71rNLM2jBgVH16n6K1bN+7qAbwLAdYTwaoQNALMIHf0qVLGxgCNX1YNrHMANj05wKdqthYQD+kMj/ggAPakop3tZ100kkNMK1Lq2YlDX1YinCR0EVByymq5y4B6VTPANlyC9DGk1dCWa6xXu3Qr6US75sE+tbnjUFOn5KWcVX8EoS1b3ex6J+cLjySqaioqGiqNDJYq4at5VrjtSzgBZVui7vyyisb4AIlv1nDdvEN+KWNF156jxrwVn2GnGPtGcC6YwPoW2dWlbrI5wJgSFsVN/AHrkDXd/5On5ZFAKylGhcDgb0lmS6p/P1mecbdHgAbjw6JSFWs8taHJRr85Y3aAFki0gc+/O3WPRc6gbbZBGDHN7DXvz7xXVRUVDQVGvluEOu/1mCt2QKoiy66qAEwMPKduyrcWgewrQMDMm/7BYYA2Cvc3VGh+lQ1q6YdqmBgeNVVV7UKNbfTubgHsAGyu0Hcl+3Qn2ra2C5yWgN3dwqQtlTitjoX/LbeeusGtpYwjJM7NCyN+NSvROOCIaDWr4oY4AJza/IqfwlHO7f7Gd9aNv71jXcArm8zChdZrdNLJKrqXEh1Rwn9FRUVFU1Gs/JQDOCxbGB92tIGAmourgErAKbKBV7aOFDWiV3sA5SqXWALoIG4JQ7ArDIG/PrJ7X5AFdgDY0sXqaItQfhdxa8t4AT0DlWzCh9v1pPxYz3d0oiLnapg/al+yWRcJNE49Jn1a/IaSzUNhB1kyT3WKnvVuErc3R9+x4tK3O/GxI8lm6KioqLJaN69KUZ1rFoFhpYOPI1YVFRUtLrTyGvWRUVFRUUrn+ZdZW25wgVHSwguSDqKioqKVnead2BdVFRUVPTfVMsgRUVFRWNABdZFRUVFY0AF1kVFRUVjQAXWRUVFRWNABdZFRUVF8556vf8H7k8nSSGZ2QYAAAAASUVORK5CYII=;" vertex="1" parent="1">
          <mxGeometry x="650" y="70" width="162.75" height="70.39" as="geometry" />
        </mxCell>
        <mxCell id="yEgj6qXWK7Eluj3ogHR2-76" value="" style="shape=image;verticalLabelPosition=bottom;labelBackgroundColor=default;verticalAlign=top;aspect=fixed;imageAspect=0;image=data:image/png,iVBORw0KGgoAAAANSUhEUgAAAS0AAACdCAYAAADhXi4vAAAAAXNSR0IArs4c6QAAAARnQU1BAACxjwv8YQUAAAAJcEhZcwAADsMAAA7DAcdvqGQAAFNbSURBVHhe7d0FtGTFtQbgIkBwd3d3dw8anADBPcFdAwmuwUNwHUgGLu7u7u7u7q7v8VXY8076nb42d+7QM/WvdVbf212nateWv3bV6aoe4n9+RiooKChoEfzml9eCgoKClkAhrYKCgpZCIa2CgoKWQiGtgoKClkIhrYKCgpZCeXrYn6C+1157Lb311lvp/fffT9NMM02aaKKJ0nDDDZe++eab/N7TTz+d/x5xxBHTjDPOmEYbbbQ05JBDpk8++SS9+eab+X73jDfeeGnsscdO77zzTnrvvffSBx98kL799tv0008/paGGGiqNNNJIacwxx0wTTDBBrv83v/nPmKOed999N7f15Zdfpu+++y4NPfTQafjhh0+jjDJKLh9tNkLdyr/44ovplVde6Vf/hBNO+EuJ/5R56KGHsjz6MNVUU6Vxxhnnl097B1988UX68MMP00svvZSGGWaYNPnkk2cdfPTRR+mJJ57Ieht//PHzVdfP/gUdfP/99+n5559PL7/8cpZhkkkmSVNOOWW2wxBDDJF+/PHH9Oijj2Z70L3P6LOgZzHkPj/jl78LugGOetlll6XTTz89HXnkkWmsscZKk002WSYYxHPrrbem3XffPZ111lnpvvvuSzPNNFMuw9EF2znnnJP222+/9MMPP6RRRx01B+Ntt92WLrzwwnTKKaek8847L1100UXphhtuSM8++2wmpUknnTSNMMIImcjgqaeeSpdffnnq06dPOvvss1Pfvn3Tddddl4kGmQpoJKO84KpCuwL/tNNOS1wBiZIduQaU2WuvvdLxxx+fZSajgOxNvP766+n2229PBx98cO4XYqV7utpqq60yaSOxqaeeOhN2T4MOPv7443TyySdnXWh32GGHTXPNNVcmSXo1MB1wwAHZ1mwyxRRTZGIr6FmU6WF/grMihDHGGCN99dVXObjeeOONHFAIA9EYeZGNVyO1ABMEMizlOTtiEWz3339/uuKKK9K9996bs6R55503LbXUUplEZDpXX311JrLHH3883yc4ENqll16a/1du5ZVX7hdMPkN6t9xyS86oGiFTjCyCjDI7sjfC+/qnjbrPBzRCxq+//jrLQH9VueO9ATVxUK+LDj/77LNM7gahq666Kg9OAXoiYzM9FvQ/Cmn1J5CWqZ3L36Z2iIjDcmzTGWQkC/CeaZgyQVqIyIhtOmZKgeQeeeSRTHyyiYUWWiituOKKmbi0YZr03HPP5UARsOpAYC5tzD777Jm0ll122ZzVCWxlTP06E0TKk01wVi/vVyGAlSPnww8/nO64446cVcpABLMplODV5ttvv53uvPPO9OCDD+bp02OPPZbuueeefI+y5EOIQQzuI696ZVd33XVXeuaZZ3Kmo88dAYEZGLTlXjJpj25NMdWhT+ojkzL0p4zBwnTeANMMdEHeJ598MpPWq6++mmUu6B0U0upPICqE4zLlQ0iRacV6lUxMJuXzIC2Bg9wEjozKetbII4+cSQkZICB1zjzzzGnxxRdP66yzTlpvvfXSSiutlKabbro8lYzgMaqrWxvTTjttmn/++dNqq62W1l9//bTuuuumeeaZJ4077ri5THtAGORSp6CN69NPP81BXgUZyXrttdem/fffP22xxRZpo402SptttlnaY489cnann+5DWKZwe++9dzrssMPyNHrHHXdMW265Zdptt91y9hhETgZEfvHFF+ep1uabb5622267PFU2Nf38889/kaA5rO3dfffd6dBDD833kkl7psAGBHXIlmSppsTbbrttOvroo9Muu+yS5TnxxBMzwbUHumTbG2+8MZMwkizoHZQ1rf4E0jINQ1BGbEGHhBDFTTfdlLMFRGIh3JoSErDmZe3l/PPPzxmTNaKll146Z1IWeIPYBIJMzYguuxKM1ptkUO5BcoJHHcohEaO+4JYtkAk8HCBDrKVVgVyRlAwDuSAZmZFAvPnmm/tdPkeOFpYXXHDBTILakAnJqhCpPvmcrOqxaI+M/X/JJZfktTNkPMccc+QFc/pAInQoy7QGZEpNDqRHV4hbf5WlF5+rk37pGfEjTmts+un1+uuvT1deeWVuz/1kYyN6euGFF9LEE0+cs1+fK0d39BCDhPLqMuUP+Fw2RTYZnDJkRn4+01dtq4/+2NvgwdYFPYuSafUABEAsopuamNoYhZEGRxcAs8wyS3ZggeIzwYeYBCNC4fSC0JoUZ/eejABZWJS3jmX64h4ZlkD/7W9/mwN97rnnTgsssECuS/Yg4Nva2vJ6FlnI0JknaoJPlqMOhBsX0kKgCDkgKyIfEkRA1t7IQH7tIQfEF5mRe/1tKmzKu8oqq+RX+kJ+pmdIEQHKkpC9hw2muaa7MdWtytAIWaLMlZ7IjcRlucgUiciA44GGcgF16jsiXH755XM/2ns6amBhU33Vd7IiMwRapokDHiXT6iEIAk6LkEynEJD1EhnHqquu2u9pl8wCgbg4utF8iSWWSNNPP32/bAz5yUYQnadPsqsgAk/OBLmyAlk9sh7EpXw8ZheISNOakUxHNqUMokN4ATJFpvXAAw/kADcdXXPNNXNG5Zpvvvly3/QrMq0ZZpght+vynoyDfLI8rzG9nXPOOTNBI4vRRx8917X22mvnqaxMyjoY0qefhRdeOJOXNSjtyT433XTTfpkRopQVGSDqMi3t0Z8646sHytO5NTGZFn0ZENThb+RGH4suumhaZpll0qyzzprlJH81K6UnNmAzMtI1myEv9qAbZRAYIi6Z1oBDybR6CKZqnBjByEoEqWAVHBw3HDymf4LFojDnFkTuM/0z3fKkD/kJDAvwa6yxRtpwww1zwAsmAagO7SAaQYp0EIHgs55l/UuWYiolO5M9aU820wwCHoma+iyyyCL9LmSi7irZyWIQFFm1b0pENlNcr8pWMyP/y7JklDIoUyv/I1EQ8CBbChmVI4976JeukFczILX4npp7PUG1Bkh31rWsXbnoUX8C5JVZsZX7yIXQ2oPPffVkscUWy7bVrkV5dtN+wYBDIa0eAtIR7ALLCG+KYvS1jmQKgbhM5WQHAhzJcHRB6cuaggVpGcnPPffcvDgtA3KvDAkByb7UhzDUbappZPc9Md8Nsp6lftmC7E1GJFNDHDJB0zOk0AyIhRwCWOYSF7kRRxUIEPFecMEF6ZprrslEg7AEsDqqBBdAio1koJwryA2JBenJbOhS5uJv/Q5yq4PMyP3aQXL0gMAt+Hsgsfrqq+fpnyesMsQAmZBoR0TVCBmmgUVGhfB8XcVAgrSiPwU9j0JaPQSkJZPivBxWkBnNEZLsyuiN0AQ2AkBIXpEQ5xdssgikw/ERwhFHHJEJDCnEd61MvZTVjvq8qgt5eTrmshDte1umTdXpimkPOXoCCNADAqSC5GSEpoz6gFjiSWBXITOkMwRi2qUP1qCsj5k2IupmQJbupVM6ia9fmFL7Eq+nlzvttFN+L9baIIjT1VUgu+WWWy5npMgWZJgFAw6FtHoIiAQpIKogLgEoU/GZLICD+19QgXUcI3587n5ZQGRUSME32xGWb7zHd7dkC7PNNlsmOJmNe7zG9FL2g7QEujZlXNapZB9dzSaaAUFY/yI/UrRYj2hNGWU6EN+J6gpMuSzqWwuTicoiPVSwRoX8q+tMjQgbyHyQCPK0qO8hBr0gWPIaYNqbZnYF+iqbJa+pogGoZFkDFoW0egjIQBYT61fIRVC7BBsYiWUj1rDiUX51mweHt96ywgor5AAQXBaaLehbx0IU1pc23njjHNj+V4cFa4v9sjiBKZNAeLI9hGZNTJ0IrDHoZRdk15aAlpHVZWOIWEZlOqs/ZF1yySVz/e73vSqP+2WCprTKIg0BHGtG7qlOM9UTmSYCJptFdyRrOqwti94yR4vovo5AX5ExIh59Irf31E0npsa+1ybrQvQI1fTY07611lor20R/ta8N7buvPUKnJ/KRU1+8ut/7ZFA3PXs1cJEn7F7QsygbpnsY1pVM72J6GA4uIGQdsiGXp22IIMpUIUMRZC7rI/EVB4Eq2NwjyGQWYK3HPQjLtEg7ykdQR/YXQVYF82vDk0ZXnUzKmKqpX33IUdYmE9JXUzbTQfK4gqz87Umocp7iBUnIpkD/kByZ1IfwyWx9TL0+1ze60y7y00+vBgX10aOHEsgWAbr03/seQNAH2WRE+hYEST6f+YoF/eovotFOHZRXr0FEvUG27oFYf/PwhT4RKD1ps6BnUUiroKCgpVCmhwUFBS2FQloFBQUthUJaBQUFLYVCWgUFBS2FQloFBQUthUJaBQUFLYVCWgUFBS2FQloFBQUthUJaBQUFLYVCWgUFBS2FQloFBQUthUJaBQUFLYVCWgUFBS2FQloFBQUthUJaBQUFLYVCWgUFBS2FQloFBQUthUJaBQUFLYVCWgUFBS2FQloFBQUthUJaBQUFLYVCWgUFBS2FQloFBQUthUJaBQUFLYVCWgUFBS2FQloFBQUthUJaBQUFLYUh/udn/PL3AMcXX3yRnnrqqXThhRemb7/9Nv3mN//HmUMNNVQaddRR04wzzphmnXXWNPbYY6dhhx32l08LCgoK/oNeJa0PPvggXXXVVWm77bZLY4wxRppgggl++eTnlO9nAht66KHTDDPMkBZYYIG08MILZ+IqKCgoqGKgTQ/XWWeddPrpp6ezzjornXnmmenwww9Pyy23XPrwww/TOeeck95+++1fShYUFBT8HwZaprXPPvukrbfeut8U8f33309XXnlluu2229J7772XDjzwwDTSSCOlRx55JP3www9pkkkmSfPOO2/69NNP03PPPZduueWW/P9MM82URhxxxPTss8/m65133snlTTdlc9NMM02abrrpchb3/fffp48//jhdd9116c0330wjjDBCbvu7777LU1cZnqnp6KOPnl577bVc34svvpg/JydV+XvIIYdMq6yySpbvhRdeyHW6Z6655sqfuccUeJ555snvmea+/PLL+SLbZJNNliaccMJ0xx13pB9//DH3beKJJ87lvvrqq3TNNdekTz75JM0888xpiimmyNNmbTz55JO5bv0gy3DDDZf7pr5xxx0396UOF198cdbb8ssvn9vT9/vvvz9NNNFEWT+jjTZalk399EBG/SDXVFNNlcvAM888ky666KK06KKLpllmmSUNP/zwaYghhsj16e/000+fdTjMMMPkwefVV1/NOtQ2edlAm7PNNlsaZZRRcplbb701jTfeePn9ccYZJ9v7+eefT+OPP36W9fPPP8+68PrNN9/kutXz29/+Ns0555z5b21EHZNOOmm2fRUfffRRuvHGG7O96Es7dUsPX3/9dXr99dfTQw89lGW2hAFkmXzyydPUU0+dHn/88aw7YCvXyCOP3E+mJZdcMpetLn2APqn7yy+/TNNOO20aa6yx0t133511wI5mFuS877778isbqBP4nP7TOxmAnry37LLLZl2ym/f4h79XXHHF7GN8hV1feumlfokAHZKZDfkOufVZGX7I7uFPlnMefvjh3Cef0TNf4ffiEOhbnWKRv9CzvrKL+/VFG2ThM2ZQ8803X66rUU+dwX9b9xdQEuUyHEcBnXRptDsNNeLdd99NTz/9dD8yYKi33norGyoCGJEx4htvvJEDWPBQ1u23357OO++8LI+ynO3BBx/MhMcJfvrpp6xIZCbYKZGCKE27l156aQ5ACgb3PPHEE/k+hkZmnPPaa6/N5CV41Ef5ZOQsAk+dDzzwQDY2chFE8Morr6Rjjz02bbXVVnmNjkEFMPnok4Mi1JtuuinLJNARB71zOn1Dvn/84x+zQyIGDnnPPfdkuclDVs6uP+5DmmSss80VV1yRdYjkDRzqEsQIlY68JxCRKHnUr0264AOCnN0F3lFHHZX/pjvtKycYTjrppEzks88+e5aNY7MTG6tDOZcgoUflguwEj//Z8c4778w6JRu/4APqpxc6pHO601+XMohUHQIBcTWSFtJjc+Sjv3TaSFrqYVvBa/AkCzn1RQAjZPfqD7sBX3TNMcccacwxx8z6MOjpYyPo46677sq6VueUU06ZB09+T2b9p9/zzz8/v2fQ4BNAB/xRv/gyuJeP8B32UOb666/PPqa/IRPfvvfee9Njjz2WkwEQY2TVZ3pg50cffTTdfPPNaf7558+fBWkhngsuuCAttthi2bfoQKyJS6RFThfbsrO+iVVxI7EQQ9pTH50qx25I22AciUNXUEtaOkewq6++OgcJLLHEEllwgVk3SnUV5557bh5lgXMI5sh2Vl111eyYOipwjznmmMzYDHLDDTekzz77LK2++ur9HNt7lM5466+/flYIw3E+8lPmGmuskZVEqYyEZDbeeONsCAF7yCGH5H7F6M55jVDbbLNNdjCKV4+sRaANCAhMU2UG1xegGw5/yimn5IDYfPPNc//IaTQ7++yz899GQu83sw096TsHFnhrrrlmHhkFQp8+fXKf1b/gggvmYEH2pukCTZALqs4A6UXGgIDWXnvtnFnQH+JESEcccUTaa6+9+gUgCGYDh7787ne/S4svvnj+XH0uthTQMhkBKePg/IJZIPQv6AcRqM9AKHjpVLaF8AwY9KIvfJQu2eqMM85Im2yySR4Q9LEz2QM98HdZGqL9/e9/n7MP/iYjkVGxjYERDCaHHnpoJpM6sBXCE7N8x2AO2mE//sOHt9122ywbcvY+fYslMdYZ8H/xJN7Us9tuu+W2+A5SFDMGFvqjT/LqhzhlN7ZFrAYZ9eizzLerqCUtnVUxxxMYwEgY1UJ5T5CWrGnuuefODqczDGjkAIHFYRCLV4EkRe3bt28mNgZAoNJYI4zPgAI4lRGGghnHaK++pZZaKhMBBRstECIZtK9dfdK/gHaUFRimHEYEwYhMexp0S+cyNjILVn3gGPphEEE0QE4k4h7vy+qQsazFfc1sI1thU5mZuo2GRnj3IXx9FKgyQ/Vol+45oWCoZg9Inmx0Qn9kMEiQSZAjX6OwLIQjR+Zg1Df4+JzdvMe5/U8+AUQGpMDxq0GKDLTH0cka0yRZLGjP/QJU4LO1Bz360BHIwAdlFXRqyiVzk5khTMFNTz4nl7b1lR71QTsyT6TVHhAVUqEPdYslBMwOAfUhR+9FH+lXP+vIkOzIzgBBDjrgt8DWbCWG6TuydnZAcmxsUHQBn1deWYMLsB/bsCu5+ae+a4uv0LMMSkyJQzZ3v77qi/f1VV+0o37y+ZzOu4PaIYFgsiwOYJroIpDg11hPYJlllkl/+9vf0t57753222+//Pef/vSnbBzpKAdBZBzVdIrTGvEoFlkJOgSijGAXaJSoPONSJsczEjCQcmRnMG1QZh0YlfO5T10IjaPRCSfQfk+C05necTzOqU8cVn/JggwEEkPHKCfTk/EhZH2NLDCcrw7qsFbGqTmcgKMHDsep6UsA0SNn8z9SR9psEYEASI4tZD5tbW1ZJu1HX/SD3uhKloAslTWtQoLahvAl78lw3EPvBqsgo86CD8jc+Q6Z6Mj6KdkFHNmawWd0p33yG0xNiemWHPwNaSMuGWF3QQ5+pK/kMsCquw5s3xHIzJ7qM+VnPzEQ4Dt8BukYLKr2YnMxoe+hG3HOtqZ0yrlkZHyH7NoywPAJ+uArESviESmyuRhTN3JjY5kgGbRJf3RscO1u8lObafU2GAhB6LgsSiqOrXVeFoHhKQPRMATyMAIaUSmccuqcMj7D6P5Wh4xGWxE4jRCwRnhE6R7BKcMLcojMs6cQjmdAINOGG26Y15v0GcigbX1feeWV02qrrZbfB/1CFnRkyst5moGTbbnlllm3BiAPCWQh6nc1Q1V/AU95ZSPaI5uAMOj4G5TVF1Mm03iZUYAz65tpA1uwvWmpAJAt0a9RXgA2G1jqYAqCBGIai8QEnXq9j5zbQ2f00MzPOgt+ZzZAJjZDsvpv6lRFZwgLxIJ1KP5jzQ3ZGwACZOXP7CC26BT0A3GIITYMPcvwELaysd5roJHAGMTU515oJqMy4S90bjCW/OgrUjQwAOLTXndQm2lxOGm6tE4Au6R30llEMSCgk1gZo+t0pNpY2jSVYax1GZkiyJEXtpY5RMZFUepSj1QVUclajJhIkBKNCIK8GRhaxuMSRAws8AR+T08P9UGQ6jOZOAyHDnAo8lp70gfGZgdOKhsw+hsJfd6eswsUozA70pkMiDOp05SL7o3K1RFShokU6bc6VeMX6rLm4pKRqVP75Iinc5yUL/lc1ut9JG20ZidlQZ/IZVrItgLRiNxe5tgIdjHgIUAysRXbG/z4UHt1kTtsTiYkjFj5kcAWaDIFQUaP3YW62RJh0wf9m/ZHhhcBT572bAnk0jdPIMUK3bFjNUPlO2zHnuKWzbRrisu+bEvf2gVllEfyYVsDmz6THen63H38jq/QKzuzqbq0r49e6ZQM/IUP8Fuv6uD3Bq3uoJa0dMrCNaE14FpkkUXy4ijG7QlwWiNFXAJPmoskGIyDMwbDegpByRYSrW9RlOkRUhJMjEGBMgjK4KTqQwYU6nNKp2hpNIUiBlMeilaGYRGddsIQPhd8+r377rvnr2rIwBqhvPvU5SJLkHC04T31c07lYzTSX9M8pOghh5EvCBsECl3Qu7LWGDgrR7f4edppp+WRkA45cjPEVIdNOaUpAgL3HkciGyIzfaE/evQ52RuJtD2oL6Z37BPrdOSzNkRWTxpN2SNYALlZkAb6iKDoLPSdzcKedEwGgVNtpw78jc7ZQJB54ENuMiNPGaAMBhHGU7X+gXqQB5n5N71oR3+9R+aqD9SBbxmEyYb0Ld43Ztp0anCLKSm/0ScEc8kll6TLLrssZ97q6gy0oz46Zls2inUu9Xgf8fNXeqR/pGcpyAOtnXfeOfMK/2B//tUd1E4PMTaSkiISBAji6qlMy5RLtgSMFCMLxWywwQZ55KVc5MRRpP3I1LQE83tqRj7sb1FeHQLak0ZO6uK4kRHI1gSl9RZPLjlm9IXSsX48zfR9JqM9+XzfxSjGIarrOgFkx8GtBZAXOajLaBTfB9OOV+0gKyORgYCzkB/xIiwO0QjOK4Pw1JCRrQ9Zm1KPtqXziJyOOElH4ETaRR50wYH0kVMj/XAkukP0ppH068lkZ6Cv1uQEkQBEQKFrZMK+O+20U+6roAvop88QKsJkKzY1tekMLPCygX7FAES37I+UrdO0B/5nmmaQkL344jNb6gM9sI8+IZz+hba0s/TSS2d99+nTJ8cWH9H3CPz2YPDTP0sG/JuMEUMB8YIwlEUyf/3rX7NO+Q6C1B9PLzubiBi4+KJvEpD7sMMOy/WFvk19yaJvfCumhwZbOhWTSE5s6LsY7w6G3Me3PBvAgQSpwOLkLkRGSbFu0R1QFgXqZLAxhakXEXlPeh9Pjzi5Ech7Lu/FVAmZcnDTRSMk5bkoJuQXkObxlGOdiEPoi3sESEx9lfUeUhLQAtWrLIvR1UNGdTOE92VcjKgvnIVcLvV55dzkinbic3KbrvpcP0wJGXuhhRbK+gZlyOR+febESEM7dKh9emMT03jTDX83s40RVpsIjjz0ox9kUL/+IRVE5TN/s4cMy2BBviAdzokk3es9MnmP7qIsu0afycsu5NUPUwQkyNZ0xx/YR1/j4YO2XXQTmY229U9fq+t32kYs2vKe+5C3tmIdB4nqL9sLOkGln1VEu+Qmk74p43/yIS1ta0NZYCflBH97+gckoazsR336xaf4AB2pVx/4If8ns/JxL5n0hb3oUr/5i0Gc/bwX5KEf6tCGOsmlL/QUdqAHhCWG6Iv9oq/qdR/QO/uxa9iIXC5yuYfs2jLA8AH/R5xrV3uhW/6nj9omAx10Fb36jfiBBSP6AQcckA3hu1kch/Ea4btD0m3ZGuP0NGRaJ554YpYD2cg2wjkKCgo6h+6nTS0EbG+UiNGr2YhoFDPSNI7CPQVta8PCpJHHCFZQUNA1DBakhSwsfEpxZVhS8jrIfEwNTb8GBNRLBmtxMU0rKCjoGgaL6SFYNwBZVqxJNEIZ8/C6Rc2eAFWrH9qTo6CgoDkGG9IqKCgYNDBYTA8LCgoGHRTSKigoaCkU0iooKGgp9Oqali93+kasL/ppNq5YkI5XT9V8Ac2XFMvXAgY/eCDCR3xz2uWLit7jK/zBl0N9bcQDk/a+0PlrRnwR1Jc6XfrG7z1h9qXlzuxuGFzRq6Tl0DTbLBzL4dvXDMcZkRXnCwf0bWlf9PQN7u58Y7agteFb2HzEtirbgOyzFNi+0e3b1raAbLHFFpm8fMu6FWHHhQ3ptorZgiQMfXPct/btdW1vQ//gjl4lLZsq7aCXcSEse60cBexLn7Zc2ArhO1W+eGn7jGyrjDiDF2Qf9q05Fyu2lhjUuKlX//uum21PvnPXqt91Q8A2puurzdj6Z2YR23w6u0F9cMRA/cqDEzH9uIV9SGuttVa/fWsIzbEipgiM24hIoU0VlFXO6Gz00h3vcXBZWuyDU48gsF9MJhfbeEw97KGy+z32SKlDfcoLIvXJAhGq+pRRv7oQcHznKoLLJYNEwrbpyCqVjWmAC9SLlNXpIr8jUNxX/cY8+byvLpf71Ke8surwnqkUufVJH/WbHPrm/dBLyEcH2qGnumm4MtpWb2TG7nefe1z+p1vyVO1l6kYumZFX5chFDmVDD97Xd3Wxqy1XNr4fffTReW+avXX6qIx62F37bKEt9VlysDdTXwAZ0I3+uxCbtvmU95UNnbGJPrIzsCXZya0d/9u7qUzoOmYE2tE2XXufjrznfmVBvaEbOvY+uf2vfNgAlHO/cvpbiKsev0rS4oimBY7skEJz7LjArn2H4QlgZZVzwqId5RyRg3FU3243Itt5LqtzxI3p6Y477pinnmAHuvTcaRLrrbdev7OstW96Yi8iRxdQNgk7/cIud47r5ICDDz44O104s/bDUR3HsdJKK2XHVtambbKFypXx7XgbiG1wlYXaI+kIHlME/dNnQeyEV6cxrLDCCvk+Z20rv8MOO+TgpgcnddpN79iPPfbYI/db27IWfdQ2GfVPHTbg2uyrbW1VQUZkxUaOMEEmAo08dGdzLP3SM0KlVydF0LM2ZAw28jpuht6Uk1GQg5xIhK4EqM3nfIBdyR4ncpDX5xHwpoNILE78MGA4ZrhPnz5ZZ+wCTuh0bI9ydkLYRxoH0TkzzA+O0Du7OqLHEUbsDMgTqTno0P1I5bjjjstltt9++5wFKQP//ve/8zn6ji1iA8chadvgpyw9aFd/2ZCO2YXPOVGDbRxeyAZ04VQQp5/YLWFvqgMUC/4/alcxOSsi4OzHH398vgQJA8RIOiAhqIw4jnpx3AhjOx3ALnvkEMfICBCnQPhb0NqxztEEq13niMz5WTGycXKBbnQNIBgBaQ1Fmz7j8JyKc3FujmWLj7Y4PbkEFKejJ6QlOASxtgWsckZo9XF494B+CHjl9YWu1UsO7euv/+kgIEPQDnIQ7Nq2+dpxI/rlf7qwPiKIlY16/Y/4ka6TCsiIHASJDEwfjPiN0A7yILv2EQ89OG2DHKb69EYGRISwZD/KuNiMv8Rgog7H/SBBmQk90JVgRxjx6zJk9hoHxCE+9bG9YNYfA4o+67vy6teXAL2bdpEPMekr/yB32M59fIM/6CvdaEc/3cMHyMoudM0/1FG1i3boWtvK+VyfQ3Y2oB+DJV1qmy/ShT7yL2Xcq37tueiDfAX1qCUtCnXMqhHGMbouI0oYsbfAwBxKduOMrY022iiPyLKAyy+/PDsIUnD6o4VL2ZpTHBxZ7BddOAKHjlHdfZyOk3E4l6DlbD4HnwkK9xpR/bqPw8s23XTTvPamPe1yfJAB+NEMo7dzomRXsiEkATIaDss5BZ5z8HfZZZecYVaPo+kfROAKEIEa0D9nWekzsjL6a1tfZEvtnZFFZzJDQYnk/Liu/pEbeSAFukKyiCSyBlmscjJWmYb2ZX8IWVbjPifQOh9MXexKlzEokl9dSN8Uzc+S0amFd1mWfqpTOTJ2F4gFmTgLzSCjf+uuu26W2//6zQ8QGCB2/aXr8B3k0x6Qkn6En9aBT6on1nvZKjLxgnrUkpY0XupL4YLOxTE5sdGttyCoZCTSbesE4OmK9xlYIPjf1MCr0V4qLkP0yrE5G/LjCBzQaHvqqafmNN3ll639PFUEgABCWLIn0yeBo22BihT93JL3G6dTzYDUTDHCOckTBNkTUJd+m9468A45BbRtuq1N/epKQLiHH7jH9NVaDD2oz8+CIRxTNDYQwDJcWZEyppAyFtNONkA0sj0k5qsKMmL6Reymbu5DFDIRpCBjU04W5jPrUvStTgOH+mUjzYigMyBzHHrIV/bcc8/0l7/8Ja+lITO+T5awlYHciav77rtvP98xcNJTo079T29mAMjPQX2mlXUwYMqSkZZ7PBltbzApaEJagiuOmxXwLlMraTIj9RZMn5BFrBeB7CemVQIRoRrJOLzAEESCNRbqw4G8qkNAmDp6MumS6VgrifUy/VOnNRiBpLzP/K+sICODugNxbx2UlWEJekGAXGStfjAD2VQzo65C1it4kQsbmcoi7wDdIVi6kOH861//yld87YQOm4G+BJRXBII49BMp+R9h0Q0buOgKESnjQm76bJCTOSEY7yNwBOReOlRvEBh52EoZg4VyXpVTXjnlyRS+2V0YwPiKAREZOrqIP8gqTd8ddOiJtnaB/fkN0gzfod8625PN9NIAqV9sYEpcB3aRieszGVz+LmiOWtIS3IghRk0Xo7nqjDSgwDmRSEztQEbEWcnm1Uj597//PS90IxvOYeojO2h8+qJPAsk0wNGzLtM6UwKfgf4FUQXZATk4OeLx2hgwzfRCBtNbZMKJjeQW1f0CtWmOgaA7IJfBRQYsa0CM2hBIAUFm5Ea0SMo0X6Zw8skn53Uo97UHOuYLYQPQLqIld2RvUC0D3mcr5UM3/lYm9Fr9P+oJUtN2fB5llaF3rzGI9Q/YXIYog/a9QP4g2zK99ctFHiIgSeBXprK77rprP9+hW4RatT056Ub25jNroQgOiTdCP5CbGYz1PdNrMvVE3wZl1GoH2zOkNN5I55LqWyfqzVHA0xhPXWR5sgoOITuRWQhSzuIzjmyB2FqJNS+jm6zLaBqO31nIjIy2CMH0QYbAuWQBfgxApuR9BKluwUqO9hzN5+5Xp3UsazTIwxoNh+4O6AOBWkwW4M61R8hVhFyRzSljfc7TLkTa3ums6uQHBirkqi19lX3RQfwSNpIU0NY7ZbvK0AsbmfIgbU+F1UWPpkKx7KAP7GctzquMxxSXTnxuTUgbyhkoPFn0nn4hA37ZXcgM42mldTm+Qj5rXeedd17Ohj0c6MpyiH4rT0YPIAwi4oYOG6GctVi2oUOx1hPrm4MDaiNN+m+U8bUCP5/uMi+XNkdG0hswUnNWWYFMytoTB+McvhLAuZEoo3M6QWMNAbGZ3gaRxFpSZyAQPEni1DIj6xJGzfj1GlMdzh0Lp6aWiC6ys0YIcjKrSwYhA0RWph+cui7w1Gv09QMWLk8FObmANx0UxHTjFSkghOqj+ICAMPXwKuvyGF92YN3LNKexfBUCjR484ECM8XURFz3TN2IzJTWAkEU/6coXhgWtjMOapHq0j2jYy0Me9lSXV3VZu3Kxqf4gL5kc4gg9+BoEfQvwmLKyBd0YSKIc/WmbL7jHIr+HAeTmTwiV7PyZDkzRyO2id09MDTLNbNoeguT0V39Mo6tLCQEDrUyX/U0f2cP0t6BjNP01Hlf157K6aryegIyJY1rw9P0X5CPQBT5ClXKb9hgxBQlS42gIhzMKEA4jY6sb7eogKPRbW0Z5T1D9TY5Y6BaofhVbcJBHezGNaIQMwkMNZOc+3yUSmP6vA0L2vSjBI7BA+4JNNsOxEQ+n1yc7B8jk70YbIW5TQfWYfiBLepHZdASDk7r1q0+fPpmkyUE+GbcnpjIjZCnTslCNGKyZyWy952sNZKU3tpQJ6xd9IDkDiYFFGZeFdzZT1nfmrPv5ug1ol71N7X2viR6sHSFvr9plf5AVGixkUUiRTyBGRMQf+IpBWZvuRaKme/SnXoTjcwNjM7vWgYz6JYMlP3uHDRuhLMKlI09ItdvMJwr+GwP1y6WMZFQT9AI51jJMDTig0VPQx1SGk3NcAWEUU9b0TfYR0w1OKeDiM+SrbsGhLov2RjaOCcrEFMU0RllBZ6SW2cSCr3plNe6zeCub85kAE5RkAmVlVQjG+8qbDgkuhMGRvfpfm2T2v8yBPmRVgoz8QUICzqisTY5uHU4WQr5og16M8ogWkVvXU4e/9R0ZRxDps7a9b6TXdmMGzS3IiPCRHzn1DdjCRbfqQGayFRldEBu90BdSZ1f6YyPkpqx+KKeP2lcfP1BOO3Srf+wQIDuipGtBTgemYjI88tMbBCEicvWRUXv64dKOLMvgJ+tif4MCuIfs/Es72lQ/ua1/0WMMgOzqkknqK3msUekTMvKe+9nPVNDn7EL/+uaSickc1Uk/9K3v7mWvgv+PgUpazRCkJZMxYm6yySbZCQZXCGI6sdZiiuO7UGX9o+tAHAZCg4MBKr5BX9BaKI8pWgBGbiMxojKF6s11xUEJMlrZU3zNpaA18avMtGQW0nYpu7+lz9VH+YMb4msBpkoyT1MuU5iCrsHU1boWnzKdNk0saD38KkmroKCgoBnK9LCgoKClUEiroKCgpVBIq6CgoKVQSKugoKClUEiroKCgpdCrTw815ZG9bRbtbWL2vSTfRfJYun82xRYUFAx66FXSsp3B/jTnqiMv2ysaQRzbMexps/fNRu2CgoKCQK9OD2VXsfHXnjCbeO3FsuE3Ljv8wREh9mEVFBQUVNGrmZYNo44O2WyzzfJZ5c4Jt/EVgQUcpeIoERt9Hd/iTHXwLebYCBtTS5marMy3w00pdSXK2ezrvXjfpZwpp2+Xy/rIow5lIFRBHrv7bXZVxue20bj87X7frobYqBvvq5cMAXVpV13qt1nW37aU6AdZXcqo32c2PqvD5yGT+pXRXrMMVZ9DPyE/yGp95j7vx8biRrgv5NcXcE/cRwafRTshGyijvWhTOZd7XKB++gidaYM+4mQHdajXffSujM+8r6x2XeoB9dIZ2cjiPvJHH5WlW5/Rd9SjTPRPXeohl7bU1wzKhr1CBnCPPnnlF+SAaCP8m274HznqEPKHDUMufaEf/6tT+8pG/aF7ZZTXX3tV1UEm/7v8ry6X991PR/wj6lFOO/6u6oM9fOZ/lzL+11/yalu97gs7eR+iH1Wf1AdlyKAe8Br1KOe+OrQEaVG2kxwcIWKXvmyNcpxu4IwmJ486SUD9zn5yhpLd9uHwlCc47Op3QoJTGPxoQZ8+ffJueuWAEinL6QWOJrHPz5E4PneagrYYzKkAjnzhOOqUMQoKJw6Q0UZvbWrb6QXks2OfQx522GG5Hj8PZTe//jqzy3Evjvd1fpVzpshvy4k+6T8Z1EMncRpGFep2QoRTLDiSY2hs92Hes88+O59UYL+d951K0AjltEd+p0k4LYLTaMtePW0LOPW4tMPZ3cd++u+IIDojr83JyrEvWZUjF304GE9WTY9OnXVem6NuQocycef8O4mBnpyq4UQEB0I6W82aKN0q7ywvhxuSRZvO8nIEjhMZnCCiPNs7KkY9snf+JZNnPzIJJn30c2825qu7EeyprJNiXXH6hwDjG9rzetppp2XbQazd2i6kTrqx+Z8c1TboRjn38QU+TmZ6dQqEuumHHm3lciijeHDyBLCR0y8ctePEDPceccQRWUYbw/kQ2b2vLmec0Rv56FocAH3qp3bE1h/+8IcsMz9oa2vLPhZxwK7q01++4hif+O0Em9LpnYz6Sb/qY6c4nUUfwo+0GZd6+IZyQZiNqKV8wsRZRM4+cjmDiKFV3JvQno5RBAUzLgW4GEWAWSdjTKSDkAQDQwlSPxKAvR0IhwhBJqMvghzTx1ErHBAhOuxPHYzk6BHHuDAwJxU8DsSjdATpfwEj2JxsSlbKtjFXkNOlshxROSRFDgRBbn+Tz2X0cYpDEDPZyYWwHOeiDxxBuUbQC5ndq4x2jbYIVDsCTVA0O7PJvZyIjh2DQ3465rDIgBPSA8cWhPrmKBqBox17QwWjjAMx2DvKJsrrg4FAOQ7uM7pwv8HDe2xHv+Tld35uTD8Em3LsjGzYTjvkYx/9RU70rz36VT+56F1fQi7vsZn3BE70UT3Igi20hUQaQXYxQEd06AGRPukfu9AP22tHf9XLlvpjYPR/HL3TCH1Xlmzqp3OyqV+f1K9u8vFNduQDIT959VnflfMZglcXv+VbdECOiBexw0fohM3ZI+JAzJHH/RHz/mePiAs6pDM6dj8bqos9HNwoLsQfGRGXesiNV+jY397j48rQp5j1vljnC81Qe0IZpyPQueeemwUHC+JGIpkFg/cWKAy5MIhANmIaqRnfwW+yqosuuigThVFEZ7G0v2UVgovCXVUgKIHml2X0Czg/x1RnI2I05ISyL4o3ugEZOdQJJ5yQf8LMSG/EZjiyy3Q4gxEEyKgvgtDI6OexZFgcTBD7nPx++YeciFNmFw5m9BMsHQGBcyB95xB1wRhASOTh/LI5/aBjejcSIz0jtOxY1qXOtp9HX44vSyGrwBDQLo7IaWXKHqpw9NNPPz07dR0MHgJHsCEsgcfP6IJzIwUy+DFb56uxq+OLBKHs0Pnq+udCMILXwYWyBX3hH06f5c824MuOHdGtfodMOgRQQPEdftFILoLU0UBIyTqsn4nTP6Ry4IEHZvmQgtNh2VJ/yMBPdtttt6aEBYiYrEEedMz+/O0f//hHboPcBroYlB2CGT8aTC/IQ//035HeIBviKw5NRG4GAGfc068yytIxucWAn5YDenWKqzb1ke9WQS5+Iv4MFu5HtPzXZTYle1af+9nUQI9w2ZXe3Ucmv6RFBjbWB7KJQQ/hYgbUiNpMy6gePyHGKV0UQykU3JuITItzSR0pkPEpSarKAY0AnEpZhmUMzN2T5ErZRjwjigBAWIJVW0iecxrRPEhwkdFI6ZeC/dwUsg8gslNOOSWnzeTn5P5WXkByKE7O0KZJTjJFlvpIDm22B5/TAyLiBIjRVKtZug36wO7kcdGdgIipIbuzQ0dtdxfad1KpYKcz/SevLATRsa3pM/sjbPpFVEjJb1Mim7C/jJfO+IsA0Rf+YkokmBz0KPiRFT9HegIasWuvEYIUmdCn6Q9SD//yimAQdhBLVxGZFn37jYMgOP1HJn5Qg07Ipw2Zr4HQj3DwrTPOOCOTHj0h7ABSQLCIg6yInj3pT2w3y7rJoy0DpqsKukDudEGnjokOf0euCNUg5T268T7i1A+/LYloxY6BXfxKENiK7SVKyEz77flZLWlRvADFmoLEpbIgj94E4aWynJkijB6MS2FSS85CTk5HNoEN3u8p0mIozoBsGFogxJne5GNgQc3JOLWRh4xGCoQh2GQeVUP4W5CpO97XRxmJNjiA0YwTCBjOo05lOoI6OTYnJqMgbXZWeUAb9CxgXKFj93MyjiQ7rPahp8B2RlpZHZ0hWHokr/6SS7t0SB56Jpv/yWbtTkAG9N99XkO/Lv5hAEZY/FkmrG52MOCA+xr7qA79ZxeZFtuHPfxPDvfLhNmvq9CmmNMnAxgdqNvF560Vsom6yS8TRDz8m47EgTJB6gFl+B/Z1EVv9ORVX8S1vvFdg2Kcxy9r1Bekww4BZckgczJ4y1bjxGGyB/GLPe/RjffFAxuxlb+1qx98m4+yh//JBR35eC1p/doQjkcBjfBZOBrH4oj+ZqzGUaK74OyI0fSJwv1SkfoD4WB1UJ5ROGUEgwzB6IkITW8ELMchu4Vko6h1HX1jaAvnriC+qKcZBKGs2Oht2sah6aJOfwF1aq+uTHzWkTN1F7IsIzeSlh3INqrT32b61U+BQr/VQcOygAcbzqO3PhIjN1L0021GdVklIpCJuGQgst1mCL276uD9OsLrDOg8+ljVv7piMHHxJQSlf34t3PcdXaanft0pfmUpUCcvO7pCn3zbYGSJxf1+rUnmZrmDLaokSN/IxTQOqVmqkUUFqnaq9oNe2EcMITs+f+KJJ+bpNvvxa9mqjD5mL+2hNtKMytJo0wQjm0t6aorTnmEHBIwkRhtBZ7pEWeEcsgmpqsA2OlG+EYTzUkRPkZbpp+mxtFeWZaSLUYFxjCxS8CBNozgZGcmo9c9//jMvfgbc6x7TQDL27ds3Exf5BRlnsQ7hMqUx4hmR1NeRQWORk4PTgdGQvB3B1JSe6ZTDRhaIEOjdqMkv6kitf0FHHNkTW9lCNSOkH3J5Lx6QCACymSpZe7nwwgsz4UHYw3TRFeuzgp7vmC0YAKyZICv9Zjc2QxB1+tW2DEV9Bhq2FLwRxPRN757UiZWugj/wYaALPsx/1I94LRF4X8aElGX8+ksHZIt1ViRAJwG247fqozPZO7JGFAYyfiFbk/1Yo9tnn33ymqF1L0/6Yi05oE1PthEZ3SF9fhHgt/RpsAx9kpHODcJ+ek5/+Bc98U0ErC6yiLPOZPO1pCVFXXHFFfOiokpdHMoCeKTRvQVKtaiNgbG01NQ82OVvGYyR2YhhXs9QypneUror1ho4rhGd0boCijTttBBtHk4HEViCJNYKfKYcR4kFfYurkQkEjEbusTDPWMoyrAAQpOEI5EVm+iNYyB0B2wwchXMiLIMOuZotaFbB5ghZ+i8I9IH8nBaRISyEEiNpT4Jt9Il/ISgIchTQpiAyWzonC9lCx/6nE0EekKXpN3KiM6SFVIAu+JR7qtMT7et73fSOLMjCwM0+SCvs628DlSDUnsGrq+BPfFwWpS5+HX30cAjR6B/SlNnwBQTuoU3owT2x5hnwv/fFgHIyJJ/TDZIks74FKSMhpIN89INdtBXgn3zR13cQDl1GHACfYz/16gf9aJeOxAEbIGL3hB3USf9IzgCjPTJGYlKH2kUfyvMzWoIqnIGxXBrqTXBaTCxYBLBFVp3nZBQsrZQVetLZ1tbWT9EMBeGM2J+BpMGCrytgUORirYXBqgQEZDTKehJiemeRnd60hwzWWGON/B2WakAgJlmUoEE0FkbVbcQjI0Mb1dSjfg4lAPU9bFIH/WVs0wQ27CzJCAb9RJQcTNvq4oAIQ33sMCDsr9+mzMhJe1Xou2Cge+slpr0Wz+mWvO7zs2I+k40E2Mv3luhX4Bh4BSqdqMPir/v1Rz9lHl6bjfR8zVSbXiwTWLwXXPRrsBIrMmMx0lWYveifgObj+seH9REJkNkCtv/jKwP82zTXezJxhCaxMFDxJ+AvyiM17xnY6YSc+mNwq04PlQP94p/KqS9AThdyRrLarkKGS+8SHjrff//9cxn3WAe0EM/GYlQigXQNivxZH6x7abtKXHX+1qtfLmUUKaYnWpiasRm52nmjH9YVPNJQyuFMWDgMxkG9p6NGBYThy3RSUL8h571wHt2T/stkGAc8cTJySuuNnpQF2sD6LoGEvE3XKJniEQ+jMLTpDDmMSLEwq5wU1zSEfPqlHYZHOuQQMORjePeQSxucTl1GIemzqaCAJT/DCWbtGqHIIeCq8BndGpWNcvrF4dXhf3qlO8Epa2qEdpAx+fU/gjemJPqAPNQHHIs99Iks9KUsYiaHKQkdsJ/pBweUwblPH8jmb8FPHwiFHeiEnLIC7/sio8xJWf1Qt9GZbrWHULXByeldhi0jRsLe890nwSkbJ4O+qcdn+kLfiMdFTj5Hjkayd697kCCb0RV/Vo6cglGfyEVvLlMh5ayv8Z+qnzeCrshmJhDTOeURAf+yNOF/Pkbv7Ekn3lO3cnSlDz7zNQ/EY+2U7OonE72wP99GZDInxKEe+gxZ2EF/tK1OPhoPufhurHXRN3mVMUCrg77VSw5QFx8S7/yYHpEWHwft6YPYogN/I0x+0mgH6FXSGpBAWlLhgw46KDtQFQKaM0i1ZREM2tVsq6CgVYCU+bg4kO0glOraU6uj5xcoBhKwvGwgRosqjCJYW6Ygo6k+mSooKGgtDDKZlimVKY0MCkFVIf00v/e5S9pr9CkoGBTB162tmpJZDzOQVxfMWx2DDGkVFBQMHhhkpocFBQWDBwppFRQUtBQKaRUUFLQUCmkVFBS0FAbKQrwmfZfEl0i9xrd1PeHwVC++muDLlr6YVlBQUBDoddLyLWLfiLUfzEZc2xF809Y3gBFU7HGzncU3fH1z1/esCgoKCqDXScs2DGf22EJjG4y9Y7YE2Aoi27INJb5zZQOt/Uq+Z9Lbex4LCgp+nehV0pJN2ed01FFH5WmgjMqB/fY32ZNkH5t9VU5rsBnUHjCbVBGaPW32liE2e6nA3jH3mU6aWiJBU05fJo09cjI7XdSGb83bKBobQ+2hsr1Bnfa72bSsHXv7Yre+Nu2lkg3K+LTjy6v2goVcSFY97rN/UXmX/XgyR/2yEdZ7ZNceGcnuc/vBmmWTyiJwe97suZOl6o8vDspCbdUgj/pifx7i9z/Yu2Vfnz167rEfLE6OgBgM6AlCT/aB0RM96pcsWD/sM7OHUHn6U2fdFF4Z+jQoKWMJwL5G/WRX9dtfamM4kMNn+kZ2/ZRp2+VAXn2jO7pSn7/tK2Q3g1octeKLlQZGdgs/YRv94if2q8ZpBcqRz/ugDffxQfsZ6dWeO7Koi3/RR+y60A9+QKf2zLn0QV+U8xmZ3G/DPv3RmfbDR+ian4C27WvkU/SrLv5qUCe//8UQX3SvvtMXn7TLw5KK9uzdG5TRlLQ4jo/iYwoTAF67C0a1S94Rsdttt10+Q5qSG7Moge9XaxjHt9cFNyeLc5EYFTggJ3YCAcfk3HbvM7jPgBP7385zU07Z20YbbZT7cuSRR2Zy4qz2JDqPW5uHH354PoFB3216tasf2bqHI3MiZ58jA7I60Ew/3EdGG7fd51eHtGuTq6N9nQyJhIJ8EI4N3vaJRdA2gmyyUgcDIi79Zxv9tgnYWeEcX72OaSGrs5X8Dxwa8TtgDQnYWe/b0s42AroFMoFjcZ2l5PQMevK5X8wxyCBPejrmmGOyXvXXZnV9b4SBSTkX4mG/U089Ncsje7Zh3qZzPuA9A4BXfWNfm2l33HHHtM022+Qzy/WNzvyaDTIQvHvvvXfeT4p0ttxyy1wnHTlfy4Zr9bChzcT65Pwy5IYYnGrgnCpy8h/l7E9lN6d0ONedXp0dTxbt6QM9IBK20g9+YJnDxm8HAegD0qA39icToj/zzDOzH9AZAuMLbEUufUKK7ncmVrSnDTa24Zrv8hHEZjBxP9KmL75v8PN7B9pz9MygjNo5l5Ejzi0yaoNjSYxKnJSSugP1Mggnd+oBYmHkRhi5jT4MZzT0M1LO+3a+F2fkdIzlrG7ZGicyqgsq/7sc9QFGSutmQWKNENz6KNC9RoZlFDOaCRj177nnnjmwvCdjsLsdgYSDGEXdY9O2gHYKJAdCmPTIATkesuF89OCYHYFC18i5TkZnEnFOTolwnSjAwbXP+WWl+kun+qBeJ6sKOG1ycv0SVNoG/XASggyKTcGxLnTlszroH0IQVIKXHHUkWwUiYCe2cVgfIpTB0EvoGRzIx74CHdHQL4JrBtkkstJ/ukZa9EyXCEdW4sdCEIz3DSz0aNDRrr50BGWR41577dVPJuRtWwxyYEP1y8oQCF2Ej/ADpxjwU22xLZCFjyJrfv3nP/8524CezCzo1UkIBkzZpHb5O5IKsjTw80kDAcITi/zQ+wYjg49BqiPbtDJqv/IQwWo0amtry5cAozyjXXfBwaTYUlmXNLtOuYhMEEqxGcQ0iMObSgo2abksBzEZJREpZ0R2HFhZ5wa5pOOmRpHSN4KjcDyjIHACMsm4BAWiFaBRn+DSLtLluBwO8ZmWcl6kgciMjkjCqBvZmVE+jvvggHSBVFwctBHq5uBIz2iNrLRJL6ZbyAh5IRPyKss+zl6SWdEXOUwbyBDQR31q1BMZ6wYkcgiyOj21BwFLJpki+RAW3bFHdQqDHJyKG/Ii0qq8AXLQEzKQldCHLApCHzJdNgV+RF/sg3RcgpuOEIgAR9TqiodCbI5o9Y2NyUU/5CYT3wvdsqHy7IdUlPM+/cvq6FP7oD2+pB0zAj4dvuszgw/fkRzwMXVph50QXZzuatod02J1u8gqtmTBbERH+jCoopa0GN9BZDIAhnUJHGdBCbT+AQVzJiNZM3BOhuSUAxrWVAS+LAYRCkaycUTO5T2XkY+D+NsUymjrHhAwRn5H1XJsDmfEVQ/nlCkKRH0y4puWyFjomT7rnIwOXMjQ1BQhOrbZ1NqIbhCRcQhQ9SinPCdHDrI2MshYTT9N9bq71qFe9rd2J9BCTx2RFr/xM1N041RU5Bkk0x3QEdJEPqa5BgBkS88Cnj6Qu2mXqb8syRTypJNOyvY0ACqDtOjc4OwzWbHL1M3yRUytO4I2ZXfIiZ4Rl4HToCWrlvEgMO+xs9NGHaGkbT/JhxTp0IzCwEOnCCsGRAO7rEt9iB9ZsQHCkpk5Hpk/yAD5lIySL+pnZ/vQiqhlDk6q05wkggeBuPzdXciCOC2lM7j1mroRQdsCkTGNbAPiKBkjk1GSs+iXYIzFzkCVYON9/Uc+ZFcHIANEYW3C+0Z7n6mXIxkArLMYCd0v6I3cXpFL6LgR3qMfevMjAjvssEN2Upcg22mnnfJUkGOTL66QN/7myII97AnxeUdAPKEnEFSdXTNhN1MY2YSAkyHJGroLZIOQkI2g5xuRGeqb/hg0nOAZP6/l8rfLCbfW9ZC5++jVulTo0/pUV3/XU5t1PsL2fID+/M9HkLZTVpU1CIkDvhR2BnVVoSyICZcZg6khQmzsn8HMEgqf6kofWg21pGVtwdTGlMtUxGUE56z9owwjiDrUL4sx72c40wiGY0D/G72MpmCEbrYe1T8wXYnprvWfxgVlAce5OR3n4zBkREoCWKouy+GoAsCoLwMzqhoNpelGPO1Ya5DNKWtqZJro0i9Oqd46RBCahnB4Uw5tWNw3jUCy9CmbI6/yRvEYaV3kpWekEXp2RYB1BKRLT+qiJ0FfXY9qDwLMMcQIXRBb26KXQFWWCM5m0C/TK3rkJ9bBwh/dzwZ05ZWurD3JdhCYv60J0hMfDJ+WGdEpAnSZjpG1kTiaARHJwGVR9Ey/yIe/GHRj3VHftUdecms3dCEz1J6YUA4h80l60U+fG3T4ivu86iM51cUfYkrNB/kwuTrbh1ZErad4qmX6g9EpyWUqRDkco7tg4HAopHTWWWflKWhkATIrawxSXe9rN9LlnoY1GlMXfTWda1zzQhQIhvO5InNCVL5n5umbaVsAaagL2XOq+Akv93FQ9XnS5xhZGYIgFYRIOkbZKiKQOTo9WAtRn7KCw/9HH310flIpayWr8v6m2yBbA4BMr62tLQe+PqgjsoOOgKBNZU1/BLXg6yz0IR6q0LEgloUGBCZ5gCztESnyDMLSVw8f+FOAjyAlfdNn0yn9pQPTskMPPTT7lUGE/noCZg1saepJT3ROPv/LpEzhTWOjPX5hoOEjyMVgwFZiStaNrKyvsSG9iAeym9IiKRm1Nr2H8JTTnqUB/mbqqd0YDAZV1KZN0mZkwTkYGSga4XDC7oJjGq2d0W5h0XTB3NyTJZ9xOIbzapQ0esTI2NNABLIri8CIoTGAOYfPjcSmNL4OwemMqDIZT3k4YEDAGfU9GRMonMjIh/g9tvYe8lAvh1IH4kCWiEu/62AaqW6ZnYcjFmw5tCC2lsKZkaWs0NQAsZmK6h+QV5v0KIAECif3QMP7HcHorg/0pL32iKUOyvMj/YwpIrLXH2td5CKH7KC9umV6+u3se37BD6s2Yxv6Nv2SnfArfRXUdI9c6ApZ0F1PgG7ohUzqPO6447IcMi8DkqwUGYX/6h+be5/9TXURbZC6gVpW7GGBeviEcuQ20JOdvmRYiNF6nMGSjREmvVSXCgZVDLmP1bwGcDDKFLQWOl2Mzkj9m3ZyTqm60YVDGaEim0GQ2uYIApABlKs6J4O6T1AqR04Q+JwlRnaBDEYjmZxMR7umuUYqo7T1C4+cIxhjSmpK4z3TIO0jLfdwRKOmNmWd2omRVf0IRr1IV8ZoCojspf6cCqGoizyCkCwCTX2cu5o5BMjgfroRGDJEcnBgdpEBIwWEKfjJIyNRlk6M1oiXLZEVPdOnIDAIRZvqJ2Poyat6BAk9edJoMKMnmaP26Il8AqwR2qF792pHHxEWwnYPwiIjHZKFf6kbMQlCfhE/2aYexMO2ftnI+9rXP9kUkI8ODYoCXfvsog39leHGE1Jk4F7TLmuZYX/+wzZIDxGpD8hMJqRiuYLPiAPy8A/9V5fsjm3Uwz/1nQ+7n34NLOxFp+5FUGynjAFQubCv5ROy8x965ltsjqTEIfllW8rSjfciZrQzKGOgbJgGweRiYIEWYhiVEBfFN46mwECRlSgTAaMuDqwujsS4oH4OFVmNizMgDWWiHeAISIkDxHshpwvIQ0ZOKXC0x6HVH1mUNtWlDFnI5X51C47ok7/VoS2y1GWUkX0ilMg2IPSE0NShXZ9rm45Cn9qIMuohh8+QlfujzdCTcnTqoiftkc0VOkEi2kI+7q8byBAHAhCgBipABmEfbanDvfQd9or+aoNtyKmsi/4iK6NDfaFb79M1mdWp/9FPlzbU7z59UEZ9ylXlC/2xp75Vg59MSNB7yINegbxkcJ8LyKbNkEmf2U9Z7bnXPfSh7Rg4yEwmOlcW2Cj82X3qci/5Iw7Cj6I9fw/KGGikVVBQUNAd/HcaU1BQUPArRyGtgoKClkIhrYKCgpZCIa2CgoKWQiGtgoKClkIhrYKCgpZCIa2CgoKWQiGtgoKClkIhrYKCgpZCIa2CgoKWQq9v47Enz+Zjm0vjPCr7r2xadcqjExfsZ7Mx2oZSJwLYbxV7yOJ8JhuN3WvDqDI2I8eJFPba2ThrI6567cWyD87pm46U8Xnso/N+nDyhbfvLTj755Lxh1lEs9n2p12ZZpyzY2OsMI/vUHH3riBgnCzgqBcijrCNG3O+EB3vKHADo/Hh78uyV00cbcm3+dTKEvjjBwRnnjgVyXpZ9bt5Xnx39Nv3qv//JRB/esx/P3jZHr9CbvXFODbAJ1z41pzuQVduxl1DbNv7a1K2NRtC5c8HYyeZmsA/OPkF2spFZH9jIxZb66T5tOMlA322+ZnMnPJCRrsnsSB39sH+OHHzAyRhsFXv+yK4NG77pnd20ZTO0vti0Hpuaq6Bnm9/tAYz9iPpvr586gf21w5f0xSv/sElcX/gb29s4TufKuKdOVwW9i9pTHgYUbCh11pHg5xg2h9oYyqk5FKfkKILRgf5OSnCWEKfjbDayOiXB/4KB49rpLiht7hUACAERKcfJBIONpOrnlG1tbf02/6oHUWgfcQh2u+sdX+tEAycHCBok6/gcPxwhqBwBQnbH6zhrys59u/EBaQlQZZ1CIagEgvfISj5yCnAyCwInIGgH+R588MH5NAJkQvYgrUMOOSSTkBMT1OWkBcQl2JShV+eD0ZnNtHb766OyLqcH6K+2yY7c1K/PyIjOq1AWYQn2uFd76nIyAf2A41/oUH/UrW06jI2/ZKZf5Qws6vFekBZSsTmZ3pyvxkeQCb9gQzpSF1kRCEIiF0LVd7I0gl3iFInYvEwmJ0fQG59iB/6G8PXf/876Ymt/k1O7yro/CHtQ34zcCuhVC3AiTu+sow022CCfnc4R/KAAx3eBUbpv3775M8cMO76E4zjV0TnenE9m41VQcXgnVDoKhJMKfmexO6+IAyI4GQDyktlsvfXWmRjAOeLqdV8jBI5ANLrHL50gl65AoCNKZOzXg1zkcIqBjA6hxWfdBVLx01cyEPIG/H/GGWdkQvWDCzIWehTwMjf9EozapusqZBqCVobjVE/BzT6O9EU+dBrHzdDTVlttlQkEaRkcXM5bl0VVgcDYxysC9os0Bh+ZKV2xoSOk1cWuSAoZIxE27+rEwMBhUPFTbXxCNodMZbKOgqYPWRn70otMcPPNN88kyb/OOeecnCWT11FC9FUwcNGrmZYANdIJfucYyWRkPS5OKriMugJagDgTy9HCAkZgK6cOWZcjPhwk53/O5R5OhwAFBUdEkqaRzkCSWThPSsYlSNUtE/HTWjIzTiwIfY5UZSrIkhxGaSOs4BJopgsxfXI/eYzQskNZH2IWcKZH+uM3C7XN8cklCMipnHv1Td/JqG2BKXPyoxvqlAEo60wl2QWSIoty7qNTBC0T0QeZl/7QiexFhkoXyoV+kD04FkVg020V6hC4sh5EKNi1QdeIhQ7CLl4Rlz7Sg/4hNtlXDCR05XK/SyaJTJBiZGfsaUrPN7SLIBCM0zhlRQYcRKyeyKTohc71jU70X9syJH1gQzYz2HjP/eThF2zMrjJg2b+lBBm3dvTL/cqqj23IFsfIFAw89OpCPKfioAgq0nKOYQQzinIYIz7i4EwC3jTEFALB+Mz/7uOAppgxBVA3hzTya0M2wwndI6DUKevi1OrrCMjE+pZpjftlKYiyOj3wvgwAQWnXFeTkM1CPTI58gp/cyqlb//RdQFbrdT9iijoFjHYaoT4BrGwQGDL2t4seYhrub/pxmXbRDV0iK9lGI7ynLpkH/dKzTIjuEID3lBHcXsmJOBCS+hEWmckRoAt2QFDq0H/1gP6zlffYTp30wl6Ii/wx5VSvgY8ugwQRsQHGoGAQ6grUzW6myjJIsvBLxOnUVjKyYZ0NCnofvUpaMXJ5rULWYi1DYMgKIuDrEAHJeV3Ib9lll82/WG09yHXggQemfffdN//CikVf5RCLIBeEMoiOIEsxwgpyziw7axxlBbCg2mijjfq1vfPOO+dpB2INWV2yil133TXtv//+udxBBx2U/95+++3z1AWJAN3ILk1blVHWFEowN+qNrvyitlcPEqwVxfS12rbjeeki6vO633775V9ltmCPJBrhPiRDV7I7v/RsWo0YkQUytyblCOkTTjghB716DD6yK9mbOgLsLruRLTphk149xDCQBKrlA95jP69BcAYP64rk0Rf2tlCOoGVM7NZVNPM57fqsPZ8s6F30KmkZ2QU+p5JpGI05Awc2BbIGIiBkH5wZ0cgiEBrCMdL7X5AKAKm/YJbeG4WN1EhEVmMaZF1FBqAuI7AynLsuSBth2mlB19qX6UJdRoJEIkMwNXMhURlCkLOgJysZ9Nv/ysgcY/pHxjj1EiLDiDrVr+0qaSFVU0gZh7Km2lVS1b5+Ihn6kCnQlbbJYronM0E2VeIAg4iMyFqSH+wlG5mQhVe2YD+kRafsajqKSDx48J5sR8BXiUifEaunquwuM9MHZclg0GJ/dctqyGy6qe8GDnpAyv6nR+9p20Uu+pHlka8rcC9f0q7MlSzkI5dpKFmqA0LBwEWvkpZpoa8VCAqjojUMjm8NRAAjH58pJxCl7YgDgbg8GeOUCISTWasyheHoAoCDqw9hGcXdE9mSzwSoIDI9Ud5lKibIBIjXgCkZJ7Yu5Xz1xiynM3APIolFf3KRyXqSRXDrYfqOjLsaaEiFzEjNmo1pTWSQISsdyvCQfKxj0YPFbetT9K8eOq9CwBpQkBoZ6d19dKJuU0JZJvtEthnE6j3l6DWCv0pciNMyAPJECuxrcCIDOU31PB0Mv6AnWWh85cEgod5YDmBDZdUVU86uLpaT3xqdzFJd9ORiK7rSX74W+i0YuOjVp4ecg/E9jeIUpkcyAo4ouzJN8uSQc3qCZArSp0+fHCjh/BZPTTGQFXLjpIhMUMoeBI76OLppiM88QbNgqw5EVM1aBKOA8bRSXdoGQaIdr4inSmhdAVLxI6Ge7sn8/MyT6Y5+yxBkJxaeGxfCO4K+CCZT4yDFRpB90003zU/GBD8duQ/RkEuguhrbjuA3rTSY+Pkt95DZ/RbRyY3YEK6ncgYEn9MtO+sjYlHG+wF69792ZTC+N6cPCEFmKPMy5URg7OI9dtReACEiO9mmzyNTJJfpLt+SWXcWlgw8fSYPovRsSj/1hT/IDMsi/K8Hvf7lUs5ohJRVIRAwMnJ0jmkE5tQx/eGAnJeY3rcwKrPgaCBTMCLKnhBUZAKC0uN2AYWQYhrh/SpMr0w5BbQ1J0Tl9+pMPbQlyxLURnLBL6MwFSKTrEAWIrhNw4A8+sf5Bab1IIErIzD10J7gQKxI19qPNkA/PD0UeMhbIOsP+UzTTAHj6SH9kUlZ2SuYZsq+yKBt/dU2wiKrtgWjepG6Nuq+nAlIRz9kquSme2TmXiQZXyPRfwTBPi79omOE5bK+h/DUY5rpM/2IRXR6IT97H3vssdkHfLFXxqbviIId6cr0Ur/J4yKL9sjB5nzC/ZElk5mvmJ5D9IcOTPfYF8itDpknmWR+ymgPeVtSUI//Y7ArGHgY5H/YQrC3tbXln6zn/MioEdaVEJafnZcVFfQukLCvLRx//PHZTq6Cgmbo1TWtgQGZm2mDDMmoXAejucV2C80FBQW/bvTql0sHFhCWKYL1j2bEZQqI3EwHCnoXkn3rR+xjkT6m/gUFdSi/e1hQUNBSGOSnhwUFBYMWCmkVFBS0FAppFRQUtBQKaRUUFLQQUvpfRSVrKAS5Wl4AAAAASUVORK5CYII=;" vertex="1" parent="1">
          <mxGeometry x="482" y="162.35" width="106" height="55.29" as="geometry" />
        </mxCell>
        <mxCell id="yEgj6qXWK7Eluj3ogHR2-77" value="" style="shape=image;verticalLabelPosition=bottom;labelBackgroundColor=default;verticalAlign=top;aspect=fixed;imageAspect=0;image=data:image/png,iVBORw0KGgoAAAANSUhEUgAAATMAAACbCAYAAAAOYHxpAAAAAXNSR0IArs4c6QAAAARnQU1BAACxjwv8YQUAAAAJcEhZcwAADsMAAA7DAcdvqGQAAFMxSURBVHhe7d0FtGTFtQbgg3twl2DB3TV4kAQf3AMhBAkkSCABAkECIUCQAIGQgcEHd3d3l+Du7v5evnps1nmdvj19Z+7cmenZ/1q9+t7Tdap2bflrV52u6hH+5z+oEolEYhjHiN+9JxKJxDCNJLNEItERSDJLJBIdgVwz62G8+eab1csvv1zeJ5544mqmmWaqxhhjjOrbb7+tPv744+qJJ56o3nrrrVJ29tlnr6aaaqpqtNFGqz766KNyz9NPP12NP/741ZRTTllNMskk1SeffFK98cYb1dtvv13u//rrr6uRRx65GnPMMavxxhuvlPM+0kgjlTo/++yz6vXXXy9tvP/++9WXX35ZjTjiiKWNcccdt5psssnKS/kRRhih3FOH8u5/5JFHqnHGGaeU/eEPf1iNOuqo35Woqqeeeqp68sknq7HGGquaeuqpqxlmmOG7T3oHZHzvvfeq559/vuht+umnLzr45ptvqkcffbT0d/LJJ6+mmGKKIuPghnbffffd6rHHHis6Zb8ZZ5yx2D3Rexhpn//gu78TPYDbbrutOvnkk6ujjz66EMpcc81ViOfTTz8tJLDffvtVhx9+eHXeeecVIvrRj35UPn/22Weryy+/vGKOZ555phCJz12/+OKLS52nnnpqdeaZZ1ZXX311df/991evvfZaNemkkxbSQ3ACCfFdeeWV1RlnnFH17du3lL/sssuqW265pXrhhReq0UcfvQS/8oK+EUji2muvrXbYYYdCDEgY6dYD86STTqp23XXX6oEHHijXF1pooe8+6R2Q8b777quOPfbY6pRTTqkmmmiiapRRRikkvPvuu1c33XRTZYyeZpppCrEMbiBX8uy9997VDTfcUAaeeeaZp9gw0XvIaWYPQ/DItgQTYpFpya6M3A899FDJvvzvhVy8jOzKPvfccyWb+sEPflCyOvcirksuuaQEzJxzzlmtttpq1QILLFCI66qrriqkKHhlbDIVf5999tklO5x22mmrFVdcsVpiiSVKhqX9iy66qDr//PNLe11BXcj3888/r7766qvSlzpcI78sUNneBnnojHzkJI//vcjUldw9DTpgs7POOqsMHLJVdv7iiy8Ge9uJ/0aSWQ9DlmCKIdtCTAhJwAWZISVTH5mEzAoBCUIk99JLL5U6ZFqmSTKNhx9+uEz53IPE1lhjjWqllVYq2RIiCUKUQSEoU5177rmnBNSss85arbLKKtVPf/rTavHFFy91aMdU15R1QFAn2chcf7nWCLLISPTx9ttvr2688caSpdxxxx2lvQ8//LAQjGkh+e6+++7qwQcfLOX9ffPNN5eysteYTgNSoCd6kF3eeuut5T59RVwDgjbZgQzqJ5fsWbv0qw790ebjjz9eBgMZJxm1pd1mxE835JIFX3PNNSUz08chQe6J/0NOM3sYpm+CQ9YkcK1TzT333CUgzj333BKc1p84PXJBfkhK4HgJruWXX76Qj+mmwEJ4yiy22GLVj3/842qOOeYo2Z8pnvUsr5lnnrmUQ3wCyzrWoosuWsqb8iA25WPNzP9kawTilWFcccUV1QQTTFCyO3XLBGU8XsgAYZFd3QsvvHC576677qqOO+646vTTTy/TXBmgcvpO3rHHHrsQ9p577llIQN8QzIUXXliddtpphdAQgumhwQDh06Xpt89POOGEct+9995bdGugQNr6ifyV9TkbzDLLLIXwyY0gTUdlT+pBsu415aYD64nkOv7446tDDz20lNfmOeecUzIveqOvOpA6e+2xxx7lf/UYsLzTmWxYhp3oPSSZ9TCsQwkwjv7OO++UAFtwwQWrV199tZAZRw8iQlzel1xyyeq6664rGYqgXGqppap55523LNIjAgElyGVgMgUZxCuvvFICVZAJXMQC6kRGgt1UU1lrX+pAONbhkKvFccHciDqZmUbpg6wG0Vx//fXlhczIFWQ2//zzF3K48847S/aEjGabbbaSocpeZEBB3DIlJIF4yYqYreFZ+1OHLEq/6YjurA1ecMEFpQ+m3vqLjOnixRdfLPruisy0b80RidGXNSyyIkr6oUvLAuTyv6wM+cq6XLPeiRDVRZ46DEr6oq1ll1226FW2FwNMklnvI6eZPQzOLXA95ZOBIRGBJ5gQgKBDAAJF8PkM0cWUR2ALWtmCYESEiyyySAlwAS3b6d+/fyE/weyeWMgXUEgQGQpGnwtu5BGEgCyUR4QDwgcffFDIAJFpL15Ip74m5G8kqD+eKiJLwYxk6ABxISX9DyiP9JGZafCaa65ZMjdlEYosxwMU5GjKZxq4zDLLlDVD5E8/rYCQEJRMlc4QO3LRHuL0mQcdskPt1Ke1+uHBzFprrVUtvfTS1XTTTVc+q4M9ZL9bbrlltc466xQbIbJ29JoYPMjMbDBAkCIxUxdkgJz8jUxWXXXVQmYIL76mYTpniib7MsojJJkA0pFBeVqIIJDbhBNOWAJOcMYak/ZM9RAHMnG/8rIj5Gm6JsOSiVhTI5vPBHVj8NUzMxmQetddd90iF4LykpEgtMjMTH/1QXlZGSJBpJFFks9nZEJYl156aSnjayvrr79+kUWWiDQ9qZQ5ISxTWk9iERyS33nnnUtmhpTowCBAZ80yM7pSp/ZNK5GhAcUUnB38bSBQzr2IyPTV1N4Uf4UVVihTdH0kcwwYAXrTjs+0w74e1LiWmdmQQWZmgwHIQ/BZyBcwpl9IJDI2AYkEEI8FeU8sBayAEuDID6nIZixYy0yQgcykT58+1SabbFKeUromoAWsTEaQmiqZCgKSkclsuOGGhTSsfUW97vN3KwhG/RDcsr14uVYnQVkNEjD9RD6RuZlSq0NZ5FUH4kUEdIK8EIJrSEN9kSHRn3eZGGJRn/uQJ311BffHGp+/6dyDk80226xkU9tuu2212267lQckyIfNwLsBQ/3a0QaCagbZGbm8J4Y8kswGAwSlqYkRXxZjqiNTQVKRvSAWwWldSoZlmil43CeQEI0pkOmhxWsjv8VlJLjccsuVkT+yINmMzEOm58HDiSeeWDIQgYkcZTkyDWs/SAPxyWhkTK0gkAU2mWQw8XKtDn1EuGT1XThEqa9k9d5sWusakqhfbywTmY93C+76SV8IyjRxQPLrv5f7TRtXXnnl8v25zTffvFpvvfXK1FZWVyczMgSxJoYtJJkNBggMARLTOEEnA/E9MdmYzy1Gm0IKdgHqmr9lc8oa7QWyz0x/PMmzkC2L810xpIXsBLlFbC91a8800TrZUUcdVaZ0Xu5Bmr4+oZzyMqKegMzJdNrUTZ3Wj5CEv2VFMi2k6+/ugJzWFukKQcr6fC3D1FrGar2xKyAwU3XriIjJ4rxpLMJHugcffHC1zTbblCepyF0fAo2kmhg2kGQ2GICIZFFBTgJLYCIz1yMrEWyyK5Dt+BsBuF92YGo033zzlSzO4rkpJJISgNajBLl1HYvUiM/0T3lP7ASndThlLYALfsSHHHxXLR5Q9ATIS3YvciNZZIs8ZZimYrIqU8bugP5MlT0E0T9Erv8eQugfHXYFhETX+rv22msX/ZuGy3J9LwwRyoyVIV8QWBLZsIsks8EAAYEoTDMFkywN0VgAF1QB13wuezAFRF7xlM4Uz2fWeUyHEB9CQFCCUraHtEyXPA1U3tM1xGbBHnHKiJCerERmYw1L2S222KIQT+OiNriGUGWVCFaW2FgOsZguIxtlZZUeFFhb0xckZheCr5ogN+2C7ExZ9bqXLoKQEKJs0XXT7CinXt+785DAgwukrD8x5Y1Mlr693O8+RO+6qa71MYRoeipLtT5J/o022qg8XCEHvSM29bm3u0Qfbce6nv4kehe50XwwwpPK+PoEAjCt5OgCHEz5lPEu8AQhAqwHkrUh06DIbKxPBVkiMKRTzy6QnCeXvoJhXUx5EFzKIwpBp3yzgFPe/Rbx6zIhl4A+yWzUhxQQmDU791n7kzUhQP1EYLH4j0DVaRqsDJ0gOvXIGrVpWq1vrusX9/SQJPqkj2RHONE/Waa6tONBhLaRin4iS9khuXzVhH5cI4fPEZn2EJ0nxNqh08ja2oW69Yt87tPXGJgSvYMks0Qi0RHIaWYikegIJJklEomOQJJZIpHoCCSZJRKJjkCSWSKR6AgkmSUSiY5AklkikegIJJklEomOQJJZIpHoCCSZJRKJjkCSWSKR6AgkmSUSiY5AklkikegIJJklEomOQJJZIpHoCCSZJRKJjkCSWSKR6AgkmSUSiY5AklkikegIJJklEomOQJJZIpHoCCSZJRKJjkCSWSKR6AgkmSUSiY5AklkikegIJJklEomOQJJZIpHoCIzwP//Bd3/3Cr755pvq448/rm699dbqiiuuqEYaaaRqhBFG+O7Tqhp99NGr8cYbr1pwwQWrWWedtZp44olLmUQikWiFXiezr7/+unrrrbeqY489tjrooIOqWWaZpRp//PG/+7QqxDXKKKNUiy66aLXEEktUSy65ZDXaaKN992kikUg0xxAls2OOOaY67LDDCmmNOOKI1bfffls9//zz1U033VQ9/PDD1dRTT13tu+++1bjjjvvd3YlEItEcQ5TM/vGPf1T9+vWrVlhhhe/J7N///nd16aWXVrfffns12WSTVQceeGAhuKeeeqrcO9dcc1UzzTRT9eGHH1b33ntv9fjjj1fLLLNMNe2001ajjjpq9eCDD1bPPvts9cYbb5Tp6xhjjFFNMMEE5T5lRh555Oqzzz6rXnjhheqqq66qvvjiizK1Bddh2WWXrX70ox9V44wzTvXEE0+Utp955pkiY0yJP//882ryySev1lxzzer9998v9b377rvVjDPOWM0+++ylzJ133lldf/311c9+9rNynXyPPvpo9frrr3/fF3Uib9PpaaaZpryY5LXXXivT8LHHHruaY445qhlmmKGUfeedd6oHHnig1PHVV1+VdiaaaKKS4bq3nuXWQbZzzjmnyLzUUkuVqb5+qWueeeYpunHvfffdVz333HPVJ598Uuwx1lhjVT/84Q+rmWeeuQwucMstt1T33HNPtdJKK5X7Qn/quuiii0p/6UBG/fLLLxd7sOuXX35Z+iDzVh+ZLSn47KGHHip1TTnllOXajTfeWH3wwQfVFFNMUWRlb3oml36rWz1su8ACC1Tvvfde9eqrr5b7yTvVVFMVmeogxzXXXFOWL+hz0kkn/a8lDH3mB2R65JFHSttspZx63ceWV199dfX000+Xe8hm+eQHP/hBKTfJJJMUn6ZP/Q3oP3/im/6ef/75yztf9842P/7xj4seta1P/I3PArnUv9xyy5U23HPHHXdUE044YfWTn/yklOEX7uePkoDVV1+92Icu1fnSSy8VH4Ixxxyz+M58881X6gO2pePwxfCn2267rfjk9NNPX/zAvfRJBy+++GKRkz3oQH3swHfoUYx6kYP87MfG7L3IIosUH68vNQ0s/k9LXYDydIwTMSjDEELjOjOoUCfl6qi6OQTiYmxK4ciuUxYlKxuKoMRrr722uvvuu4tzMZz7lRMYgte9CIS8nJQyOYw+CeRTTjmlyBGOrx2GFiCMzDichSG17X91kpshGXb55ZcvAcshkYD/g8wE/BFHHFECgANwyscee6xknchQG65deOGFhaAXX3zxQuAcz73//Oc/v5eNsyFeZEOeV155pfQX8XFmTrz00kuXvqqz0Tno4+STTy7ENffccxcn0zdrlwifk7355puFWBEuPavfZ2TQZ3pnd/edcMIJpV/kDTITLH/5y19KENANnesvUmdjdZKLDrWlTo4vwBGtQKY7ernuuuuK31k7ZRPlBRO56YcdyUMGfqKdu+66qxAbOzUjM75l8BTg9NRsPZZd2JE96YKM9EBudZKHvu+///7ie4A8+JS+0IWBcLHFFvuvgQX50BH9fvTRR8XP3Hf++ecXPSM3PsDGfILNyGlQBfJ/+umnxRdmm222Usd5551X/B+ZqZ/s6jPQs4Hr5Edu+uNzJAkGBLr2Tg9i7uabby66Jr+Yij7oq35KHOiXXGKNL4sNPseuCIyfLrTQQsWn2UvS4CUGtIFX1KEPCM318KFBQUsyowBGvfzyy0sHdWDllVcu00IBMahgjMMPP7zq27dv+Z8xdNRo2KdPn6JQZIS94cgjjyyZF+MgMopbZ511ykjLQAKT8hhx1113LcqVUV122WUlALWnvPspUyCo+6c//Wmpn2OcffbZpU2ycCYOIAhNd/UfBNPf//73EmyDA5z5ggsuKPJyMoRFBtcR3KqrrlqtvfbaJRgFg8BCzJxettHqoQmCod8rr7yyBOivf/3roj9EftxxxxWCQIrWKrWL9E899dRCoAJOwLYDQYdg6Q8Z/epXvyokgBwQ8Q033FDsjiDqkwODBFsJMrYRPO7RfzbRf8Qo85GxTjfddIUUDIA9AX7Uv3//YlvETw8C2v+nnXZakY2OZKV8lD732muvEtC77757IXd+yQ6tsg330S096T+b8vdYH2ZDcUYG5AhnnHFGydb5biPUQQcGBqSuH+IAXENGBgNkaT2abPTId2TB4o5O24GZlWRCXJFvs802K7HBrghP1ip2xBe5InumL7MR8cdfxSZy12cD4KCiJZkZ7S6++OKiHMbkzIRjrJ4gM0YRHJROuZwWUQgCAUDRAs0I4Z1jG51MQwWka5zNSOW68hzPdVMYdWJ8RkZ0RpE11lijjL5GD8Fl6mAEAQ5IpnBCfSUPcjP6czAEyVBGmJ4mM3IJZqOndvWLIzC+NvWR8Y1kApsM3hE4R5IhGnTc0xWZPfnkk2UqSHZZkGwACbI1wtpoo43KqGoaSA/6a/Q0lZJR0C0gUQOKAS+ydIEuSOlNecEiYMkkO4vsmW19Rgb9Ygv90Dfwv0GTbGxSBxvop8wMkXkBG9GfYFInWcnPH0x5BNaAQG4DiDroGLnQET2zh7bYwKDCZ/mN/uiXPrmmrZgWdgVtIAM+rLxljTnnnLMQYUB/9JXuwz/5Q90/A+QWO3TMvmKTrwfYiMyRQZFZHf4nB3nIEWAvBGfaLkZA3cqxr/hUBgmJH4NKZHnqN1DRE0I1CJGZjuhUX8iqPB9id/L0BFp+z4xidAoZaJiTcPhwukEFNt94442rP/7xj9U+++xT7bffftUee+xRbb755kVZRiFBqsMMLYNiOKM9BXFQqSpyFRgUaKSXdgtmgcgYRnhGkH1QpL5wJEGMoJvBvRQuGNSlbsZnYLIZyXoSQZxG0Lfffrs4suAhP2O75oUkBBvdyCBkcKbV5FSHfulrVzAaWjfSJwSN+DggR0Wi9Eynrnn53GiqvM8RDei/AUL75PDi8OGY5OA/fIbzk/fcc88t5U1lODoHj4wrSNnLZ+RoNlVsBWSGlPUvZNKeKQ7baaMV6E0dysa0D5HpOx9D8PQh02GHgQXd8EUEQz+yJUTViEbS6gr6RWeSDrqW5dUzHfGLtPgt/zL7oBv2U75RL4iZLSUNoUeJguvhi7IzRMtGBjM60gfkLzbpRzn+IuZkoO4XP/pOXnW5F3H3BFoPIb0MxhO8Cy+8cMkIBQ/HoiTOxBgUL8gie6MQihTI8WqEaxw1Ao0i3YswOGszaMNnHINhPXVVj7YYS2bR3WBrBf1C3BzSuowHCzKfAPnJZPTbaqutSpkAh0GERlcZSyvnEKDSfY5q9JaFCdCudBfQfr0MItpkk03KNCPWdEw7PLBhR+XcQ0fI0fSeDQOcnT0QhEwLeZiK6ItMAilpg7ztwuAoS5DlaJNO6VMmihwRZ6s+Rv+6KhN9IneregYEPi57Cr82faQfumxEO4RGf5aC+IcZCZJhE8QMZDU1Flfzzjvv95kekqETL34TQITWfskT18nILtoIPbSCMqEn8WYNT8Jh0EXm4lrdMu/wn0FFy8xMp0wDOTtnE9xG6XZS9oEFBWBxTk0RsiNKx+iyRExuUZNDIDQL5QKDI3NYIwbjRvD5zJTD34hAxqUuZaS9zUZEUA5pqZMMgsu7bMl0oisSHFhwFCO+aXFMLWJRlCwCm9GRqevk4pjIgE5kNPrK2VqBDgQ7G9KztTM6U4dMDcnLQtnBS51GdTaIaTh4pwv+QA4vU44IPv6CXP2vniA101T+FA7NTvpUH9mt6WhTFiEg3d8O9J1e6I48glGdkUnoCz/oCpGNu4f/0aksnoyRsRk0IhsZWBhs+K+BRF182HScnOG3XuQZEJmRk1wW4+k7ssm6HyAy7bE3P0L4oRt2QDL6GUCwbMleYVt16zN51OcVsxS6ITfSskxCJj6qDD/xIhM+QbbaZyPXzBTYpifQksw0KjMRMDojiC18dme0bAUGo0RKoFAvJIPFGZbRGVsgCXTTBQb4+c9/Xowhfb7kkkvKuwARCO5HXtJ39SEJ0xp1CWCjEAV6CWxBx8m9InAYw0u7rvsbkay11lrlwcL2229fdNMIdZt+1evTR9dM47z8rT5Zg/KcAPSPQxs99QM5C3CIQI81CWX1URscytT/b3/7W3lY41rU2Qzu50TWGr2bcggGjidbsEgsuNiEDmWLprECq06wA4K69UM/9Yu+2clL/Z64nXXWWcWR6wSDIC0nkAOZIVf6agfqUZZP0bXgpQsyk7/eTjMoI5AFHLn5Df3SBbkNaPSLwOlrUMCm9COm9NGU3Ev9fIQfIoHwgWbQN2XjKS/7iE39qEMMGaj4jHLaQ8rs6qGXWVB3lo4MGOoUa2ZPkgo68jfbksusRzm65wsGMQ+tPHDabbfdqlVWWaXErFmP+3oCLYdxGYLvDFGQwKRcqaGg6gkwnOmbJxsYP0YiTqftSHOtt5jfm4aQhbMZJRCZ64gF4Vo0dq/R4fe//335m2KRkuBVV///zP85Kcc5/vjji1PGKIYkGMgUjDP7Ppa/BcZOO+1U2kYy5G6EwOHsgh+pAAdx7+mnn17apD9BzZk4K7k5mb8ZXKZo/cSo6L4AnSBj/d9mm22KQ9IZRwy7rLfeeoUI2aZVAIC6jLr6KjNTH51uvfXWRXZfi6BXeqNDMsqW1F+fKraCcvrEJqZ65CWnviAb9l1xxRWLw5uyBwwuMkCEgUj0UTmBOiDIMsguoAQTGyI3hKE+Om0M9EYIMFM+QWZtkmx0YOChN9mUBfueiAG6kK1oz6D7r3/9qwxapv/a8plpWSuwP7/x4MZAUM/IAmytD/SDwLyUox/vZjrtPqUGMiIzhMSHrHWrJ/xFfXwl4tmgKEHRvkFMGQSI6NiW/D2Bkfax8t4FYgGcUjmEIJOucriBhY7EiBIZB8dHTt6RCwcXPILX30Ye91gnCgLgdIxBgVifjJSinHo5HznJi+go1/8IkAz6wyACznUvfVU3RcvEtCdzUK+MlCx0Eo7hf/UGAWtXe1EnGWWDZJPeu6Z/6mBgBCJw9Zsjyoz0W1kEhyC1Qe9kdS996TNHQQ5xr+9oCXhlyNMI+jAac+zILLShLnJow/3+B33hbNozzeDsCIjTynj1AfHWp5504n5PndVHh+owAAi6+BvRsC3d0RHC0R47ug9RsGPoTP/IC/rgurKhO9C2ftO9z7VDRjMKshuIXKcHetaO/xvJTf/4AXn0Bal4qZfe1KVt10CbZhHhszEVawZ9ogdlyE7v+q9v4T905n+fqc/noV+DKB2SgQ71j+4sGyAQgzW51MV3Ytqpn/SkHv0jB72SWTue2vJxutAG/fNb9ZE12qYDPsKflVGne8gQvu0ziYOYc02cA7nCXvpAfm17OCfmlB1U9PoOgCEJT2T233//YvjVVlutGCQcJWANYMcddywBZDF7cEDmYPeDYEaYCKZRjkQi0T20zrk7DEYFI0ZkE81GUNdj9BlckDUY+SIr7WokTyQS7WO4IjNpsLTWFFOq2zjFAKm7dRGLs4MLpjGmCrK/ZlOdRCLRfQxX00xdtU6EPGRDzTKiKOMzaxiDA/U2QpZEIjFoGK7ILJFIdC5yfpNIJDoCSWaJRKIjkGSWSCQ6Ar2+ZuZLi76U6kt4vkAIRPCKhfB49wVCX5Hwhbt84jf8ga/40qWtMr697//6wxlfsfFdQV8EHVYfovhiri+d+iKyeBAHnqj7sqqn74PrIVQnotfJzDfqTzzxxLJdJvZk+UYyozJc/emeL5Q6+M43hH2VIjF8ga/YdmY7my88GwTjG+W+0rLpppuW/X6+6oLQhkUgMXtjnQFmD6tY8M19Xw2ybcp3EhPtodfJzLYTG6Ptn7RHEexFs0fQd8B8YdVWB4Rmy4m9fbZR5Dfkhx9wSaTlvC8b4QW07JxP+MygZ/uLHRS2JsW2mmERkXnGIZb6JyOzlUgsyNIS7WGo+GqG0xMcObzddtsV8rK9h+OaViA/aXjsGayDk5uKcuSYktjEbM8mGOWM2FL2CAjljIbeYycAFbjHVMaeNt/Mlwm633RYnWQAgcTBEGzsW7M3j0P6LLJKdbrf//bACT59UI6c8Zlypk4Ckoxe9m3qd8gRgUpu2Qq51ec+9alHWeX0g8z6EW3HdWW9R9vetU+H0X4jQj66ib2Xrumre7xiX51+aZuu3AP063OZlHvcSwZ10av/gYzkoFP3yMJkZE4DWXfddctAF/qIKZi/1cmW9mzGXlb20TeDpXflyaDPZCOjvw2a4Tv6R35/g3r5C7m9k9MeYeVD117gRA31sku0Qdf6I2sEsmlXG3Sm7bpvR3+A3HRDBn6mnsSAMVSTmVMTnDYRo5Zr8QJnpDu3nLNyfqcBONfJTn7BxCGsqRjBnYAhfXeqhR+L4IC//e1vyxSWQ0n148QFezNtJraG4dA7JyiY7nBezmnDtRMDbMB2zT5LfeB0ApF8gigc0l5+0wZEJNNwGgPndi9H5uSC1dn7Nv2qiyyOS3FfkIwTB44++uhyDJHNxchNfYL3N7/5TQkG/XBIolMKELnTQwSEKb2yMmL90rZ+Cy7TGRvVbRwP3QYEN/mc3uo8OYFGZn0ls5fTTfTXETMIiL2CZOlc9uRYHwGrPieN+tUqJ3QEeajPgYCxoZ0dfG45IrJysuqrnRP8xEZldbKlAwRkco6XkdEgp5NOOqncw05kUI/+k5Fu+BtiQVL655QT+gP1mhnYw2vHCDn9DoT2+QedBvnYw6tPv/vd74q9nUJC1/qDiEF/nI3vNyzoTNt8lV/RqXbYWjiSW78dWkBvfDcxYLTMzRGI41v69etXfuPSj0lQMpLpDRjBZT2O5nFgoIcBTs1wLDajCxpTVoHDmRynbRRFhtbbwoGd1+ToHfUhEWQX/4NA5PQIUZ1ICPFwQGs1RlD12eaE/NxLJo7PyQWD9p1sIbDrbQsQZCDg6E7byFddSNaPVSAHxCQjQ8LqU7+AjAwHyISwlUNE+hLHeeuDdgQrPSBgBxwqRzZ9YU+nMAgmbdOnOtTn3mbwmRNvHW8E9O/EC4Gub4KT/v2NQJUzgCijj0hTX5AX2ejYYEJuJzXQF2KW7QR5qU9fQ6/0ZU+tUyQMMmzv9Fhtk5/t+CTb+RvozTW6oVu2pme2dC0GPH+rh4yyt7CzLIscftfAMUDKkt+goC76DqhD2wYJL/chKX3QJrKiFzqgI20DuaKPfE52aaBThkz8zLVEe2hJZoxnxPPzYXvvvXd1wAEHlPOlGL43ISBlJ46S9vsARjvHsSA6mZN3jsOhBIeznbbccsvyqzGcX5YjeCIL4IgcUqC6L6aJEQggg3MfRxW4O++8c7XLLruUBWejOQfllJwVjKLOpZJNKWvklTkGBLGRWLYiA1KXDGuLLbYo2Yj7BwUCnMxsw251cnJWlqyFDmWyshdtr7/++oWcZBldgX6co4+M4zw1WeCGG25YdEg/9CjoBSJbyVrpQObrHqSMfKyNClwZJnJwBpuDLrfddttybp6Mho70gz206R6ZGFnpzJHhZLbGiqAFe53wuwukQ3ZtGlj4jhfiNBghV/0K6DPbh8958ZuuJjj0gZS0Q1fIrhn4pP7yOfbSp67qTDRHSzKTBchqBK3gYDhO5ATQ3oSMx5RCMErjjaBxbI7g5SBGVAcoIhpOLmCk+qapSMwL8XAQo7kpEZL2AyqI2u9byvICgklwyR6iLW2bcghAv71oWmDa0Q7cTzbBoP2edFb1CAZEoO+mYEg8IFs1JRJ0dNWdtskqEK0dyVjYQH1sQt9IzWd8hI6dZWbxmq4QN+KRVamDrQSsTItekRS56MV0FJnQp0wIAbpuIDFtjPO2ZH2mocrrj0GKTgcW5JYFadM596blXmYhMsXG7EgGetBBBxWf4TtesuBmOmUTfmQwED8GQhlfM+ivrM9U3sBmwIu1yER7aElmRtxIgTkq5zGCIbXeBKcWMPF9IoEim+DcHI1cRkuZmakVGTmHQInF0wh4cJ+AMmUULAJFANYXWo2o6hC81snco22yCCYLuLGoHKj/3QhB6KA8cgsQP8jrBFrrN2TuaprXDtwrgzGtQprWiPQnoJ9IBVEYoKzJnHnmmWXaIwtAWM1AZwYA9SMwfWYDutB3urPgrt+mb/SrLbp1zYvu9FlQR/YbxE7fbBn/K+cefuc9rrG9v11jUzbxjsTYaFAyM3IjeOSIXNlWvwxU1i8dNGhZI6BviNwUXTkv/SBbIxA3ktQfBCUD159miCOt2Y0c9EjXifbRkswokxNHIHvneL2tZEESWRV454CuCwZ/y8CMmNb4lOWUHFHGpkx91Iw1GFNC32Mzuv7yl78smUcggsx99WBBcsjcNAORkqFed1cQLA6FtDaEULRpQdlRydZIkPHAwhRWxkwOQajvdWIWjBb4BZL1NAvVDqmUicRvCXSFsDn71/VgcLPeYx0ubKF91/0dYAsviIBXTpmor/6/d+XIj7S0H59DlNOO68pGvQMD9yJcvuK3Jfbcc8/iEx5IyTxNq2VJATMEDwB8rpyXQYq/1OUgG3IyhWVz/sYHkHAd+kM/8TDAgwBtiLtB6dfwiJZkZl3KD5oYiQQCozizux70vQHZoQVUI3uMxlJ776ZTRlejH4fy5McTIKOgsgKdw9QDoh1wcE5lGmJ6xOEEEVlkNtbqXNdG1C3wvFoBEXJUP0aMVKwDWVvravoxIES2LGgEi/43BoygID/ykSFssMEGJQj9yjg96WszuC+In65NYWXp+qwuRGwKZSGbjyA92Z7P6Ipe2E2QOoxSPfrJXvRoWoUI1akPgt//CFkmKZtVl+wx7Cjbkdkqj+zU2+5UvxnoTDv8SWZvsNIOkvcL5n67wGfdgb7rEznV6YGLWGoGPu0hEzvSjYch5El0Hy0jz1oFMrPgbrHWu5GDo/UmODjnlX2ZlnmMLn33+FzGgWQ5tv+RGgeS/VjfMPUyReFgplMCrB1wLE/8EAOn1C4Cs6ahfgEpMyML2UyFBH5XWSsSs9Yo8AUQPcrUDAz+d28dggF5qF/bXgJMRmKBX4DrC914J2/8TkOjDOSjDwEjS9O2rw2Yjsb3sroCovOVEdNK8vh6AT0gLbolD9k9vZUR6qfg9/UQPwbjHjKqg98gPWXJUu+bzISu9SF+N8E7ErBw7pe5tCsDZXvra15sr7/Imu0t2KvPE9jQkwV837C3uC5zVx852RW5IxDgL+T2ksH6X/+QdHcQZGbQYltx1NVgRTeIWjl9je8kJrqPlvNFzunlSVNgSKS+goXBbYPiJGBdwdNNGQ6nMcIJFIv+AkWAcgxObq1HNsHZ23VM62gcndMLgvi1J6OmoJQRysL+9Kc/FYdEDAJfu80yQFkH+clqpPbEjyzxlYdGmMb27du31CfjBFNRfUMk7ODJpLb1z9M+MgnsRhshlHPOOafUJRNzX7sQhAYyv0buyTZCoUvTQA8aZJV8JAgZeSgrgxLUyNU0TTaoLuRgOufrGfonE6JXmT+S9QCBHcGT6R122KFMh7UNyiI5v4TvSak22YFeZHpHHnlkIQNtk4EtrCfGmht98RX2RXC+Y+cVJEx25dgeCRlw2Jvc7UKb5GFn/qnf5GkGZfmo9Tly8I/EwGGo+NJsjJ6cx8Inx+ZQnlQZ3REBGN1jCiUT45DxlAvZGWnjSaFrnFr3TJGQH6dyXb1I0VpHZG3KGLEFAGLyfSzXlXVNRqUu7cvCBC8IFA6JyDg9uZQT8OQxxeLU+uNvxIQQZRWuye48AEBCMkv9119TWI5dX4sho35aY3O/rzR4EicYtE0G9wgkdajbmqHgNa3Td/UjH7DehQAQguD1WSP0TV/oxpQb+dALIlbegKE/yiFbtqQrpEEP9Its46hy5azRqcsU0v/KqY8t2YjuQT/UxQb6AMoiUvZUTp3xxJUe9YXOlAsZ1B16JDubxaI8sjL9JbcBRMYNiJ8fymTZm5ym8urhH/VBRsYduqZj9ciE9YWd1EOOeFCjPkQtY46XOvWfrIhVHfruWpB7ojWGCjLrCkFmApHj+e6Y9+EVghsB+doA4vI9rkT3YappsEC+BkhEkhj20Xq1OjFUQSYg25SVGLETAweZnaxJxiOTTnQGhurMzLRK+i/1N53wdDGmmcMjTJFM+WSqpiOmbonuw/SNT1kHk+mbBiaGfQzVZJZIJBLtIqeZiUSiI5BklkgkOgJJZolEoiOQZJZIJDoCSWaJRKIjMESeZsa3wH1pMb7d3gy+V+Ub7bHvMZFIJLpCr5MZIrPNxB7KY489tuleQiAWErPFqU+fPv/vGJZEIpFoxBCZZvrypxMX7F/zpUWbn51QUX/Z82cfoJMPfMkxkUgkWmGIZGY2efuVocMOO6z8spHNvo3bSpzO4FgYG6a32GKLckYZILjY7Byix3TU7oDYTOyb8lEuMj/ltW/zc5ysYL+jTNEG4Xo5f6vX9Nb/NjNrQybp3TVt+Ca5b+PbeOzddRu/1an+gM/Ip07fPLe7gRzqimxVeWW0Aa6pK+QmkxeZ1EfmRkTfo9/6qZz/6V09sS0q2mlEyO9deVBH9ME1beiHeskHIZ8+hWxhg/hfWS91KUdv2mIH24xcV4e63UvvfEO76nA9bBtwXT1hF58p4z6fxf/+joMAoo/6EjL5XPt0Q0fNEGXJS5ZG/ZABQtfKetcnZYCsbN8VyEXesL37yOM+Lwj91G2kTNgodMjPXPeqyxKy8gH20SZdh4wQ5fib68opE+14ARnEgTJhB+2ErdwHUV/4pDL6oFyUAeX0QdmufLQZhhkyc2SOe20SdlZ/HOxHcY4admKBs80o08kSTuFw9pjTGRjDvRTLuOpbaaWVyqkNfmjDuVpOYKA86qBgzuZkDGe4uc+02G8BODjQu7adgHD88ceXkxWcVGrDsuvOO1On7JORGN/xPMstt1zZU+mcLL8/QA5ZqMzTOWFOT1DGSQvucS6XzfZOZBA8HMDJGo6VcQaXaXgjnLjgdAcnfei3Y3rcY4O6QyWtUzrtQh1xekYd9GS7lPPA9EN92nXyBbkcH+QEC6d1eGmHgwNbsKPzymTW6iKLEzcQFScNx6dHPxriRBFHLDnk0WGRzvTiyNp2phi9b7311mVDuCzemW5ODXFSBTuxGVs5isgxOtZitelzpwf7zBFI/rcfc5NNNin3OWGDzsnif+98wJa5OLZHvxuhLB9iGzMLtuMzNv7rEz+kB8cb0Y1AdQIGv4zTQPiKH01hYzoJqIe/OLfPcUROXaEvdnS+mz7GCSzOdHN2mzL8wzX64RcOUNVvfvbXv/61xAdf5kNk1y+zIbq2z1cc8FfHRMXJK9olsz757QIno4grP4OovogD4KPiQJuxcV9bfkSH3t2nTZ/TryPFyMpWbGzTv1jRppdy/IwfOUKqXfy3tWrg+ALW2VPOq9dZAgqM3oaAYUCncjruBbtzOIHKGMgL0Qk0ZeMAPspRjjE4FiL0GafhwJxBgAggRnLYH8fgiJyVo3BY9TNaOC8ZnIfF8dyvPEd3PhlHpztOqG11k1HwKEcu9yINhkYcjKmcfjEyubyQI2IgG2iXk9qz2gzKI3DBSl5EzF6Ix+Ag0DmPAaUZ6EZfEYa6yK99OtWu+8mMSONgRH3SP/1XVtDSkf6Rk03oXx+QmvI+02fy+Vtg0gsbaVcQOIjRgEQmQYgU2NhLwCFYcrAJ8iO3ui1NRBD5m361w1cQiIGQL9Fz+BG5te9HTHzus2YIO9IhnbiXHIjbvSEDudTJB/isgYq+XGs2CIE2+Y8YY7+oQ3DrH5n1R9ts4Z3+lVE3AlGOLslA72yuHP3Zg8o2/Nt1srquXXbSLtJhJy+fSSbIH8cjkY9fOkJJDPEx5+uJA1yhn/xNTIgDdWuTjGxAt9pxH/uzE/uFbsSAupG5truDljmcBjkUNtYwZTgE0Giv8d4EwxjBKdOIYbQ2qiAbo6AgFxQUx9EFBWa3GVtWJ3jjpNE6OLPD/hwC6EwwDhG/34gAGhGjJ2UbzfzNoSLzE+x+jk99DtsjIwcTAA7+qx83Q0ZOpLyDCb2c5MAR3KMfRmPya5fTOMqZkY2gXR3FXIf7BIARkA0HlLZzXI4uGPysnwwWARjQ+IIjmUz5PZRxCrH+OjiRHvQtfvSW/EjVyCoTZC9ExqccUql8M9CJoBEcnJ6ttc9+yIZsAstvGLAbQiETPbKZTBfULygMKmyuvKxXJiegBJ2yDnjkI9p1sKMZgeBHvsivEfpFfhkQ+9KBtrThpxgFozjx2wGyVHX5TBb6xz/+sbTfLOMD/UK87K9tP+knzpC5mQx90ok++Zuv+nUsfsv/4sef4wepA2LC+WkOvmR/9fu5QXp1Xd/pGZk4OFN2xW8ci84fDCjkQKqBiAMx4hfcEJ+6JQ90Kxt2OjC98yH+Srfk54tiReyJWf4k+3M/ktYeXye3WVu7aJmZEdQ0jOIIy5mwbSMh9AY4M8dgJE4YoyyF+J/zGRmMBBQVp8rWDdATMIowlNGHszrYT9vaZESByJlNyYxuZERQCMmptNLzgCDkgKapcbQygyJAZ/kjMuAEHJRzGBXJwAEHBI5FD5xXlols6u03g8ChQ0+PTW3IbyQnn/v5AlIcXJCRmHIKHoEmsyED/zOQsacpu2wIccheBCkSXWuttYotZHZkFIzuMbVEWOoB0zwDsgAzMPhZQmf9syv7IQm6a0QQpAyJjehDnfyM7Uxz6UqdZOguoo9BPvqqfnXH78Wa2vEz9pRZITk/jvOHP/yhTMmRBRsh+QBZkS/CMkDSmUEGIUkC6mXr0IcgncZBUDziB7Ko18DC3+nNgOVefTC9jRikL6S16aablukymfy2rf6aqRjUDYwSBcTejo/X0ZLMBKyRiHObQuiAUX5wOnNX0DFkyhgURIEchyMZ+SnctIKcnNHfyiA95XoCnNk0Q4anTsTAgALOyCgQYpRjIGSnHAJGDIzLkThRwH0cQN1x3f8cjEE5i9FL3zmWAI5RcUAgj5GaLqxRIE2B0QoyXTq0tkdWWYQ+uN/I7XNB19OgB36GrJGKYJNZRyaj7zKSmF7SuQDzP1mRlUEj/CLqpCfvXgH9MyAIeuRNP9qmV/V5r5cPuCZI2YVf0Ye2EI6AjRNhfd6OfRoRfdQ3dZNF3/m2QVMf+RIb8DN6CKLxEgeInt74X4AdlVWGrJE96idyVhefY9fIqCQtyIpe+Hg9KdA398mScYL2grToiHze+Rp59QMMUPqAXPVRnCqLT2TL7EC/5HR/Mxu0QksyG5pA8fEKZ63D9SAECkYADM2IzcoPDASBUScyB9kWowQ4XgR/I8gUIyYZwUKthU4jvazT4MGpIluQWciCOR8nNSUyunHOdiCoTG3pxaI2p0QOrdCOjrvrZO1Av+nHYGnAsFBs5A6QJ/RbB5mQAHJC+DGY6KslERnDqaeeWur1Gch0LVibNiMPZCgTNthEdhw2akRX18FndBN+2F3oI7Jp9CF1Ihp9RC76gRRM9f3k3Z///OfyMqXz48SmkKaeddTl8Td9ew99IhGkcsIJJ5RfDfOL9HwHwSBSWWxA+2xEj3QdDwgg7OQ9XgH3GWAtYYgjywIHH3xwWYKhMw+kzLI8yDNYdFeHLcmMQsxnsS6GRQx+1UdQ9TaQBqVShgBnVEbG7kYTjuxzyjNqeMmMZBR1hQ4KpPCCgrIFm9EtnAFJGE2NToiLsZATI3ES2Zynt9L6AEcQSEiN/Kad+qe8NSBTCusXpkX6pi1Ex7EHRCjqMGXTd20gwzrxdgVl2dq6oawlAlNdRmp9HFB2NzBgR2uQRmpP+mRmoVuIKT3d0iH7IjG68FDH9EQ24TogBYQm6AWJAYOfCGK6pWdTTYOJtUe2dC0eZDQLJHUKalNuddAHOwhStuaX9KVNtu0u9JFfWR+2ZGLgU79BKaZg7M8GriMDnwUpmZ6ZavqBZ5lOgO1MSREWfcn2fc436JTPGjDVa9q3zz77lPU/x7LjgP79+/8/v7VsYS1NRuZzg6sBALybhahPH5Ah24L1MASIJK2J8lHZpCknO3jC6n7ysnOPklk8RpWBMLx3C57tLDz3NDgbEhVoCIXjSHM5MqeiBGsWRnf/c2oG87fAVD7WMhCHQI2Rul0YUdyDYIz4HDYCTvuMKgi9TM9DPu8My/EEYEBwIAYLyYLAlJD8gklqrn7BJ3sQPIwv4LyUaQUBgRhMLa3faSfS/VZQVt/0le7I7kU212SGPu9p6L9+CmhrYI0Ztetkc13fPQUL/cYTyDoJsQufMaXxdQmfIzOBxVZ0q37BTa/sFdNDZep2CqjTwM5edOvhR9hXcJMfIVh+EMzdBaLk42YUBkPkpG79M5CSk9wIhD0RL7uEjZAbwojsLcCn9F09yiE28pkWG7z8TRf0Qmd0rP5YQkFIyCWgn9qQReEI90cc8Gl10hN/E3Mhm/bJx3/pWQLAriDrFJOIVnwqwwZIu11Sa/loK35CTOagUh0mYDtB0dOwBuBplOA2PTjmmGOKgoMQBAAnO+SQQwrrU3a/fv3KdA0oj8K8OIZpYndJWeoroGRmiMsIEgjdIFTG9eDEKBR6M4r5JWyjOmMF1GN0YnCjHwJxze9pGo0FDIPrd6zLBFG1gnbJ6wlpd/qJrPRDoEj/fSWH7kwjZHerr7566UNPQ5DSkakefURwBAQVOxtIPO3yoy6xvkI/BltPvhr1wocNwPvtt18hLg8JtMF31KGv6lYPHQtE5QRTM7C/J7MyIJmkLMN9SACJsX9816y7oGM+rn2ZvO+ICWjkhpTZ0cyIPfgIUuEj+kxfyJDfeODBv5EhGNiRv4dNdOZeupLx+5s/1aeZMcVzDaGJLdkWnwJ9NWB7SOTdIBCIjJiv6geypyvysRMb++lC9kZ0YtWTcrMS/TIYqJ99gtDoUgwNCL3+pVnNMX48jeGcFNW4liMTEVDIB/tTGmW6btRiSB2lpFAuA5rru8caEYVxUtAugpPVSd8FhjUHhjRF8OTQlJRsRiJta0NwU7KR17s2jJ7qjekAZXNEgeB+xmUoTuYeMjIwEuA8nEYgSK9dIyeC1aash/NyJOtosg0OQn7lOInPGN1P5TWCA9CPF1k4HCenOyM0IpV5CIz6InFAOc4vU4kRUtvaNWKzhT6EXulKW8r4XCYI+u66+91rykxPbGDKp7x6IouVYSCemBYCW3mMr5+CWT3a0w9+IPugG4MHvbmPbbXrc31nF/0VVOzgKxIyTDaQBbimL97VxQ8FM1vGgn4ddKo+fVCHv+mMzdiEnN4Fnz7yRYMCgta2droKTOW9PASx5sv/tEdvbEU39KUMPSjHRvxBnUhZ8oFU3YP0t9hii0L0SJCcXvSFlPmkvrIVfxWPdByxqKyZEL3Shf/FAR2LOXGAoPwvDvg6OemObeiXHWKA0W5krvTAz/AAHUbftacfbKxdMcIuQyWZDU4IFD/Wy0AWQxvhc9kUxxZkvlODnBKJToTsDpn5fdWtttqqxAVi6FS0XDMb1mCElRnEyN4IhjSSGCWbZYOJRGLYRUdlZlJb6S6Sqj/WD/hcRmYaKH03JZD6JhKdCNNta1Gm6daqLFOY3nUqOorMEonE8IvOpelEIjFcIckskUh0BJLMEolERyDJLJFIdASG6AMATxd9OdA2Bl9A9AVRX8zzFQpfYPUFQF+1iG9oJxKJRFcYYmSGyHw72nEjtjTYO+ZLrb5F7NvLvhlv75etKL5R7Nvi7XwLOJFIDJ8YYmRmW4QtPXbgx9YI224Qme+AOaTO92QQnkPp7Kr3nbBO/p5MIpEYePQ6mZlG2ovlTLB+/fqVL67KwGywtY8OmcnakJ19ecrJzuwt8+19+yHtWVNGXbI1X5JFhLYm6Y4y9napK7Zv2MeJDGPPnftsazKVtYFaWZtb7dNEpAjWvszYJ2kvnL1mssd6m3HsENK1UVzdpsamzV72n/nCoq0kZIjz08kee0vtR3MPWZpln/qkv2Rw+gP9IXywF84eO3v21KVOMtoTp3zoSD/s7aNjf+sLHTXTk89DTzJlerKrwr5M/fbFY/sb6clygH2eXS0F2Chvw7HN16Dv9OQ+uzDITyc22JNDH8irz/po6cHmbeXJbB8gO9IXWfTVnkL6kb2HjK6rl130QZ1sql904Auk5LIvlH3Jpw/adN3yB1/gA+py2gPQDxnqexj1377U2POpj9qjD7aN/bf8S9/5gnvCR7z8z476bRB3jVzsRy98m3/YUwxksi+T/WL/rPboiZ3FijaHJ7QkMx/VXxDO5jUw4Aw2VDuxwFnqhx9+eMm6mm16tvnYrxghDYbkGDZku27zKgcmj885g428HNfmVWc/qVNgAoLjxE59cEYb+e3NdMSRs9YFAgIw5SUTgnPSAgdDCs5ml0lyRoFPFm06QcH/Avu4444rxGs/nLO1bDAWBHvuuWc5tgUJO8MfUdODPnBARLHllluWDcHqatQthxaUjhZ2VpUgCwd2AoRTDRyQJ8jVaRO00xRsNA4dCQbnhNGRzb7kc7KHb4gLgNgJIRD12WkbdCOg6MlJB9ttt10JRBvA1e18Nt8ud7a9LWICvBF+Icl+WOfr64e+s737HAaALPxqlDO0wl7kZcfYreGQSpk7mwpeAU1fyElftS+42cxvL7CN62eccUaxS2zENvA4xooO+IyBgSz0qS/IG1GR12kYjq058MADy/8OEQR2QHSImC6AfZEh+/AR/seO9IFY6ICOkZRfI7M7xT1sYJmFbzn22oCNTNlYPbFThW+SmX84sQX4oZNW1MFvge6cCbbBBhuUjffaHJ7QclWd8m0PojRkQFlOlxBAA3sMDONY8DdKCTAEYxRpBs7K8JyHszqKiFHJJWtDDkZTJ284BUB5RMeIjkLxQwocGOIXkGI0rUOQyQAQj+NI9BXJuI7I1Mm5OZLTS8nrRAsjo6Dm2AFZk3ZkM/om0PRBWRt/9RkxcDaExilln97JKsNqHFEFNdKhB87qXn2NrIksSFgw04lTVBEDUhWg7ieTI2H0C+GCbCKCRJ0guMiqXCOQJz3JohBhkHE7IKsz5fgT4uVD5I3BRn823njjoiskwD/4nSNpukIcIaNvyIN8yNv6KzJXl4FS3QgNCTuOBnFrn31bAQGq1+kbBlXl+ZHBjg2dTqv/7KxfdCIzNGDyEe3xdcfvyAiD7MlCx64j7oMOOqgMjK45soq9xBn5tY9s+Tty5b/8Wx/5HgJkY9fdz0f8LgCyJ9/whJYLUALML68I5P79+5efmmMwhhtYcOrIqoygyEga3QyuC7ggG6RhSoq8BIJRD6kymqAUkBxGnQzsGgL04hjq4hyNULfpBpLkSMpoW7syAdeNksgm6iOD6aP2lA8Z4zA6fyNYziZrEbQcXB9cR1rxYAN5Ik1t0E8jEKSD7UynBLmg5bxeMgVBIxvgyKZiyFdb2nZulYB2dpXsNsgDyE6Gup5kkIJTkDWCHPonE5DBCORmg0MjyIjIkC67Iwdkgtjjfvp2zZl05PAev8vYCLomi6xLpq6vCMt1g16QXEz3tEFWn9FTHJ2jvAEFWRgU/CIQ0kAy9AjuZysy0SU/cg350Kvr6ucj6pRlR1l9kIHWT6vQnowQKZLHMotBl1/wA9m8+tkk6jfN1kekTTbrzAZeccgf9C0GFX3hf0iUD8aManhASzJjeOQloK0jUJSDETnmoEKwMADDdYUYaTldq3KDCk6lX5wfMZpmBZkhCH03HUKQnCqc2UF/DsJDAEhIOZmNaVFMezm6viIwRxIjRO04uNF0woF5sink0Mz5/C8AkK2AM9VyAKVf5DFVMTqzD4IRUGykTSSF3GV5RnJB5Rjk+GX4gYFBiLz6iRxN97oaiOogl2mm5QVkIOCRz8CCT9CZYEZcsnB6dV0bXgYHg6/poXPy99133+8PUkQ69MS+yEA9ztBXbq+99qqOOOKIstbXLhCfgSjO3TNIIy8yrbnmmmV6b5qsPYMlsmFDg4tBkQ7ZmX4RPv/TJxkkW8ZMw0Bkmm5QM4Dpoym6c//5A7lNT/mRdtgpyew7CFDGZwRK8fJ/s+yhXTAOUpA9WTDllByqGRiEs3IMhndvTwOxcAwvTojMGtfvkBcZkFKQKp1wGlmHLMHniA6BWWsyesqQEJGy+mG9RKbrb/2XeSAZ+ogpSDPQO50LFr/6vcsuuxTnFXzet99++xI0cfRRyBnZlb/VQVY6DVvGZ+2AnWQ0sgrZJDKz7tQO2A7pK484ZA0CrRnakYffICZlZUDWAINU6YktZJemrc63o6N4+Z99ZPXKsQO9Wg/0Od1aIzR4dReNPkLHCBZJGaxc1566yYYEZdz8iNzK8xXl1BX1xP8+509iULanHtPJet/i5VBDPhV1DA9oSWZGBCMNpSASI4MR3/RgYCEbM/IY1dUpsI1GgiyI07vRVTbihWQ4XDtZQHch84onafpq2srhgCNo22dIj0OSDYzEFoaNkoKLExtJZWkW5GV7pumC333I0nqNDEo50wsjt3fZk7aCYBqhbnKYrtKDJ7/WZSzSy3SQoRd7kV092kQYQboyEWtm9OnzaEu77Tg8uRERWZGmTLM+ZW0FctEJ/Rq4TA1jGhcgTzuyuB8ZqkNAW1tCrhH8ZPLis2ELDxos/Fui4LuWGxArveoPsjXVU856oukhsmsXBjFtIi1+jMD0x7SRj5jh6C/52J6PyZD5Ev83SLhPPOgL28keIx7Cfuolt37zB+168KBv/EFfLX3ojzLaase2nYKWZCZQ4kurpgUcwUgYj9kHBsiMc8tKLGZbFLdYi1Q4KgN6t+ZhKiaIYq2s3eDpDgSoqZrFfW3UR1Z/a5vTIDwOydE4qqdlFuVNZThkgBMhKMHOQT1tMh2Q2cjWBBgSsm6EnDio4BQIHDdIJkAWZCq4OLX6OLaR3EKyBWOL5PRl1KbbGAxM79yDiE1PZIbWarQRmUA9A2gF98sirMOxv3vaDZQgepmEI5NN6Q0CAf32Us6rFfiJAYJOkCpiUDcgAwMlQpAtsy0y0U9ZqfUwP6NmbQzRaLMnwI4yQX7AlvxX3UiKvWSR/CfAn2JAIJtsnb3IbYDjL5Zy2I4t+Y4Ff77Hf8SlOGITNtY39cTDJD827bOe6t+wgpaPogQQMuMwApMDUXZMZwYWAgiZ+TIsozFW3759vw8sRhCojCvlF/hIwuc9DU7oYYI+GrH1MyCwTGE4j9FacCBXejByktXirDIysbgH8ZuGeVSPrI2WRlTrIzIjv+NoKot8rHdpV12cspkDyjIsBHNo9/uREdcQoUVhg402BLLMzBNXdflqAh3SpeC2jkc263rk0qZFd6P8gGAgkxXSE8Jks+5AW9bwBChSEXhIhU75QGQTdNsKdIYMPIFlN+XVDd4NeAbJddZZp2TMfgkegSOYWOvzHTV6IEtPgP2QtCUKZHbUUUcVuRCmNpC4/gWC3K2DsQ17iAe69bUKNvbkMrJosivPVuQnO2IzqPEJumT3yObErCx4QANDp2GkfXzBpwsIGKOOILCAySgCpx3nHxAYRF2MzlimmkZdwW0KJ9gZTxYj06mnzByaoxqdlOMEZEIE7hXkpg/k5mgg6F0XlMhYu9oUoLIyZQU+55N1mQYLCoFLVvWrg4MZOckST6IQYjxu55RBXmQxWstk1OcaufVRtiQb43AcTwaIFGPaWYd+6oey7te+oOHM+iKjRKrkdC+bqZ+TK4vYXEeI9GU0p2sy6btAi6k12eiRnsiiTXqSEQikIER6cl1b/CKWIhrhqZu2tRMPVky56ZoOTX1licjAlFG7ICj11eBBx3SjT3zFlBph8x+y6h/bIjmykEnf2Es27YV82QkJGpwQJ5vRj74bMPWBLIhfeXWTyX0Bdcq41IMU6Uf/kKj2+QC9kF1dZDGbIWv4LZvxCTpAStZWrZ1KFBA+v2BfLxkbXdO/9VgxQXbt8Ull6Ei9+qNuD6a8R8Y6vGCIbjTXNGN6cSDOE+LUHUQwB5EBJzHKeudMjKpMjGKcRjBwFvWA8pxCdheBywHcx4m14zP3ISH1Ih/XwsHJqW5wXd0CG1znhOrSrr5o0zWEqHxkSNpQvz5FvxCB+sjhs0aEDNFv9YN79Md96nJdYMswlQ996mcMQvSgL9p0jdOTD2SY+uJ/9bqfnpRt1JPAVW9kzc3kVoY8CEFZfyMl5dXJXtrwN32HvUJ/SAXBuU5m5fWTTt2jnH7qk3qCJPWBDryHrhCpPkR/yaK/9BnyqcM92lGv6yETkIk+kGXoHNQRvkwWiD6SiW60xx/IQX73aEcfDTJkA3Krx+fkcS+Z2SN8l4zkU069QBbl2FS72h+eMETJLJFIJHoKw9ekOpFIdCySzBKJREcgySyRSHQEkswSiURHIMkskUh0BJLMEolERyDJLJFIdASSzBKJREcgySyRSHQEkswSiURHYIhtZ7JB1iZkR6PYq2f/mX1nNts6Zsb+Mvv/bLS1Gdnmb//bf2YvoBMHbDC3kdfeO5t/nSBgE7X9c2Cvn/qcZhD7DO2Nc+SKk0S1Yf+aPXA2K9v8awOxvYBOcnASrEP0bF52v7q14bRV51HZ4G1fnBMOyOkAQhuiXbN/T1n923DDDcvGX3vuHNVj83mckEEGp5PYyG+Tsf45EsnxyE4o9Vnsx3PSRf/+/cuJtWS0oVk99gnqo72FNnE7lgi0aXO5Pa72SDqtwgZz+xHpwr5D9dNl/VSHOuJcNpuhvYM9ico71tmmb3WFjdRPn2zl3QZ4+rOZnrzqUKcN0645DsjmbbLTJznpyF5F+wzVbQ+i/trobrM6/dIrndvn6Hw3tq7D/kgn89qMH3sbnWLhqG37Ge1tBNdt4ndAgA3o2mXP2KTvXvtv9demcwcCaDMx9KHlqRmDAwJYUDtcz9EnnM0GbI7PefwtWASgQHV8iyCJM7w4IkLi9DYAc0R/OwCP8yIyjuqFJJWPDcY239rU6xwyAWMDMCjnf44dp2dwaEc9O7FTwLvXNcdWO2TRiQnIR3v6oT8Ox7OBWCALUHX6TECT1RleXk5xEJACji6UJZ+AJIPzrxxX7j7B6xo4H96PVTjhQX0IxnlddIow9MO1fv36FVIRiE7+oEfBr226Ih8906O2yYxUgzTrcK+zsSK43atug4f+u09dZENW0S/3Ked/+ncCBzsieDLrLwIzMCB+bes/Of2Clf9jg7fP9Y28yEa/4ix8151SQo46yET/ZNJnOiSXQdTJJ2RwQoi62JsOyKOsQcNnfIj8oSd1kIsMiaEPvT7N5ByCWWbEaYyqfsHogAMOKCdmhoPLMATQscceW7Knrbbaqhw653hgR6o46xzRcU4kI1A5sPOg1OXlDDIO7FyvOBtKMBrlZTLO0I8z4h2xgkSbAYmq29ntAkQAdPdEAn05+eSTiwyyPz9jR0ZH2QhIhOGlnYGF4HaAItKRzQTU61enBG2fPn2+14/MyvExiEHGQrZG6LtMyvEz9OWXhGQo9K5PSE3ge5eVhi132223chSNE0jiB17qcI8ByKkRMsNtt922ZD0GHwOOI3FkujvttFPJRGWAfltBNt9dsBVS33TTTYv86jXweGnXz7w5dhx58SsZuPJ+F0B5J9DyG/6qL4mhE72emQkyxOO0UHBWlRHeiGe0du6TrEdmFoGGeJyHFec4cSxO7R6jvmA16itvZPWZaY97kaKAEhympIhUxsDBZThGWQHFidVv+iNDENyukc+I7DTaOJ1UfYLbFJYspqQyMyO4NhEep0cu+mvaLLN0KGMcIaN+MrrX30hcu6bOriFoga0vMk5TRDIINFNcZfVXZoeEZY/I3WGHppemRsgLUZDJ1Frb+l/XDxLSPwTvsMM40iYQmQu964PMVP+0Sw7nwZGFDPRHl+okB7uQV9ZkYDEtRID6ywayN1N7Lxko/Rl0+Iafo5NxsbG26UxG7ZpptfvpV18QK50ZINXPJmT2uTbY2hQyzlPThr7oq0GM7uifTtiRP8b5YrJDJO8la5ShI8HE0Idez8w4GsJBCohLAHAYjmUNhbMaFTmdgBFopgBenNL/CEgWABxZUIfTqlsweMkqBJr1DkRp5PW5AHVd+QEBoQhIRGFKy8kFWP3emP6SJdpGGoITBIK++Fw5f6vTS9Yj61C3eskGMlgZljJRJxJtlj3puwFCwNOPqbKAB+V9bpoU0z91qdf/iM/aGcJoJDIgk+OdkR2ZZFRIUTt0EK/QL6IytWMT5WSabB5gdzrQFy+kW58iqpdtvNQJfAQ5qYvuDBDqIb8BBrEZtKxFIn4krY/17LQdsJcsmV/SH1vQCd9DbOojc2LoRK+TGefg/BG0dQgWAWAEN8ILxGYBBj7j0IjEu6A0hXLGu+mB1/7771+mPaY8AlwwCEbtc1ajbCuolywyDQFjBEe07q9D0MlQ/LKPdk0hd9xxxzIdC0Rf/DKQqbJfylbWlMz02a8umXJHACM3R4aTP/pjKiSDaNQJ2U455ZQS9Bb8vSsX0DYy8CDClCrq07b6/cKPTLOZrulXECMXC/B+1kw9AlzmIyOSHfl9AQ8n2M1Ag/RNYw0k2g8gR7pSlyxYBiqDC9TLBsLWQYohp7rpLPTpp/ToDZn6/QjZV3egnWi/UReuh68lhk70OpkhEJkIQpDuG+mMsJzEVNG58KYTRm9BidxkFV6cWbDIQIy87jEllTkIXve7JvA4tUzIGpKAkeWoy1QBkbpH9tcK2jPSy7Kcqx7T30ZH97+6ZIwyGC9/C9z4HJkgQ+tBZJENKYMo/OiFKY52ImDJ6B79iDobF7kFWEyb6dCak6liZLrgHfGYYiFymZk6tS1L9aABmdBpBHLA4ILIPQgxxfW/+7zogS3oGHmQW2aNpDyMIK86Y1AKhK5kOp7gsr+MSqZIF+xuACErXQFby/RkcdqmB/rhS8ifLrXnnc7JImMLXbaLqCfkQV5kJ48HK+qOjDcx9GGIkJksilNydE+VjOyISEB72sV5lROAHExQcCZTGGsx3jk90jLKywL8rS6fyRjUh8S8OKdpSKzlCCBZmnYEouuITqBzXMQAiDGc2m8RmH50F4LXS7bi6aQANQ0KOfXXE09/C0BtdQd0Y6rqaaG1HjqrZ47aRnLO2KcDa0J0oz361rZBRR2NIAvCs/Btzc5Ultz6wD7WybTFFggGacYx4qZsiM47EmzMaOjD1yHUgdzZV1lTVXqw9sVW7ENOdemDgRCBITM2ZEv2U07/XIupaj07bQf0xJ/olI701cuDCj7K/kg4MXSie9buAQgCC/G+8oDMrEX5XpWg4Hwcdr311iuOxTFNv2RXfk5NYAoKI6QHAl6yHaOl0R4ZqcvTS/VpS30Wk5GGX0vi+NoVmOHsglFwIzL3CRjwt/tNLU1pBpTJtYJM0LTRQjwyQ7LIQoYjSEzzkLL/uwN10KenuHRBZ41QrwDXtocapmDuQ0AWwD0I8U6/deivbMsvHSFBU9NYEEcW6qUr5IZMEJ7Aj37JAMmDKA0Qrge0JfM0FbVw7yfzLBOwGfvG104MMmyOrH/xi1+UhfzI9GRvyAaJsaVMTL3644k3HXdnqonI9Jm82ueb2qY7RO1BjqwzMXRiiH1plpPJjDgsEuKEnFjwmH4IBiO6kRfRmGbEtMHIbDolw0NkHM7IzbERErJSn2BVRtCdeOKJhRSV9zKFDQgyQRP3exyPyHyh00jMyWURIHBMgxEcgiKTABbQnnxyetcsJBvd9U/AypiCRE0LBQzV6zMyQpoIHJAuWdTnM8EEAgwZxdNMWaOsUz8FL72YqtGrbEf24ouoAlS2o+3Qj7aRCZJGEKZXzaAs3cuU6FidCE1mrW51GAwQkjbVG/1Sp3tlX9YKZXkISJ2e2uqvabLM0HWEJQvzFRYDmv+VRXDkpHP9lr25h34tP2gLol02Yy+6p2e2RNbIFejWfcqzbWTc/IgfsKe+sqFrMZVFZDLKQRnUEoMPw80PmhxxxBEl+GVHCDOmQ3WcdNJJ5fc7DznkkPKVhkTvAUEhYd+H81uXhx56aPmd0USiXfT6mtmQggzHSG+U7WotRcbmqadMIpFIDFvo9S/NDkmYZpiumMKaejSDaYwpENJL9C5MEgw0pnQyY1PZRKJdDDfTzEQi0dkYbqaZiUSis5FklkgkOgJJZolEoiOQZJZIJDoAVfW/W0m46TFZTLYAAAAASUVORK5CYII=;" vertex="1" parent="1">
          <mxGeometry x="208.75" y="161.6" width="112.5" height="56.8" as="geometry" />
        </mxCell>
        <mxCell id="yEgj6qXWK7Eluj3ogHR2-78" value="" style="shape=image;verticalLabelPosition=bottom;labelBackgroundColor=default;verticalAlign=top;aspect=fixed;imageAspect=0;image=data:image/png,iVBORw0KGgoAAAANSUhEUgAAANcAAABFCAYAAADZ03P9AAAAAXNSR0IArs4c6QAAAARnQU1BAACxjwv8YQUAAAAJcEhZcwAADsMAAA7DAcdvqGQAACQ3SURBVHhe7d11jBxHFgfgCjMzMzMzM4PDDjmR5USJnD8SJQ6fEiVSmJljhTbMzMzMzMyMd/fV+fnaszOzM7ue3bXdT2rNTHd11YPfg+qt6h3t3/+l1Avp77//Tn/99dcwR5wrflZ+r3b8888/7b4XP4tHnKOW+B3fi+fje/yu9r14oGrnULXfQcXvRRpttNGGfKv+vfgZR+Xvasfoo48+zGd8L55v9BhjjDFqfnZ0jDnmmO2++6z87sBXb6Re61wl/Z8qTdRbwVTSsFQ6V0kltYhGH/JZUkklDWcqnaukklpEpXOVVFKLaISbc3344YfpoYceShNOOGGaYYYZ0oILLpjGHnvsIVd7lj7//PP0/vvvpzfeeCPNOeec+Zhsssny061G6euvv05ffPFF+uyzz9Lcc8+dZUTPP/98evPNN9O4446bzztGFfruu+/Sxx9/nPXK7gsttFCadNJJsy56M43xr//SkO8jBD344INp9913z2DzCH7JJZdM44033pCrPUvPPvtsuuaaa9IRRxyRn+jNOuusaYoppkhjjTXWkBb1SZx7+eWX03333Zfa2trSzDPPnB0UnXfeeen4449PTz/9dJpqqqnSYostls+PCvTWW2+lO++8Mx1zzDHptddeS/PNN1+aeOKJ0wQTTDCkRe+ksiwcjjTNNNOkpZZaKm277bZpmWWWyY7VTNZCjz/+eLrnnnvSRx99lH755ZchZ1NaeOGF02abbZbWX3/9oQ5XUu+mlpWFupXKP/300/Tll1+mP//8M59XwgHhdNNNlyOw7PPNN9+kF198Maf5GWecMU0//fT5j4M//vhjeuGFF3KbOP/AAw+kXXbZJZdLALzpppvmLPHHH3/kSKada/ryB+Cffvopvfvuu7ncCrC6NtFEE6XZZpst8yCz/Pbbb+nbb7/NZd3333+ff/uDp/Jj6qmnTjPNNFP+7dorr7ySr7v2ww8/5PPKPzx88MEH6f77708rrLBCWnbZZfP59957L+tCP3j6+eefc1t8TD755GmWWWbJfCl5ZSf3k3mbbbbJ8snOd91119ByeNVVV00rrbRSvgc/ylFlJH3Rs0yuX7rAY8iHbyUnPrSjj19//TXzgc855pgjTTLJJHUDAnsaSz+///57Pjf++OMPtQ8bkI/NyUw/ZGVP2Ya+tTUOwv9XX32VZXcfuWEEjzAy5ZRT5nJQ5jrnnHPy+QEDBmQ94JM+tZl22mlzpncOX8YvYm+cccbJY2pDN91R7bTMuSjpuuuuS7fddluOxJSMCLbOOuukddddN62yyipZoaL1AQcckJXZp0+ftOGGG2blmWMMGjQog2bzzTdPm2yySXr77bezcwEDJ9UOoNXlQLrFFlvkCK8vfevj/PPPT48++mg2IEdgoHnnnTf3s/LKK2ejA+gzzzyTBg8enF566aUMIEZedNFF0+qrr577BULXVNKuK81effXVDN4lllgiZxTGVMJtv/32+R5ODBTKRf0wPGcHKIBYeuml04477phBctVVV6Vbb701vf7661lXAOEe/TkuvPDCDM7+/funfv365TaCz913353vA0JgBXKObfxFFlkkgwrQDjvssOy4q622WraHQPLJJ59kfSy++OK53DaH5Sy1iD3DpmRFAg/7CARsQD7jsD+HZht9KueMra15E6JPAfPKK6/M97EZ25IbDpZbbrnMezgX51lrrbXSc889N9QhBbL11lsvByPj4EufN998c/6EH1XEAgsskO0iWMVctpXUkjmXiAh8l1xySVYu0K2xxhq5ZAJEB6ACOFApgW6//fasmPnnnz/NM888uY1sw5CiK8NoL7tcf/31eQztKV97jhagpUxjAs9NN92UnnjiiQzKvn37ZrD5LluKoAwJfAxx9dVXZ+eda6650vLLL5/PA4Z+OavoixdZBChlTCBhXI4mGpLbvEgZRxYOanzntMfXmmuumUHI0czTQh/GNRYZOZZ2AgoHf+yxx7LzG4Mj6JsTciqOK2h4yLHiiivmcQSLJ598cqh8gp25HGcUT+lSYBH16Ut25WTa+6wktgBoAcCnDIAv8shQ9KRKkP0EtDvuuCNnLOOsvfbaWQ/acCY6E1g4OKcig2VjdEY298mMdMy2eBdAyc+ZBFTy4wEOtJWZ9UsWVdAFF1yQ+dGOLWVwTkdOdhREEF21iloy5+IwQEghFE8AgAYoUY4BAaojqpdUXQMakV/U4rwUaPJ77733ZjBwIMoEeAbigAyCB6BicOcZjOFkUIpnYNlPv5xGW6RtEDBzCBlCFlaiRrt6NPvss+d5E6fhDPTD+URn40bJJJsChUhfrYQBJo4iIwOshycqAlmBs7tHduFgdMAmiN5858jaAz6gywKcgq6qEV3Sz1NPPZV1y4k33njjtNFGG2Ub0K2+HWxLBrICMadhf47gQRRZwzb485AC/7KV7Kfs5bQCDCriIPqmd7rRf1QoeH/nnXfyGI888kh2TjaGC3YVeJ2nN/rj0K2kMYd8DleiFA7kEJ1EJuUTBZrnyB6ingikjOkMKX30A0jGARDZQYnEqY2r/ufQAAgYFM/ggAXI7ncfpTMM0MmuDOdQ6nECRsCryCsTI9Ed+LVjYM4mA9ciWTbGFN3pQZbkkEAgqgIop+K05glKF8EAMCpJ8JJBABRvgA5sdM9BlU9KKaWiscLxtcWDSoAuOKG5HAADKdBVI3YCSjoQnDgB3blP9RDBRn8xj+T0MrGsiw96RjITeenSOeDn5JyUXemJzsmA3yiTkbEFJ6UdXjm6J6wCn6zFcbU3hjHpVj+ua+9TZeDozAOnZqglmQsYgGSrrbZKe+yxR45uDEw4UUVpcfnll+csI3UHMRSAxycF1YsuDCoyAZRPh3MRpTmz7LPrrrvmTCRT6I9RlZb4MDcA1BiXsvGvTw6hPUBpU8xcEUC0Ma57jF2PZHBttI17kLEDTNpEqRK8VCO8ckD36hMfjuDbpzZ4LvKtT0HH9ZDTp7Z48FmNXFPGGg9/7ot74xpbOjjTWWedlUt6gY7zCBKcEcVY7Bv9yUhhQ32STV+VGHBd5uLIvvskkz71hQ+H3wLfwIED83z+oIMOSoceemg68sgj09Zbb537qKXb4UUtKwspRRRSEohIyisRVXSRSSjenIjDUSwFA7CIIkqKbAzjXDVSYohaMo6aO8pAhhDtKJ7xKVGJIRrKNLIGsD388MN57mTOwziMhPQVR9T5JsWyTDyUQXGPz0bImPo0FxKtRVg8k1+0j7/Z0ANgaE9XdFEEV5BxycaRtBWhZU59KvGMpS9BTrtwfOeAqvjb0RGxUZTzdB8PQ5S1dMSmSjw8qBIuu+yyHEhhQVCThfERhAe/2QhW3Ecn7Cnz6ENGpS/Xg/AdeEFF3umNTejSeQ7toZmHZEp32U75rnLRZoR0LiBUR5955pn5KRfFKZ2UWCbRHg4ABGABCUF9AgSDKCFFv1tuuSUrtxoxgrYmzibqjMG4opZyx1M6E9tTTjklnX766bl0UPJtueWW+UGBMfGARFQHHsx/GFVGa2trS2eccUY68cQT8xiVZR9DNwJMpOTCn74B0QMcYwkmgKfcQXgAElGbDmXZIriCgMjTL/dxwhtuuCE/kDGGjGzeiTfANqnvKpBkH6W8ko9TqTzYh/5PPfXUdNxxx6Vzzz0365xtOCA7ALOgZvyYApCPffAVD5f0ZY5I7x5G6O+kk07KOqgVYKuRAM55OK2y9MYbb8zls4c+hxxySNp3332znvDgaCW1xHUZ3vyBoJyDkKI1BfvtvAzioFxCSuEMo1T0CNccgSFloGpkziMqU765gIiNZEmPat3PecwtgEHtD3R40BYoTcqNy9F8BwjgxIfIDLTKE0+8HGSKcRp1qiDjAijgeYIpkHAs8x9zJcDVp/IZKF03hzQvkHkrsxcdu0eG57j6Mt+MBw7A67GzOSnnJVtXiC3MrehFIKMjc1g844EtBS+8y2ZKcp+CiHYCk8CBOJnACgdkl91cF8BkcbKrPjwpVP1EEGyEtJfNPcbXJ33I5PQj8KqgOB++m7Vhs9SSR/EcgnGjriaklE9pFCw9ezKkVAO4KFEomeKBmnN4oEApAKa8pBRGYViPXf1GAGteBISegDmAgdO4VxYAOE+U8EGpov4GG2yQnQuv2jkAVV+CAKfnVJ5Eyrj6xJt+IpIDU5Q7QOYgJxmBg1NxWKUOGfBEJgcZObUJunHoBgCACQ9IAMGjEpUMwEMv5McPEOpTtRAPZtxDt7K0dnhlh5joc2i8ydZ+K3nx7bxswjEqiTMLaOShP/ohA3sovwQ0+hQc2F22kZHogs7JSk+uxd8EPfRwjv611Z9P/HPk0As7kJ1sgmI8mXVee8HTPTIke9CRfgVG97iOb4HW3Nv49NZqaunCXQZ3ADfHMRQAEYxCHX4DUzhVRFjRJ4DImJRFgRQmEnFgtbc+AUQfzgGStpQZzs0A+gVc5JqywRzCGPpxvzYBGL+NK5LiV79+A02Uqs6RQV+IY5LXeK45r62yUjb2mFxQET31b1xy4sM4+qcrfXAuv11XRuPLgXdO5UD4oTf3kY+eo188cAo6pje8kJEe6UgbfHDKAHXouRYZK2waOjKe+0Lv9KA/vLGB4EkXvhs/HM34eNYX+7OVNoERfLBPPNzgYPpR7UR/MRYccP6iHvHqOp3o0z30Zlw8t5rKncgtJIZVRp1wwgl5ThTLmZRCJY381JIHGiX9j+LJlmhp3iNDySQljRpUZq4WkrJFianmV9IoZ8zrlEQljfxUOldJJbWIyrKwpJJaRKVzlVRSi6h0rpJKahE15Fwm5o6uTM/cq4/OkHvj72QjOoUeRgZZSqpPdZ0LoD3tuvbaa/MaPcuM/CGzWQIkf+e59NJL8x8LG3Uy7fx135aVvffeO68RG5GJHqwrPPnkk/NyLPotaeSlms7lr/DWhFkAavGjdWseKTeziBIBlMMiVavLOWujUVs7f2m3bIeDGb+3EMewukCwoatGZNLGWki7ni0L6mwm7y6ymsLStWZtXtL/qKZzUaoVz9674BMYOhtpgcgiTuvjRpZobUmOJUrW5VmF0ZFzue6w1MjaRMDt7WS5lJ27eC6pear5d64rrrgib9OwVkvG4SB77bVXXqxqYWSjZKesbQRnn312dlAvTbHA0xYU4LSfyhYTYEXWkln0alGuhaWyp1Xktq94M5It4PqxglqJaSmRBaBWQgA6nq2sR9a5WftnEagFndaqKW2VZBaqWhtnXGvarEezhk//1r51tJLCejb90I01fDvssEMerxaRlR68V8RKcXoIvjibse0mRvixdEqGkxUtm1JByP70Yp2cbKKN+yxudd4fp9mJHmK3gN9Wilh3Sa8WLFsxUo/XIHx6V6CNhvTSEXFG20WMaTGvKkUQkeEtmrVYuLjY2qp/gckf2AVdBxnoxcJetrOtCIb0HWsr7U6wkBp5jyUdGcd45LTa3hpO+KH3iy66KOsMT+ymPbvTBdzghS7xyR3ca5G1viwSd0gM7tGPtYkWOVtAHGs3q1FNDTMIwxEUmCkhVq83QxgW+Xw6CEI44LZ1wX4lWZKQAQSlIEVRdGQ6QlMgPqwyZxhC2WISihFlOSMj6Mc9sUCTYqwUZyjzHk5I2cZwL+P5znAcn+z1iAMYx1by2DZTj8jB0Hj1HaDogMPbx2QlutX3FpdqI0BwJk5kJbetE21tbXk7vAWq5DN+rPoGRLKSRcDiWGQSNBDdOlz3WrZGnEvfggc+GyHBzhQCb7a6AB47sjdQsx/g05VKRoAkqyCHN/Lg13ey2Ism8LAXPZOR7K6T2b1szgkQXekDBjiWPizeNd/nEFbNG4s8dIOHWNysLziFL/Y0jiBLj6ZE+II3n8ZhJwFAu6ady3J/QugE6DpLtiD069cvg8NK53322ScDWGT1yjOZ0HX7gRieEm2+YyhRzrkgCqU8rxgT5QFNNARaTmp3M+B4tYCMC8CyogcpjMu5EEVyMi/v1Aeg2esFlHYo47Mj52qWGNGiXdnOg5mdd945G5uTemDkwY0gY1xGBmp8ABhgMCoQuS6yirqCEL45HT0wMiDLcgCz33775T6Agbza0kdsfWkVcQJ8204jeJDnqKOOyrazfYbMQMxxbLlXfbCBLCXgciag1QeKFe7sKphqa4+gPmATFmQSTmsjJKzpxzVZGo7pAxY5PT5sWqV3uJOZ6UnA9XoCuy44lWwra3FE0yMVElzCGceVzciq72pU07mKyu9MxgrCBAX7dFi8KprJhrKJCAMozovoFAFArnE0CvIdaJRJ1uaJLBxPScWJPPAAGuAUyRiPAYDKOAAtYlKMvoDVviBji05A6buxjOO+ahSOARSiHtAIEvozpn5kIDuuyUPeIDpkQIbwnVE4nOChrMMnx7YtXb+MH69HEOA4F5vYnwUQQBORXL+yjH4FEaCjY7uFOSSZyS4AaSsYub8ICvzTH4ADJwIsNrFlP57U4gkPsn6t7Md+AplPusEDPXMS+gJyjiPYwAZ9CnjAzeZ0UbQBOdmLDQVm5H62p2fycYboX6CiMzoIghnO4n58szddGN80R3s60Z/sJsvinc71a8sQvQf+9MPZ8FCLOu81XSAAZmzGpXQAAUS/Mc8ogCqCUDIDR/SlOMqmmAAdQDnPMQETKGQhivY7Ujwga0NpDKWPSOmUqF+GotxqhG/zGSUpAAIDUOPTawk4tnMMg+eOKLKR7I0/2YoDR0CgCxkpnJR+ANP5uBc4gILDcKpwLIDAC6fwyXHISG46qOTPOfIpR8nhAHrZAODjHPm1074W4ScCH/36dI4c+KBjgYzD6Iu9OAf7siX+i/yxS9hLH5yD3IKTvlU0goIDDtwvWBR51JYz0GHozTl80Is+HcZAxvddEBcw6VDw874Q2A3910s8HRfeLSAGC8ExWY1cB3JttWEkcw+OIZIqAxiQ4NpwNBlAiWEnchAlKQ+jRKAQ/VFkpWL0E0c1Ei1FOTt8ORXQKRH0u+eee+Y+GZujFLNWPXIP55IJycWZGF2AEV19Dz6r8eZ3ADF0SSec0EOWoowxp3GtMuLSi7FtjbGpEymb9t9//7Tbbrvlt2ghoAyQ16Jq+mNPB344gHmzaYGqxRxXVuBAxvc+jSLREacIWfQjuMX7SOwsZvvIZgJTJbkXhop4c66onyJp55oX28RcXeDSt3kl/pX1dmDjuxpV77lBEh2kc5FaNKpFmAyhOAwDSb+yUUzI9eW3yaZa1u9Iu5TCqShQza6WJ6y3N4l8ACg7yVJ4Eek4gXs4lqyiJAo+4miW8KIkwJeDA4QsHB1AjBsOXKTKcTlEgE2fUZZGxvU+Cn0BVtxDNnIAp/tlK9/pUDbDA760cw2/yhf8sZPI7iGJDF7JHz5CPnI4fNdOH8Vz2lXeXyRzFNlI9pRF2FTwMK4+8MbGyO8oNdnLtQiqQcYqYojeojSX/TinYCvLaCf7VfaBKnmuJwNeycGJODIH8nTQnI0T48FUhF5rUZeciyJ4srLI92pEAAeDYMiTHIIzEiegeKWLckMmACzKkaopK1K2Tw5EiSIroZRRoolIClQM6bcUrj+TXo9qOaFzlF0tqnaGgifAk6kaIXqQYR0CCscQlERljur9FfgHPE9pOVeRyExX8bJNnwCGGF/wMa8AMOddB0I6VdJ4KmmiL4g1ogeBA5DYqRkiFydmTwc+4IOd9EcPgifdyVSwICBpg2/BAUbgpRqfznnA4bqAQk94dQ/sKKujj86Se/GjFJZJ4ZS94YwMbM529fTYpbJQnQy4Iq6MUmv7OmUqVRj54IMPzm8lEgU8MQMW5QFAUBbQSvNSLqWp0YukBAM8kVH965VZnvgprbyElBN5LZeyRX+ynkfc7qksC7pCZBYxgQPPjo7I2DKUhwFkln29sJShBI54mAHMIrlsVCSA5JRkFkgcxvcPJTiWvmUpL2EFbkvWonxzr2xIr8VSsx75W9LFF1+cy8hmKB6eyMJ4BFTln7HZT4AUKFQU/p7qQZVMTG42indf1AKvNmQRJLxV2DiAH9UTvSmB62WVjkjA40iCFZ17gk1n7Ewm9vFEnd1qUUNvf5IiAR2YMC7yIswDjGsAU28gShKhHBxBOQAMSgERTR+ir/McFVgYAgGI+5x3jyxIUOeAy98bRH6AZyBRzHnKMY/gWDHB5nDaRaT3HQGAe52XMTvKRgxMDzFmM07LAciBN1GQIZWvAMlwePW43fnoV9aRjb1z0XVRX0lEl4BGfrqUAXxyIJ/0wDahVyDHbyPO5X790lsjRAZvMoYDgdan+wVWNgBUskf25hBk0MbBHnTCbkpFcuKTLbRjZ/fQCTnhJrIJOWFI9iejezkAPWlPT3TtPgRT9GA8/SLYcF0wcRjTbzZ26N85ujQP0z+swUI1Knci9yBRPYOK9Gp7GYnxPH6XjYsPDQ488MD8x0yrVPydCrB6GykB/c2SY3iFNEAGmEdF6tKcq6SukVJI+eLVa94KbL4genOuWtGwpBGHSufqQVKuqOGVG7KROZeyRjlVWbYp/eI/ixQzWm8imcpqCeVn8dH5qEplWVhSSS2iMnOVVFKLqHSukkpqEZXOVVJJLaLSuUoqqUVUOldJJbWISucqqaQWUbtH8bFqILbgW4QZy0IsR7Luz/ISy1ca/TuGPr3kxnIpS/QtWRnV/wZSUusJ3qxst/bQEizY7U5qh3CriS2W5Vz2y9jla2W1BbFWodsoaMGphaCNEMdyWJVtkaX+K/y5x8h6Qos/rX62frKkYUlQZedYSNtb7NYo4dkuA+sybQ/pbmrnXDKVt/5wKoshres9+uij82ZAiys5mev2UTVKjGQrga0UsbGvNxDHEtnIZOlRScMSx7Lu0YJhIB3RnMt+MttP2Nj37qZ2ZaG9WbYriOZWFFuFrQR03nsEZDGLRjkb5+uIYgv8aaedloW03SRWZtuTZB1dpGsrwu2bUUJaEuRlM144AvhWKcsuHEL2s+rZ6mTp3nIg5wDA4tEAgqVFSlD9x5ueioQ3pa+savuAZTtBol68l8P4sTo9Po1rgSrdMJy+bKkRnIyNV9essLcanK5sJ+HIDv3InD69as4KdOfdD9CxmTJK8VihjSebI9lHGw6gH2PZsWDplD6sUNdPrDSnKzKFfX3XP15jJwCdFhcEW/coINrTxF5eJlNceuV+bZRddG5M5b4V+eTFtxXt+NPGKwTwTmYr7clmtTrb6teLX9nPjnOBPBb9xl40+/j0K7CTwXhsCjcOOrdzg8zGlQQshrY1Cc70a7Oj3RTdQe02IVEiRTOW5fQEZACKpDhKcATIOiKKAAhgYGxKBnr92y6tbwrRp+sypv09lO49e7aaM7AtGManxDA60FMiQwGuUtbGvNgDFkYEQEDUZ5E4hX4YqrIe56z2jLkmCDAqB0AB2tgKYWwA4KgCiHGVUmRzDt8MKnDYvMngAE23dMHwPoGBnoyNX+MAj4Bi3aE+Yh8bGf02lvbus+6QLo0DxNpwJo4kuDjnXsGLToxvDxQZ8Ku/onMBK9mMyXFhoEjukdXs6eNc9EkOOucc9IOMz0Ht/8MnfRhbO31ah0i/3utIB/b64SWcy1REcLb+Ej5VQV6XRj42jdKV7jmcPgU+WQt/xtQWDrXXd3dQTediNCuzKYLxGIngsZclgNYRiUo28zEQw3m1mqwkQnk7kY1olAIYgM74soK9NwyFj9izY/GqyEyRNht6f0VsDxcV/eYkNmEyGCd0nhNTsE16+muGAAbILJqVcUVhYKKPtra2/HJPfdut6t0dMrM9SxyDLDbZ2S8EMJzNeYdNkuQR5ckZkX277bbL+qV752wm9ao0OgtQGA9g+/fvn/VEH15dBkBAjQ880KfXqXFomZkNHBYHc2j3RuZRkcSLNhslYNW34CMjeFiFb+c4ikBnfg7kgia7yn4wFS97Fbzw78WnjRI9CiCcz0JhmKAPfQlmtubABSywn2Dtpab9+vXLeukuaudclCOiIBGB8kUd7xHAmMiI8WjTEWkXGxwdIiiQUKhyRVQW0TgeMABTvKeAIziUD8DAsX3HF15EYoZlLMBkMPxzNpmQwjmva3gASm3cw+ic2qffUfIi5SE+GVHmAH5BgoNzLmUewHg5il3OAG3/lWyEN3wxPnmMIXvHrtrgTwCjS98BQEkmO3M2OqcXERr/PrUJEmzIgx98cVZBUbZzXhZQ0mtnXLyK5nRML8pXetXe+PgHUH1wUAClE2OThUNq5x+n04X+ORJd0p/fsfFTv3SkLzrUhvOyG6eOwK1y0TdH1H+8FKdRIgf5jAsL8EQPeNcv2fAAa9ppQzfdSTWfhwOJkkD0Ue/6FGlFYCCnnM4SZyCs3amMrpwDRoZlLEADmiCA49A+w/mVHMDiHs6jLFEychC1u7JBBDOPYYgAMWDJBF4UKnIa2xwlXjXt8CIX2QpvyiHyMpSxHcooYxtXn4DMMQCPcc0xRVGRHU8MDXCci97IDswcN0CiT6UMkNg4qcwEOvJFH0Hu1959xeyuTw5HVv0q6xFbItdkD04jYMr0sis5gVS2B0z8Czbmu3QY78FQadCPp76ALHAIBBxGZqUbtlUy9+nTJ+MFL2zqOj1GG87mOhKEYot+NaK3IpFXv/rgPPimV5jQP9tV3tMTVPPFDwRmYGUFxVMWx2LA4UGAJUNRPGPKBoAl+gMrMBejdaWygM1B0YiC8enNUIAepI25GSdhCA9ogFiJYGyZUvBQ3kVZJJIDAEMhYxfH1ydAasOQsrryD+9A735RGphlNxT3Az1e3Yv0JTNxbg6vdAVCWQAg6UIZWiQy4y1kD/Jbv5Xng2QSrwoDfk7LyRyCiXsGDhyYA9tOO+2Uy2BBR+ahH/ZSyuJfYMFbyFE5Hp2YSiCfdIWK7UIfrtEBct1R1LfrjqL+kaAS9qmkyrY9Re0yl3IkIrlyTQYBRgfwiJBBog3luade5AmlIRGcskQa4BNt3B//WEH5JyJRXpByTkZwPUpVpY6yj5GBhvP4zfj6BW78MoBAISKr0QUHkTb+KYG2IjxAO+dQ5sT4xpIVOT4Z8Q9weKIb5zgpXdEN55BljRMOEGBx+F0EBV3gL/rkmCbuSkYBRv+V4Crqs5JqnUdKPZmbbOaByl92ZQvnZSLOQid4IAsnF5TwZS5IP5xT9UDnqgn8qzyCT7J4aCJwCZBspG/tOJI2SmXZ0D2hK7bzKRi6j631xXZF+VE9HQRFmwiG3U3tnAuACW2CrsQyYaRUAHSN4ICGWQogOMUCdjUiHINRnHuUmu5zTp8iPSPJkvr1hiBRskgcyR+0gZiRlGMiLqVxinAk7TwdYhA8aSdIeMOQMqhSwQwp+hqvVpmrH+WdBxj69xtoOB2g6QPf5JE5nQNOAUN2CMNyymrkmn6VfpyVU8niMhYAAmSUqJUAa5Y8dfMCGaUw4BrHRN8n+fHgCCKTgMTJlWGVYBaEHKFztnWYY3nKq+QkP0dlNyW6657oCVhsDhf0FhlRgBIEyO0effiNl2aJbQQSPMCn4FXLDq2gdmUhAKurZQrGPfzww4fW8EimAYC+ffvmaAe8nASolGTViFEAhxG8Ws2TIU+0ZCjn3ctZRDDZhJKLRDH48oQwsiWjepggKsYjW69W086r1YAlor5SUElL2UWA6EMJaUxOXo1EaPdwUMAESn0CpBKLDPQDIOYiykD8GIsDxrwHqKoZlvHp03VzrcGDB+dxjOEaUAlqdOD+rjhYPLYWqDgA2fRnLCW6jCTQBQk6dCNzsX9k8yDtEdByWOV9EH3KjHSMd2MIdl5cY8wY198yteNUcEBn5sQedODFwTnMMwODjRL+BSkkkwqMAwYMyJVLd1C7V6sxJEMDrckv5qR+IHFQNIUBF5DLQgTXXulQiwA9nDTmI7KG+YYIry/KlbnCiKIooFGuv/MAgz6Mp5yRUTmk8/rCH2AznGjLMEpGBlTeuLdI2roH38VyF+HHRF6URYKAcTm+kkr56nA/fjmzMfHiHL3Jpu4DavIag9NxSLLSK8d1b8iMZ+0csrL7ySg46IMugIYN8EEmIGUH45FTAIxMLKsCuocHeMcfB3OfMfCqH4+t2ZQMQXjSXn94rsxcdK4fMtGlQOB+uFFSkhuf+HVvBEF8kElAYkc8uwYb+CGPNsakA9gyF/QAjH6Mp41zApNx/Q6HZU+2wZtrghLbuRdf9N4d1GPv0AASDueJnSgFjDJf8W8tIqK/kVHSsccem5XCoN1BohzeRFvAMJkH9JJKapSaL2SHA3EqJeWgQYPy416RRWQWwUoqaWShHnEuJBtI78oG5YP6XclZJGWCUkBJI2Np312kTFHemHM4ZM+SSmqGeqwsNGxM8MPRKmt6FG1qXW8lRR2P1O7dPX5JIzaV7y0sqaSWUEr/ASk6Re01VJhyAAAAAElFTkSuQmCC;" vertex="1" parent="1">
          <mxGeometry x="351.25" y="260" width="102.5" height="32.89" as="geometry" />
        </mxCell>
        <mxCell id="yEgj6qXWK7Eluj3ogHR2-80" value="" style="shape=image;verticalLabelPosition=bottom;labelBackgroundColor=default;verticalAlign=top;aspect=fixed;imageAspect=0;image=data:image/png,iVBORw0KGgoAAAANSUhEUgAAALkAAABXCAYAAABY4+SuAAAAAXNSR0IArs4c6QAAAARnQU1BAACxjwv8YQUAAAAJcEhZcwAADsMAAA7DAcdvqGQAACGFSURBVHhe7d1ljGRFFwbg2l34cHd3d3d3d4fghARJIPADW+AHwSEEd1lsF3d3d3d3Wdydb58KZ3P30tPTM9vT9Mzek9x0T/eVulXvec97TtXt6ff3MEuVVdaHrf8/r5VV1mftP2Nyl41LF9+zek3q169fh6/xvrLKitZykP/111/pjz/+SJ9++mn66KOP8usXX3yRvvzyy/Ttt9+mH374If3000/p119/zfvZv3///mn00UdPY4wxRhp77LHTeOONlyaYYII06aSTpskmmyxNOeWUaZpppsnvRxtttArslY1gLQH5zz//nIH81Vdf5c37b775Jn333XcZ1D/++GPe55dffkm//fZb+v3334cDXPOAFtABOMA+5phjZsCPM844adxxx03jjz9+mnDCCTPwJ5lkkjTxxBPnV/tWNmpbS0D+4Ycfpoceeig9/vjj6amnnkrPPvtsZt7ZZ589zTLLLGn66afPf08xxRQZnMA61lhjpf/9739pwIABGfDAj+E5B9b/7LPP8nnfe++99Pbbb6dXX301R4IFF1wwLbroommJJZZIyyyzTAZ9ZaO2NR3kTgeQpMjzzz+fXn755QxIn2NbUsOGZW0+w8Q2wMa8NuC2YXGMHjKHjLEBvAjw/fff54gA+Lb42/dsuummS3PPPXeaf/750+STT54dp7JRy5oKcgAjRT744IPMrq+99lp6991383czzzxzmmuuufI222yzZalBfjTLOAAmf+ONN9Irr7ySN21wnZlmmilHDa9Az7l8XtmoYU0F+UsvvZTuuOOOdNNNN2V9Pd9882XJ4BW4sChNDdw0djPNbdjoeRuNz9meeeaZ9Oijj+aoMtVUU6W11147rbrqqtnpKhs1bKRBjr1VSOjtN998M33++edZjgA11p5hhhmyTCBHWln1IG+ibaIJ2fTJJ59kiTP11FOnOeecMy222GKZ1SWvlfVd6zbI//zzz6x9X3/99ZxIPvHEE1kySCBXXnnlNM888+TSXiPmXJFcRmXFZ4DKOIeNRhcFRARboxHBuYAdq99zzz05R1CCXHzxxbNWJ2PkBs2OLpW1h3Ub5ABOBlx99dXp/vvvT6uvvnpaaaWV0pJLLpmZUYmvUc2tjPj1118Pr5l7H7VyQAduyajzqr5EbTyqMJ2ZW+Q4JJR2P/jgg+muu+5Kt99+e9pss83Seuutl6sxVbmxb1q3QP7WW29ljQssQIMVAZz2Vg6sZ7Ty0KFD08cff5wrMFhVWZCMwKRRE2fkhURSVCArNLW4kUATTTRRBjwJYuMA9SoojpOQBquLHuRUMXeorG9Zl0BOSqhg3Hvvvem+++7LdeqllloqbbDBBhkcHVUsHBclPwDnJPS71/fffz9/B9gSQyAFXKz95JNPpmuvvTZtu+22aY455sjHKxM6BwdwDP1P96u3zzrrrPkV28dEkShQy9yH9l9++eW5xj7ttNPmaCQSkS4dHVdZ77MugRywbrnlljyhQ2JsvPHGad55580MKtR3pGnJEMeQNzQ8UHMKFQ4AxcSAGdUXALNdeuml6dBDD02nnnpqBmBo96igRETgKBxG0ku+aBOwLrLIItlhaplzkUMqMJzpmmuuyW2i01VgRKfK+oY1DPII8XfeeWcGAAmx4oor5lnKWvIgWJesUS83M8kwLLYGKBsHIUVIj7Jdf/316cQTT0x77713Wn755fN+RcPGrkH2ACtmBnzaWz4w44wz5okgm2PlCWUDdG0TnbRTd6y22mrZUbSvst5vAw4bZv+8r2kYD2gklyQKtqS/N9lkk8yS5eQSSOhugOMUgwcPzo4BSNh1ww03TOuuu26uagCR5LEjDe26ooPvMbvKTdGAVhtEA3p6gQUWyA5ECok4HEzOQNJwLixfbq+/tQGotfnFF1/MeYJjSBjXbWXps7LmW6cgx5Rq4HfffXeufGy55Za5vkxe1JInZMQDDzyQbrjhhnTFFVdkgGJ+zL7GGmukpZdeOoOzEeCQLvQxwJIlyy23XN3jABI4SaLnnnsu18I5nPYAu7bUSoyjPAnsdLx1NhheO0WAqurSu60uyOlus5jYWBVC2BfKJYi1yoOY8LHHHssbh1C14BAkje9M55MnjdakRQUa/Oabb84RhVauB3LML2KY+CFltFW0cB4gNzkEvIBsC3NOG8kE0KKVPIIEEiV83lG0qaz9rS7SDPTTTz+dkzKr+VRRJInlAQciACMPLrroohzygeOQQw5Ju+66a1pllVWyY9DOvuMwjRiAY2IO1QjIOOUjjzySAW414lprrZV23nnntM8++2RGlvxeeOGFWXvXagOAa/cWW2yRr3njjTfme+KwlfVeq8vkJIfZTElmJGOAUGZTLEmamPXE0Ouvv/7wpJTkYJhT5UI0aJTJVWGwKnA6xpqTekwOmK5Jkkg6ba5LiwMvKaMSI6pgdWXJcjvIFvo9Zlvt73hLFCrrnVYT5ADwzjvvZB2OHddZZ52cKErqyiADGGxPx/qOPFl22WXzVDnQAVHoXeDDqI0AnGmHsiX2jwmnzkDuOjY5A1BHFBCJgFV00GYPb3BYnxWli7b5nB7noJjcOUSw+Kyy3mU10Uam3HrrrTlMq2hg5Y7KaQA+aNCg7Azq0tttt12uShQNiGJ9SFcspuI5CaDWA3jRXI8zlQEpJ9hxxx1zRFJBOeOMM/KS3FpmUsksqLyCU3B4jlFZ77N/gVxipiZ+3XXX5dCvolFLD5MoSoPKhJhOUggUzbSiJseuzTAOI0fguHS5JFn1xX2XTSQgkTC4Co+cotF8orL2sRFALoFUqrM0FWvRsfR4mRFpZZUH7Gbyhc5eeOGF8/7NtKjRh+RohokGpv8XWmihrLPdqzU4opdrFU1EsB+pIqpxfhGgXUy5luOZseWE7gUptINpmzVJ+tb8imQ/lj5TCYjFZ4isp20EkAMV+aEMR1sDgXBd1tCSQVrVAidJ2lZbbZWB0GzranWlK0Y+7bTTTnkwDALdb06gaJxbVYgT6wulSSXVdjF9Ixc6/vjj0y677JJXVbZLJQgRWmpx+OGHpwMOOCBdddVVwx1SxU3lzQrWMrH0hI2AXhUFkyjYSkinx2sliSQKbxTOsXdnK/+6a0VN3iy5EkaCkGNRR1cmxSxlc//W2JitNZPakYb/LyzmEfSRyTbvfdYOhiAUACzgU4jw+KH5Bm3UVg5K+rWivcOrKy6KoZUNXVitGAiK4MV6ZMxtt92Wp/kldzE1z4CxmdUHoQ3w6GVtUeFpNPnsyNybJNm9iliW8qrgALCSI4bnUEXndk+iicjlvRq8v22Nmr6LqpWN9FGejKXGzuXcrmvGVntEFp+Jlkx7rZgkEZnvtF+EcT6S0b7OSU5idX0X50Zivovrkzf281nsZwy1QT85XtKtLfb1Xr85j/PZ3+eub19S1/m8Oh/suJZXOEGaziHfUy2jEowrhtcX7ouasH/0v36DA/ceq1a1V07o+sV9O7LhIHchEykaqdS35ppr5vJaEVQGQ6Kmdu5mXcRF1bExo+pJR6v+umPApwN1ODkkPxhZkDOO41nU008/PXesc+pMzuqeyxNe3rtXADMIgMDBRbJGzQSV488///w8IXXxxRfnySZyA4gMtojIwY477rhc+XnhhReyXFLpYSbajj766CwpsaJqUYCcYwAOOeX8nrMVcZFX/BYN5hSBL7jggnwucxvaYHUodtWGmPXVH4iMzDjrrLPyK91PbugPbbXvOeeck4488sh8LX2KJL2KLtruWG2CDQTCGYDcNbTNPV555ZVZurgvgOUMgT39Zsb7sssuy9fSXjjlXO5LOzhcPVwMdwGgdQM6Q2ip5SEuKJEw4Grn1nmrPsRvpzQT4KwoV4qgG1lzj9osMrgPUcu6Gp1unY7XoukHDEmb63z9xOG7YsBIMxtIzmGBm+XDooe+Ry5eOTSW8h6TFzVrRCBAoXmLhl05rH4yJmSkqEuGPfzwwznn0G7jxyHcCyKzrwTbsZzNvXuvHwCKfOX0fstGwo7UPFVls6+2+gzxcSJ96ikr96VNnEe7Mbu/w9ybzwFaBLLOCFtTCZzA02HOq7ih3+xPMqr2iQDuxedIF/HUs4xiHavzDADPwBBlz9BI+/A8jKFkaEWhVxfmGD0Bch0ZYakZ5r50klWLBhnIbd4DM82tg8ulQtcHDGAXueyj3xo1IRejCdfOIbE3A2zWFejDobtr7ksbjQOnlVNxZiwNEEBOogCycA9cKkcAiaCCWQFGWzmGKMOZPbPLKY21/ERbQ1owr8BufkRfWv7RmbTUvwhDH3j8kLNpv4KGaMNBtRfIORyCRUzuT1Qgg1RozLJ3CnIDJTQBsAuYKXSycgPduBAB7Dyb52kkraWhgN9sC5A3O/HkNIAOaJwayEwQCX+YBxCwZdECQFgPu2EW7WvU9CsQYDODc9RRR2WWdR2TaJYJA1s9YBirjhxLyDZPAZDGRpTwt74jRY0f+UCSueYll1ySwz8JQmoCZYyje4MFTIuROc0KK6yQl2uQS+SJylRM7ukbOMDICI/zuFY942TuWRsxtLEQLYyzqMZpvGoHR0MQ5513XpZxnEAki/sqRoha1t8OtK+kKLSbgSx3tgsKJwbCSkIAx3waBSQ6s9nGQ5vN5My9AYV2e9V27Gqg6FKaXZ8UzTEGFVj1EaZBDI0asFj/AzCqDcCEnUQO2lf4N6ABYq/uvwhqfyOkWkA3FsbNPRkbUVV7tdsx+pCEwcZbb711BrX9gMR16WgPqbgnLAvgnNj4ul/tdW5Ooq/0W7TDuX3vO6+NrNp0TORxzusYr+7D9eESoSId1+IQO+ywQ9p+++3zors999wz7bbbbjkCOFc96+9GABiY1IJ1Tq2D6COh1j5A3grTtp7Q5B0ZENho1log1y+YnzbFLqoIjZp+JU3MtJIS2EtEFPYlVp5lJS0MroFmxgRjARyn8toRyB1HQtnPMd5jQ/sCExDZsKyHVoAD0AFLvkB/XzQsGTXG4fTaoQ3kjfNxAEmuSKaPQtLZj8MAY6NmXBGrftRO92bTXo7lXMbceW0qWrvvvnsGN5CTyiSUSNApyLFDlHwMno6oZfbh9fbBdq2wkCtuohUgF0JJCnqvI5bGVKoEWNjgN2oSpJNPPjmddtppWQ7Rwlgd6AEKeI0BM6iAA3DARFNjWSEbsGqB3OciglAOhBxHkml83ZN2+164P/fcc/Pnatibb755ZknfA57PMTdQYVllO9UaSZ5zehzxhBNOSEOGDMmgDEMCtkYNiajISDQ9esjB6Wv9QPdzPmRKenFgzqViJE9wbY9EHnvssfl4x9SzLFeiTorFdHjR3LSQgSEATkhvdoLZkbm2jm8VyMk17ArAmAsj6p+i6XygMcBl3V7PkId+cz+Y0yyrUlgkgfSoxBZQREuJMaBzDgBXfgRkYKwlDR2HARGRchzgGDNPYjm3fAI56Uf3pxoCMJJo44q8rPIEcH3gOJs2cw4VD5KG4wE/+dUV5i4baWNcSSVAlWC6Pw4nn3BduaGII2dBeJxMuVF7sL++EFkj8nVkmcmFTCAH4DLIeYkBB3Qnc9KO2L7ZVmRyA9gVpuiO6TSDzIBYKNWGogE5UIbjN2oqVsqUGNK5gUadGlOSEKoSQOUegdLgYjR5EGfQDteNpRbB9l4BAus5j/YBuOPcC6bG2OYYSCThHaDlHZhRXVsfu6aSMAcGckkoWeOcElGsyzm1ga6XhMKB62mPXIUsCtM2TqANyMO+xtE+9tcPWJpkUbHTHhFSHzm3e4q/9Y12yV9EJ1HWfXgoxj11lg/2Gwbgv60j0ChrUHi8BocZaCFTiMAA1iK0SpNjJNk8LaZqINL0tJEEAwcOzHpVZ0dFJQxTCp0mc5CC/mjEkAXHcDwWAiyGWZ0fsLCbvw08B7Kv4wyiQcd0yAhYsDKwAKBBt3/ISO9JGg4AYMbTNUQlhGZzjXBg17RPEBhwOt5+zo/k7AsjQKqtwOs9aUd6OL+KSrTB/iIhaea9c2uvz0Ql+7uuNukL+zif4+2rDRze/UdOoM1I2XHaCYcdRbai9Rt2E397PMxBXt2A92EuQCvxIGafuJGeNo51xBFHpP322y8zW2dlqWYYh6Y5XQuzKm0BXxhHN7DHHHNM3sfiqMra23KdHMPwJINZ1lnYgzdjD2zSmdc003gtL3dN3tsKixDLsIc2FI1swh76BStV1v6WQS4ZEjbocWAumkGmIYWqKCu1yjheaPJWgZxDhTwB4jLItYUM0LaohlTW3jZg//33P0zGKoFQezTIxQSPvqNTJTI0ItYXsg1yLadoptG+ZgfpSrmBJE3yQ+eZ8rWRDtqmjq/ebxbMFiVPFRAamN7ryFFoPYmPioNqhuUNnB6jS46K8o3RifIFrL7RRhv982ll7Wr9hiUtf5sBM5Opflo2wLICzaDS5hxAEmhwFeMlEz1hIozsn/YFZNEEUAErNqAt/l3rMxJMgiJDV/aqZQBuIsQUtxqza8evhPm9R3lK0Tj5Nttsk88tAa2svS2DPEpHZ5555r+YHFuajZMRYzCTGEpQnMIGeD1larKiCG1MtgAfhm1ki31FGhraAiztrWWYnjOLAF6xOQCr2YpuxUTbOUUV08tyFM5RWXtbv6FDh/5tTYBKwUknnZTZr5hcWpSFUZWpyAYMViwxtsI4V3c3oMTuFg8pTXVmZI/FSxJLTiECFKMVmUYCKWvqB4uGKmtv64+1AVtCiS3LiVYkYj6vNQPYCotkLxZIYVaTEuSHqBIzhIBsEsNEgelyZUezZ95HxaQzc5/yDua+iw7P/otkuLKRswxyiZXBJAswWNEMJIAYfGH6vwC5NsbGGW3aawM2m9KfTXtjK2rzRqtCQKxkykiWMshVVMgb548qTGXtbcPGvn9mSEAxuLVALlwL/cI0EPRlc/9m+hh5Vp43UG5VceI45apLXzb9olpliYE8ySQhLIju3ptEI2nb0TKTxySQxhrEokks6XUg931ZzvQ1M5ixhFZVpQxyg8oJQj6NKqai5EFuD0uoeHlPtknWLTbzvKwFX+1o/YVjCRnGjnXlRfM5HawmDuAGWDmvLxoZElIFS3N+Ea5o7p0T+L5Rnd8XjLPDgdzHwinvYQerW0Wo9NqVVZmttAEHH3zwYbyRHtdISVyxZEbOALoJEkxuZZzSWV9kMf2gVGqzvFO5VKQrmhKjtc/KkvHMYbNMFOVknAiZiJ5eLYAyNghITmAfY0E+GDeywRhpq9JpSEvfx7H2E4WMJ8Da1/lIL+TGwZ3beW2ua3/nixleDu7aEn5RDgGYW1B9cx7zEbGSlQM4n/M4n3vSDnmd62qH47XDeX2nsiVimJzTbtf3vf3s310bMHDgwMPcoJNa8mhBkoaWTSkxEk9atVUrEVtpHvbFTMwSU0/ylE0fWfvsO7OhqjzNMpNe1o6fffbZ+Ukdg20SzoSThyE4ITB4b5mufxxGIqgGAZ48ARjtY27DcX5+wjpsWhqIJMtyLCCko53LgxAm+hznv+ENGTIkL8E1kwxcHBlG7HPKKadkJwJg/UW26DNtNRPtfSz5hSmz6drhwQvX8lCy+Q8kAUcAbKbZ864Wxvneee1vjobDhJLormW5AtS8FYMFM5RNzdh+9gnN2tfMoHJmg1pe8YjRAkAGk5RptqMDjuTN+fUzUAICeQAYnAtQMKH2WXpsX0/Wm8DCpiINUJEQ7sV+UTiwzhx4vXIM53E9M76A5VhOGw+FcAxOZB+sahMdXId0FfFF9ZiJdizHB0hrv803+FFYeHFOsth1PWWkHc4tB3ItDuGeHWf/IFLnL+dFXbUMciejMd2AcBRhqmgADug6ToNiUZeB4cW1HKNdTbt1rnYbfANmwIVtobUjkEe4FoJ1fk8taWAhEy0v2HTTTbNTAbQneYDezzj4b9KYEDhIKGC03scElYjjGPtYmmB9PEcBfvKCLCiOsX4gDTyI4NwilcjhyR2vMFE0ctWchP3kJvrDA9qeSfAeOw8aNCi3jTP4X1OWgtjf+iPRhQPo96K5b8ztgQ0PfnvYZGRYnOXqio7SEB1hEHl0GeQ0WITE8DpAF1LiUavyMe1q2o0ltdu9ADsmw9I6VMdikqJxCoxnsPWTgR1Zhqlnzu9nIOJJIOMDtNoVP99gIkwEBlD3gAHdl1eO6oFp5zApZvOEEIfGlqSn48IQmH8jKefiRH6iA5Dj3GUS44DaQnYEk2uj6EINaAcsOU+xHdY9aQdG159BNGHabQkGh3F/MYczMpbVPO8RSswYGmieVgasG9HZnkPEAjyRXoxfheLtMVPYzua+6Ev614Mgwr/Q6dVACreYxKAVDcixpHuMf4KLIHrKXB+xBIhi44QcQBvpXgBwT4CCFTmhV+AAOuPq1dg5Lu7f/sWJPfuLXs7pPYfixPYp78tgRnvs471Nm7XP/tohymt/XN/9eK/tnC2cp4g133EU+2tLJKcjY8NTVifFDgHy8sWZBvvxGI0HcAu6gBwbkjo6rzdYaED3KUGTnEn0DJIQjB2LZoABB8i96icg70kDGgD2apAj4kZlpLjFONnfPl6Nn4hlrOLVZv8Apvdhjolzs+L3ZRyULdoAuADuWO3w6u9iO+J9sR1FEyH0f/nzkbHhZ+JhHvfSKBKEPi0zc+gwCYZGYgm6aY899sgDzwvb3bQbYwmbBx10UL7nWJsjTKsMlEGOcfSHfgEGx/Q0yLtqQGEMI8FTOfGDRSZqvEpaJZKARUIEU4+sBRgxN5krFxAJtMM1/F1sh2qMJNk+oia2LrejmQBnw88mzEhAAQBzSXBoqqLxMh1JJ9qEcICgnYRC4as3GFC7T9ILaLEQnU0PAojPiiZK0ezuXx8Ju+12r5zXWMgnJI7ugy72qwDKksp/wERqSWZF5WaAyXViCbM8DZixNQB70t51JMxKhNohkdX/8bvl2qztYcX3zbIR7tJNW0NtEHkdnV0rVGE7N6DKgN0kGiJAbzIhkzTTfu9VIAxM2dw//Y59TP7U2qdZZoBDNpS1aEgVW3zuNT4LmYKl99133wxkbQ9wkWYSVtUWP8gpKsf1OK/X4nlhIc7rfXHfuBaTqHIcjCx6kK/61U9O7LXXXhnIQD/kn9q7iEjy+qkMlRxk4fzO53rRjmhLM6zfsI4YjmIMbkD9iAy97Se5lHJ4a9HryRjgUI/1XpjXeeHRvcHoaxMVWBo7WyfPuYtSheNyZBMkGNFv7xm0nvppDDkNEKiOAJPoIqxHPkA2yRtisoVE4HwiqjHihFjS/lhcSdE5AcZ9kVhkhKoIMKmwyE2UhUViERn4gTIIDPBEbe1BZpjYvlFPd359qN3yAO3V7miHuQeg13bXpBi0Q0mavPWZdkZlCIbch/181wwbAeQMq9FNfgrCOmzalQYtVxvcHI1n0xkeFVOdqTVb2k7mdg2qdnusD7sJnX6kpnyPqkgmWkQ1LHXggQfmezTglfUe+5coM9CY2WNfJkY8SIwpysbj1T2FJRHABEO7rkIrmgQzEiD3an2K8FkGOOPI8V8ThFbsVQG891nN/8hsICWYEgahSKgTPgC7aCSMsBRJjrAjNAlDxX2V7Hwv/LQiYRMahVb3UQx57ocuFHIlRCSW5FPoL5voZB2FBFwY9xgcOSN8V9a7rCbIsRrg0lO0Ep0OuAa5nBBFsR+4gRw4OAWAcQyO4HNhn1RwbkBvZmIRJuJwSm2gEWlP7cDEJIpfh5X9c0yyAzuXHRfT07qikhlR90vSYPsK4L3TaoI8DBgkJ1bFSTbIGKAoJwSAG1UHzGclGj2rnAUYGNQ/hBL+gUbY7wnAYG9SJP4vjh+55HCSK4uFOBrzk8lyDQ5QdjYOwbkHDx6cHcKaC5q93erilTVudUEOBCymitXNrV8BnCLQAcW+PhcBMKoIILkjUwBOdYD+NZkEMMVqTbNMOzgc1rbUwDW8WvNMwsQvyyqzaUMZ4JJuAFfushZHVcGD0JLp6IvKep/VBTnAAC5AkCxkABArE9GxZZCQLtheKQl7Yk7yweo3LG4BkETVecvH1jLAlPxi/UaYH6hJJBM35IbjzcJxNKxOclgspP1FI6NsJI5IJNnkzH6imGYvS5rKepfVBTmjn9WRsZzaqbosGYMVgaoMVp/R7kBi4xg2wCdTaHvSp5EaKLCazHD98qrAWibimHUzu+eVY0ka1cBVgkiqWs6iOiT6xA/Na6fJFD9t4V4bccjK2tc6BTnQCtXY10aGAA/pArCcoJZ0wai+B06gx/ImjuhzSz3NpjoPgDm+lhxQ3bAmmcThMGVzvPY4H2kkUZRcquaYiRM5sLfooQ3aVDbOS94ogVr66X44hAkNUasCeO+3f00G1TOAAgY6F2sqwdG3AASkHKKWkS7AR74AkuTOrCGWJW8wNXbHsjFl7FySRf8gwJPgtDSHEBFsMRvJWUQK09akEZACqGSx3qIxVRTs7XhtM/uJwTmUWV5OWVnfsC6BHChUMFQdTBIBr9lQoDDFW4spmeOwOI0cZUYaH4PS65JawLZoCvNbvUYmYHJLev3uoCdKOJaEELgBmskNXBvTY28bYPuc9uY0tUwUcG3PSooEHBWDS44d34icqqx3WJdAHkZy+B8ySnUAioU9+SG562xa3/6ALsnDohxFmRKAARKD28gEkUNlRrQAfk3F5ljYBsQACaCui4mti69XCXEOzuUnFMgb0sa56W+L03rT+pvKGrNugZypg8f6D8xuRlDlgkxQkaHfG2VDQBMhAB5Le4/5RQBgdh7nw+4cilbG+hi/o+hRNhKH/nZe7ZVgkl5q5v43kHa7RmV9z7oNcqABdFUMD63aABKjWtil9GYmtBFzHI0NhF5tPtM0G1bH7sAe5USADP3emTkXeYO9/Xs8ziQKWM0nKbXqjQbvKKeorHdbt0EeRtsCjafF1aQxsbq6xNJkCtBj3laX4sgaEUKd3QRPVHQ4JnmjnGjlIamibZX1XRtpkBfNo07xmxqkBqZUxlPtAHYMjHltPQF4wI4KjApOTO5gb5EGuD01YxYTe1c2alhTQY7VMacZxpgEUsEAaFUP7KlKonRISzciNRo1wHZ9STEJpVSpgkPWqL64pgqMxFJyWrH3qGNNBTlzOiyORWlg7K6aQu9KFEkZ+lcCGaU+gLOpcQOl6khUWjiIc9LVNrrdhqklkSSJ0qTJKeVFckTiCvBYXQRRnYnH+upVXirrm9Z0kNcygFdutCTAlLvyI/BhdssD6Hd/S1SjTq5CE2CPyogyIwBb1hsRA1vHLKpSJIlkaSy97VE1+UBlo7a1BOTAKSHFtgDqPabFwr5TO7dFdQWobZg4LLR8sbqC+ckeUUC1RIQAalGCs3hflQUrawnIixaJoYmemAwCeuDHxIBPhgB8AJ1sCWADtFWBAA3I9LWaOd3tvf1aWcWprP2t5SAPA97YNMHmPYu/ywa85S10u1dbZZWV7T8DeWWVtcoq6qusz1sF8sr6vFUgr6yPW0r/BxmSIBOxUrLcAAAAAElFTkSuQmCC;" vertex="1" parent="1">
          <mxGeometry x="667.5" y="225.31" width="105" height="49.38" as="geometry" />
        </mxCell>
        <mxCell id="yEgj6qXWK7Eluj3ogHR2-81" value="" style="shape=image;verticalLabelPosition=bottom;labelBackgroundColor=default;verticalAlign=top;aspect=fixed;imageAspect=0;image=data:image/png,iVBORw0KGgoAAAANSUhEUgAAARUAAABbCAYAAABdyxFKAAAAAXNSR0IArs4c6QAAAARnQU1BAACxjwv8YQUAAAAJcEhZcwAADsMAAA7DAcdvqGQAADAbSURBVHhe7d0JvG5j9QfwbShFSgNSotBIUlRKZSgKiUiZUleUIXyEyBgaFD7mKUO6V+GGlGhSoUKjVBSNqGgO0dz/33f977r/fd7znnPec+6+9+O9d/0+n/05593v3s+znvWs9VvrefZ+nneh//kvmkKhUOgIC8/6WygUCp2gSKVQKHSKEcOfv/zlL82vf/3r5vvf/36z0korxbHkkks2Cy+8cOOyf/7zn81PfvKT5uc//3mz8sorN49//OObpZZaatbdhQUdbOSvf/1r85vf/Kb5xS9+0dx7773xmd2wocc85jHN05/+9GbppZcOuyrMn1jk3f/FrP+bu+66q/nSl77UHHLIIc2iiy7arLjiis2jHvWo+P/f//53c9999zUXX3xxc8opp4RRPPaxj22WWWaZWXcXFnT85z//aX772982X/va15oPf/jDYSszZ85sPv7xjzef+cxnmh//+MfNsssuG3bz6Ec/etZdhfkNIzKV+++/v7nlllvCEH7/+983T3ziE5udd965WW655Zo//vGPYSQ//elPm0UWWaTZeuutm2c+85lBOoUCyHTPPffc5pe//GUEG5nJwx/+8GahhRaKwIRIVllllSCVRzziEbPuKsxvGPX05w9/+EPzve99r7n00kvDOLbffvtm+eWXj1T2Yx/7WKSu6623XvPCF74wshWGZDj0wAMPhAEpTsSS8iIlxrX44ovHeaR1++23R8bj+0yL3feUpzwljBBh3XjjjXH9qquu2iy22GJxDsj15z//uVljjTXiPuX87Gc/i2GY4RiQn9xI8HGPe1yz2mqrRTruvr/97W/Nk570pDBq+N3vfhfX/eMf/wg5l1hiieY73/lOGP/Tnva05iEPeUjc86c//SmGfWQhE3n/9a9/xb3Kvueee6I8MilDHY985CObhz3sYXG+F9qmbvf+6le/iva5F8ji3uc+97nhjOr40Y9+FLoij3udf+hDHxoOShZ6UJ76nvGMZ0RZ+uDvf/97yE2+pz71qZFFuM4QhA7Uq+/0of+f/OQn9w0S6tb/+k4f+gzkpGP6RxrKlvjS9Utf+tKog42QVYaif9mCNpOFDtVH92xlLH2xLXq4++67Q1bQRvXTNYKiF9+TT1tWWGGFkPnOO++MLFvfkYWMylB3lkN2sjrISDZl0R89Ks935HSAcm+66aZom+/Btfpfhs+GnFcWm1SfvlkQyHQUqfhIOTNmzGg+//nPR4dQEGMwPHrlK18ZRKMjZDO33XZb86EPfai54447mic84Qlxv87QoVtttVXz8pe/PIxVOQz8Ix/5SNxD0TpXOe7bbbfdmhe84AXhJG9729tChve///1htOqG/fbbLwjnhBNOiOtkVWeccUaz8cYbN3vuuWdcc91110W6ff311zfrrLNOc8wxx0Tq7T7yk/3FL35xXPvlL385rkMaG264Ycip7uc///nN/vvvHwbPuL7xjW80J554YhjU+973vsjcGO/Xv/715rOf/WzMQZGXUyDH7bbbrnn2s58djtQPDOzaa68NuS655JJoH+NUBod81rOeFe2iG/K9973vDRn1A4dOJ9hrr73CGenzi1/8Ysh18MEHhxzIkCOS+7vf/W6z7777NldddVVz9dVXNwcccEDzohe9KOo966yzYlji/5122qlZffXVZ0n5/0BK2jh9+vQgcTICgkUem266aTgsGzj++OOD1AUi5ZKbcwlEa621VuhYwPrCF74Q5QoQG220UdjKWPpCZqnrW2+9NfSk/2XKdI0k2dcVV1wRJEmXb3rTm5qbb765+ehHPxqkpGzXXXPNNSEX+wTXIic2wV7YIF0qCwEheURBX2yEPcOFF14YNtfOxlyL6NWtrfpBWV/5ylfC1g899NAg9/kdi876OxuUwwjWXnvt6DxDIUbCYF/96lfHeREzwUGwsc7h3AyfchkCA+R8hlA6iEHAy172slCu6374wx9G5zs4MSNzXt09fBd1tb9jSD4771CHcpAAmTKius7/eW/Ceff5Lst0jc/5P/k4geiK4JxHpgjy05/+dGQ0G2ywQeiEoar3sssuCyPafPPNQ5/9oGyT3Ouuu260WbRn/PSNlNXjAFGWzpRHZk7Bycmm/Oc85znhpPrJRLuyZC8IyfcITuRec801w5HNmyFYE/HK0Gevec1rgtz7wRzJDTfcEMThOkSWukHi7kcW5KYnekB6yJnDuvZb3/pWyKPN66+/fujtq1/9ajikPsi2tqFPBB8ZweWXXx7Z26te9aqwNcQm0zv//PObLbbYInSQfUkOAYcNImAyc3b2hbB9R266ZNcveclLIuPx+ROf+ETUSWcyC3XR2Te/+c2QX3vYrmu1C9FoJ+Jh7/T6uc99LuriK8rRZtfSyYKAMR8pizSiLudgrJzF536Gp/M5nM4RkbD5K17xiuh4EcZfkVOqySBFGAbi8FkHeVrAIRLuYUw6E0k4ZA1tUkgwSOW7XjkMKYcTCZ2KDDhClofkGCZj7AXjTGJkKOplYEAO5EU29YqCjFPU0hbGp2x19pMXGL7sgKPL/jiGiM8529AOjsc4t9xyy5jLEjU5ONn1D3JgsGQ2VJIdyFI4DkISfRENfYvG9CxjQS4ggiuT/L2gW3p1GGIi0Ne+9rUhL+dCIAgOyeYwhcycV7tkIK5VNtJXt3KQg6EpMqZnw059gnz0EXujS7b3gx/8IHTts3bQNSLzZEnGZ54vidg5/aXt6kMMCJlt0qGsiG06j9joH1nLVBAGvWiH4b0gqq2Iw7CFLOTLTA1hCwiu0071yGZljurWb/qGbn2n/AUBozKVBHbWsRTsYDzGkYy+rRwGhFCQkEOWo3MZqvRPB1AwQmIM0lPRTOqfmQXHdS2nSDCsD3zgA2F0OWYVofuRmvrIK5oxPI530UUXzfr2/8DYv/3tb0eKno/B0wFEuV4wTk6HiERWBJGkwgkYjvtFNobIwNTtPpFOhqbtjD/vS5AXGXAEc1S9308EenK/dtAbHXEY5Yr++gNRyi4222yziKQITB8gXMMh2YeIbZinfcrozaoQojYhAvrleMqgM/UiB07FLthERmJ2IGt1Tn0cUiAhs35lG+YdgD0gJISCAJXrezI52IbvEaUhB7tJXdOxjEy57NM5RKt9DhmK4REimgjaqiw2Rl/aSm62R8/Ix5weAkVQ/aDv9Wn2SQYEn8HnBQGjWqljkIgI4BDlMDnj4WSMUSe6LkFZjMehw/OzjmLc/sogjC0NGRAJB0Ay0tKccHQuIV1HDjvuuGMzbdq0OES/fh3DyRmlOpGeCCodbUNkd142kOWJloydMbfBgcjLwBiH6CwCpdNxakRAbs5jLkJ5hnm77rprzHXI2MiQhNiGdiIrepapcfixQM+MHXGZHzLPZJ6Ac3JaOqQTUZ8z04P5I1FVubIoxEU3ZNGGdERESQZ/ewklQVZ9SI50FnC9/+khgwEdq8d5be+1B/9zurbtcHg2ts0228RcBBJ0jcwIKSIJtoFokERb1+bh6Drnh9SDxPULe2V3SBYhTQTtdD1dKEdb/U35tdP/iCPld71hp1csPvjBD8Z8ITJju+SAvN+xoGBUSxmcCCbdFIGM+aXd2JmjOc+gGaWOcDACxilyMEAdI1qn8+kgEcckmTTXvZwJSYh2IhxDVFbC91JPxrbDDjvEIWVtO2kafEY642JlitS90Z+RS0Wlv1meYZoUuJdUpM+MQ9kyI5OX7exMe3w2bmbQr3/962MCmJ6kyqIaWfqRShquLM3QCRH0EmAb2uj6lAlh6BfnGbfyGC49KsvQjI4RIoIlv4jLqGVOyIb+GT2SVZa+UYeyeqFs7UUKmYGp27WZjem71AdiAdeyC9exA9e5niztvkF6MgPDB1kFUlGfQCEzcK+yZQtskK71HdtA9s973vOi3UkqZNCnSB0ZCYTaiAzGg3ZqI/noQhaq/7U15Xc+yRJ8R5+ylyRyfqAs3yUZu9/h3IKAEaTCAHSmJwKMwgw2pzHDr0ONyaXCXmwyhKEkh6iLcIxtGax7RQhGJMKLlKKFe5XBmZWp89VpHgCZTVbpOkwdnEIZ5O03lJkskKonDcrTbkbiSCAMRi6aIjTtJYuhlUm6Y489NoxZ23rbxNHowuEe5DkeqWT6LSM6+uijo2yPbd/85jdHm2UwwBlEfVGa/IZ65Bc1E5xUu5AAchX1lUFWbeA0bXBSDoSYOKu5Iv2sTdpB73Sgjw2LBAf1cSZyIU7/61uBiM3IqMZ6yqM+siF5/3NEukYY2qM+eqNX/1955ZWRucmenUsgk5xHIq82sr3xoD6ESH8IxZwMWya/zBVpIBZBi67zHvNFhx12WAzVPfmSXXuqiGgMydinv8pQ1oKAEXMqJsR0kI4wpuT8DEanMiyG7TEzBSMNKSkwPAbkO1FIVNCJxs2yC53F2EROhsXgEBAjNqbmVJnpTAYMSV2M1Ey7+tSF5OYEykjZtbuXGAw5zGGYfEMkSNY9jJHhuU9be8kIGLinSYyO8XtZjHEyOJmLoSEn1A9kULc2ckpzRoAA6Fed6aDIB3mbYGTUCEuG5XvlynT0mwlk2acI73rOyuBnzpzZbLLJJuFUbZn9z0HJIeJ/6lOfir7Xd2TQrzINWQ9nk6mxIwQkcmsj+fUveZC+TFKdoIyc5E07YCPIBCkiXfYlCJGdrtXD3uhJkHJtW2a6oBttUR953CNT7e2PhPP0gSTYpgcM5FcWu0Rw+lWQzaENnSBq4CP0THZkZmJan8oYcyLZ0Js/ze8Y8Zq+mW1RjsGIZFLIHEv6K83EuqJETqpJTd2ngxmQCUyOphPc7xBpRSDlcBqKdw3y4lCinO84EcMzxGIUnFaZ7gVpPdmQnfo5MGcz3DD0IJ/yGAED5PyMkUOJOupABogCjNe1h+EwQMaiLRyF3MoVfRkHh2SYnJbxuVa7OJpojRwZOrnNQaknI1ob5qlkG+SkU05Fn+6nD5HYdwxWdkC/dJaZHgPNIQxnTscDRq3t9Os+UZP8zstAOZf2GlJyNrIiZueQHZnpjJ7a4CDawvnJyUbIQT6Eo5/IQI9IjL7oJCe03SMAuQ6ZtclDm9iCvlA+HZBLuzyl4YTqpm96Qsb+IlbkZNiUw2L9rG73awv52A/H9leZgNDU6xwCIBviYlMIyvfkdrjXAwvXCLT6331kRijqU5Y2ZqBEdMiHfHTlOm3VdjYzv2PEy28Ml4FhVY5DAW0DY4CisUwAM7tOR5qoYnjvfOc7Z48dOYZzjBspuJYjuF85WS5j8H0ag45gjJBRSlmQY1Yd75z/dSgjJS+Sg5SLkSAaRuJasqWDACIkk6hOTk7OWMjGILXfOd+rGzgNeZ1zL33leN196lQH/SQZtuGplJegvMjHSLW/DcaZBi3qIzdtUR9dAP2mjHTmcA75KF/7RWVzFNrlXu3XvwiGXjkG0I12OI9Q6LLd55D36ztl+6w++qbL1JNz+pFec0ior50nI1kc+o7zkce19NfWA70pkx7zWjKSVf1ARvUjTW1RR37vO3bkXN6nPxAIqE9A8r3+QljqSfl95x7/k9939EJ2Oge6YCv6JGV3v//JRXZ/2zZGv2mj8zNGvVE7GYjMMoVTTz01sgwz4IXx4ZHoySef3Bx00EF9H03KfOjU8EGWZTJyPDB6TudtWUMZ0dJQUEQVrTl7oTAvMUfPuTB4RmYsXpgY0nkOL8L2g6gr65Jui7YTAamIzuazHGKECXCE0i9TKhTmNuYoUzGckBYbL0rrpNyF8WG4JMMzjOo35yLrQBLmRqTchg3jQfdJrc1HKBspmTPKlL5QmNeYI1IpFAqFXlQoKxQKnaJIpVAodIoilUKh0CmKVAqFQqcYd6LWm4ReqffY0tMKb5hO9tGxtx8tWc+3QHtfrEp4icgbl1aqFgqF4cWoTCXfnvSI0hoPaz1sWeClKm9dThberLRgzSpiBONNRG8Z5uHxqvPesfDyVqFQGG6MIhXvSXB0ZOJNWXtsestzTmHHMXujnnnmmc155503+zjppJNi/1QL8AqFwvBj1PDHi2z2PfHXIWOxVsTiNZvkTHaVpcWB73rXu2LTHKucLUBrv9BlIZnFZzaUtpgQyYD1Rda/WM9ijxDDJm/verHLYi3DMS+HgSFarpDONRyyLbJaOOftUi+T2VAHYcq4vG2qTC/weWlMmQ6w8M4Cu9e97nWx/MAaEKtWnZexWVNj02d1OG/RmDLUq22Wx9v8yfoVWyGQyX4n9GjBnMzN+iUvqJFDxuZ/a4G0gd6RunrdYwc0by23QW7yWKzmaK81srbFi3XaniuVU89kVS54Uc4iNyuM1dMLfUD/FmeSSbnaqD3upRtv/mqvobJM03X0QrfeDPZ2rzeIvRzpO/qwBseLkvrSPeSnDzoVXJxjd9Z1gbroUv+4jx3oc2tvfLYYNNf1yIi1k1xeIiSX+13HBkG2nIsX2ZCFi8osdIMRq5TBQiorMxkEQ2OAuUpUR6UjDwqGIdvR6Wm87Q7k7AzeEIvxIx5GyZDt/UEWpMJpXcfQycR5verOeO0mZ0m8uR+G7xormhEIZ7Pq2P8zZsyIci3QY3DaavEisrFQjHGqG6mqW3aFmCww4+TqcS3n1x5ObYjIiBmqQ93qMvdEV+aTctGjOjkpffiMGGSBCAzRMXr6sBmTLRHIajhq1WsuZEu4lwMlofqsfIv0OCmH4UwWsSEqcnJWRK09hqXkpAPzWbnCu/0Wru84X5I7uZJgyKV87bSIji60i26VrQ7tpk+yu9Z306dPD1nJRF67u5FLfzr0rZXc1j8hBOWQU1nKoDcEYy8V66OQlT5ir0AfvmOzdGGBJtnJiGTZCzLSj2wLnK8lDd1h1B61jNBycsZlcrUd2eYFEAOjleHY/9WWgbY6YLyWvTMkhiliIilyMhTrZN7+9rfPzkouuOCCMMpeyLhMOMuYGKT2HX744UE+/YDMZCe2PuBgCYZp+0D3IRlkyDk5nWEjeRg63TFYDoQ4OZTMQ5u0VdbSBmeylwoH7CWSfkCsMgG7oWUk9hMl2qVew1nEiaRsETBt2rSI2uTQntNPPz3IUGbFOdt6IL+V0ibQOSdi5eSus++ITAMZcmT6Qegm2pUF5KAP219uu+22s1dZgzqRFGenC9kC8kDodGszp/w1Avq3R4xAoT8EiUEgk3KtnzthP/TNXgQn5WkXnbXlKsw5Rs2pULAOwPScrh255gV0PCcQ7RiFdFhqzJAZGsfwHadjmJwVcmGj6xzk7xd9RDuRLq9zTw6bekEW0eyTn/zk7PoTnIuR01XuacLJkNob3/jGWIEsqnIaToI8kKLPSIWxkyXByZUpy5AZGLYM4jzK00/ttpNJmzikMmV69CQTNMQgq7KRsnOIR52ezrXBFrRB2ciLTn32F+HIXl1DR8qXUekvgUkmx2GVL0AgjASiyWwkh32uk1nIWmRuiNWP1zn8Bg+9uF7Gol9A/yMH5G7XNYdV4IISeZSNQJGzQON+gRKpsB91GpYWqXSLecsYA0AGIsMQARk94+U0HIShcgZGZR6CEeZchgjLwbqC9J7Rchjk0R6Tg6hs6IKgGCYCc5DR3BOiIROyMowwHOFY2mGo0SYU4NCcCQFpj5S83zzHZEFPiAXpyp7Ih3DoFFEgQnIjckOVyQIZcnTtQlgcWJsdNt9CcrIc/ZQQFLTTX7KQiQz6k57ogtMb3pmz0gcyvhz+qAv0gesRjuscshptzuGZsnMXPhtwGQqxL/pAKo55HTjndzwotYk0OFYaTy98x2gQT0aunDvoCsrOLRE5i/mWHLcnkBiDbMvJyTgLIhEtyepevw0j80JUUnxzL22IroYJnMYu/7KDLkiSbjKyj6VP39MnWaeC8fqrX9mysNyqVLuRByJxDWe3j4xfirT/rMMvNB511FGxB40Nr7Of3Y/A99lnn9nX2hgbmSFNcC2Cp0/DtNS9za8Qzlg6KUwdUyYVxiJSiC4cqSvoZJ3NKHKyjoMzOAQi6vnfpB4DlEpL3w2LOGQXyKGIeQJl21pTdtEeTqlLBMzJTPdk1J45c2ZMjPouIyzSk+aT29yECKtskI7LFNSpHk7nni4MXubAoehQPeRTr8+cS8aA/HqHY4OCTsisT0xYazPbcMgaDL2QqXYnDJ/ozjBQ3SZN9TOdys7YFPn8715yyVZkcrJDZYO6ZVvqRySZGbGLzD5cIyjI0tyfPwaWpFLoHlMiFQbEMBmM1FMnZUfPKRgDQ5IVSIG9GMdpGT+jRSIMhDFxYo7POYyfZQGMTnbBMKXBjJyBko/cg0DbpOsMnQPYKFqdbahPBBRhDY+QBMLzFMSTI/MnWS+ImCZUDTfMMWgTecmkndqAePKnNroa5xuecR7tUAcdpk45mayK03r065rJggObmFUGW1AuXThMxKrT5HhvlkcupOK+1J/horIMEwUUpIRslWteBVEjF5nPoEAqCEz9+pRtsJvcf7jQPaZEKjqV03IeKalO7+oJEVLhVJ7OmP1HGkceeWS8OOexMSLzhIGTm6TzGJMcnjR418U7MZ7mePzraYuJO4aOYAYFowNPJGQXDLM3axDZ/dAZOUwqSs/9VAM5kI13KjhzpuraxZHMzTBoE6PmAJAK4jG2l7p7bN8l1M+ppk2bFg5Mh0cccUTI6wmZeSI/Tyor8P1kgQhMSiMO98+YMaM58MAD4zDpikT1l/mxNuhUBqW9dGKoaU5HVujdGc5vL1/lTJ8+PQhBXxg2TZZwDSP1BZuStZj4N5ldE7RzB6PeU2mDsXMmTs4wGR4j5QiIxYy6/0XgsSa8XKdTPTkRhUWHdme63/eGO67xIhWDU49sgNFK4RkFGXzPYZEEspBVMFiGyIBdJ+JLhRm5dJ8xMSRO7X7lkIO82UZPbRi3aK1+ZXG2dgR3HVmM+elEeWSXtitP3cpQH2chv/apL1/QIpMyUlbkJIqamFWuMtVDNvfnU5peh88+cL1+EeGVC0iRw9KBrI9syqJj5eir1JG+o5PUx1igJ9+7T5n0KUshqz7yPz2QQVmuIxPSctBh9rWhag5V6JpsZGIfzitLOYZMyqE/ZIC41O0ewyZ60z90mX2k7XSibnpRBj3JemSI+sFTKjKM197C1DG0O795RMtIZAoIhaH0wmbQJ554YkRK0ZThcoLCggFkgmQMz2WzsjQ/wmY4i7zKFuYOhpaqRTLZAqIYa4I2IxbiyWFIYcGB+Rxv7BoWIxXZoAxFhliEMvcwtKTCMKTtUmapfj+4xiy/IYTUvwxpwYJhtoBjeIRQzJEZShmuFeYeauPrQqHQKWqmqlAodIoilUKh0CmKVAqFQqcoUikUCp2iSKVQKHSKIpVCodApRj1S9vahRXsWdFmWDl6L9uq1V7q9np2vg08EZVgXZP1ObgOQC+y8M5KHV8e9ou5VbO+UFAqF4cUIUuH4FrpZmm91qBW+XiCyWNBLRGuvvXYcluYPAvtk2OHLK/UWi1m1m/ufIBJrN7zpat3GlltuGQvGvPFYGE7oV2uyrKlpb3VQGE7w+9yew5ota7IGwQhSsTLUJjYnn3xyOPlmm20WxmG5uXU2CGLTTTeNfWMHgf1WHLnw0LYEVpwS1JuNm2yyyeyFiOpBNPU6/fBCv7IT/Wg9VmG4IamwLQcI/N5MHmQR5ghSkUXYD0Rm4ZVmi/Cwk71MLE23OM8OZgcffPCsOyYH+42cdtppkRFZLeonMAiasFTeVgWIy5odr9aTyTDKNgbksSrVOXuBGJ4xYA0VJRFYro6V8Vj92guZmHttDO2+JDEyycrc6zAMs3bE9XSCtanKPVY0Wx6QSkaW9rGVieUKbOVh9yzPtUjZalnL+A0ps4PsySJro3NtzjUrFkla8QxWZNujRQapbXaH02aBwL4lOl85yrTWyYI5jk1X7kHsuaJXX9orhnzaYhsL+6wgee0CZdK7e3M7gonACI877rgYKu+9996zzo4PQ2P7qRh202/qjy4tBqQT7bWOS/tz4yffab9Fg5ZrOPQ9mbVFvyrPdQ56pRev6+fCUrqzt0xu9KWP9Zs1ZXSl34AOrR1SDv3I1pWhfHq3RaVgbJU9fbpXZs4+tU9/K1udpg/YPrvlV/ScGYE2c17bMmiv1en6iC3Qi+UF6nQt+2EfZHWenZKTDbAZK7R7QTfqJIey2ch4sMcNWwH1GEmQZyKM2FCC4i3d16BcLwOEUFg6goY51zU4L+KSxTjUp8Mvv/zy5pxzzol6KVBHIT7E4DpyUjQH0OlJLv1IhRHZg8VuY9YMcWbIzaE5kDqcJw+lIrtsL0O2iRAnze0EGI/Nl3W89UZglzWGZTd65akLqSjPEMFnhgWMUqfpaAYlM7QvCdibRdtcY68WbbeTPTk5Ih3YwMhmS4xSPykj9w2hP7udISpOof+0n3ycX4aIZO2t4h76VB9DVq766HIQUsn7tGVQ0LF2IST6yPk6Do+ss4/omSyG1Da30hbtdR9nym0g6OPiiy+O4ToHVWbuvautDud9TzfkpVuO7VCeLRls14CA9algmHu62HaDb7iGPbInv2Vkx377/7BZOuS8sjZ75iiT3Tjohu75mUBhi0vlsil2hMh8R+f6ik36JQQ6cJ48rleW9pvnZPPagqDYMfn6kQri0V7lShYmIhVyKxfYvzonTSqMkQNoUEZwisP8nJgQ82rJOCOhNLt9cUaKaDdI51CcjY1EDQ7GOHXCRGC4uTkR9gWOxgC0n8FyQr/Zo612x7ePh/p1vh3eGbJOJodrfGe4uPXWW0d5jMXmTQy4DfeIqjZqomc45phjZm+K3QuyMDbOx2hysynnkQUjES232WabiMLk8NMm5JMBcMCEchiGaGZvEpmJ8pBKwnccOnfZ0w9zG/pD9Bd56QZssiWQsEOkQCZZCn3usssuQRbaxnHJzz7b219op8+yXm1A5siGTpRJV0iKE9oOgQ1xWP2uf/2Wkp9d4cx0SkbfIXxOrUz9hcSQQwaJzCTIgwDtocvpkZl2CGay2p133jkWu9qGQZnkk6U776dDyKge/SurRB76mJw+I0I2y94zu3ywYASpUKoDsDZGFaUZLyOmBOndvADFMSLEIm3lOCkbiFw6EckhF5Hadf5OBEaik90nOwCpoXO+41ickhGJOgggjcs9UmHGyJiQUDK46JXliQpZXhtkls2QWyYBDNIQpJdUGCiyZDwciO49TQNGzRi1V7ptiOBQhn4iHyJk4AxP1NceddtASgakfpE2oT7XXXbZZaFrbUEuY4FMrs/hC73JFv3v5zJAfRn1x3pqSEf6ToRN/bmPYwkmZBHwEIE62CIHZRPaqa+QDZsF9+k3www60C7XcEh/pfVkMlyRrbElmacMN8tD8j4neSiTDLJTelS3/xG1iK4/9Tdd8xu2a7gm6LBl/e47ZOBeZWi3+5xnS+RgX0kSdOka5eorWQwZ6IpcF110Uehf/XSChAQCpJX9RkYyIGt2OhEyexNs1J/2pj2IXf10ivi0qR9GzbroAJ3DWEVHAkrldNIGG2wwe5w5t6B+CtIg0YohcgBG0+ugcwsMl2EwZmRCichDyuizDiaPtJjxcVwG0Sa9LsCoGbhMDWRWCAgYiO/oytCEc9APJxTVREhO6LxrGLL+FNVlS/qzDXrXbsYjnUcCUn3p/FhgzMq79NJLYwMkQygycRCfHfoQcSl7quDQ7AAJkIuziuwyS06gD7RRG0A/ISfXAlIwNEIyHI8uwFNMzsZZEKPMUpmIgtMq01+gV32PuNmGevkIHfiOjbCJJBVBglwyKRkIHRlOIgGkwGb070TQdtcjRH3PxrQF+bAB9SNxPosIcngvK3Oo17ar+mWQ+twv0z3//PMjuMiOHeaMDPFl70YPgv1YGEUqGotFCaQQbGT8vv3220fDeqNp12AYOp1xIxYOwGm6dtjxQIZk9X7t9b2DwdGVTpWliChdguEycmXLRkQc5JVgzI5eMB4yORi5PuQMJroNCa677rpwoja0RUZK7+ZWOKD+7ld+QjYhK/ITGmeffXZkJ5zUz8X67LCHMZLjGFNFRmBzC9OnT48MCVnKNnKPlCQUaP+f0J/aqD/9j+T8JMopp5wSWap2kt28iMDZr98z62KfSM1BDrp1f96jfGQgI9x///1n/3yI4z3veU/so2yivZfYJ4O0P3+zXjo2SeuXOm1MpV/0JSJDaO2sdCy4357Q9GKnWcHJ8da3vrU588wzYyJ+2rRp49r6CIvBzLIS7CZFxMyilUxBmsag24pjsDrcfV2Bogy5KMK4n3Fj6PGMu2vIShgL9mfAUmLMjHA5qs+MkpGJVowM+c2J47SRus0nVRlRyZV68Ff/yCRcpx/cx8hEcpFFqk1+GYy0lYHpS5GYI4le6tFO7ZEyu97kMoNvE1g/ICvEQz7GiPxlFOTy2aFOehn0HYd+EI3NXZCb/dGFrEV2AOlcCf3EfmUMdMI+9RM90SFd+I5uDU04fz7RM4FLX8rLI6EdCEQWYj5GxGYnSCj7RX+wV/Uohw4FgyyfrHSP+AexabLrE1mPv/pKIJMlu19bOLigS8fkEYBkqQ4y0we/ZiMTwf36k53QsYzIwQ/5o6DE1scL8iNaZVzJEM1kS6W85SrqEIwiHcayOiodTmTL91C6QJKKsrfbbrtoQL+oMTehoyiS4nSmYQMi8T+2R3hIhlE7J913PSfjAA560pmc1t9eAx0PdMDJpeWMnnMy5jYYLN1IuRk4mbKPGLthB7npMUFeRqF8Tqev1cNwGRxDJaPJTe2ZLPQTA+eYXYKMZOOo9MC4DW98dh5haFOSKp1rOxIRBPRRtpctGxY55zqfZXCc3rCCHt2jLWxcmQnfC676Pt/dcj9SSoJAIspHLPpdRuha/cCxTQCL+IiF30wEZZBVO/macmRt+lzfq8u8CTKjA9crV3/yYfrwHVuerB+5h007ZF6DYgTdiFQMkgMZl4kOIk+blaRCb3jDG8Jx8qcx/IyC2fvJVDwWdI7oJuoxbIYzr6ETRFvtpBPjS23TQTrNUxuHjs5HkmSVDmdayIAc5OdkmH7QjI5xICUTxNJxsiCRNsjoe9cyOuNfR0JU9GQhHQsYFcKUichmjJ094SCXdpl8M5xR9iBRtBfKZgsTZTiTRc4nsMt82pUEzTbJzomQBH0kDPOQS2YFbNRQDAnQhYjOOQ1JRHlluY7uEQgb55gJ97ADZC5b4LwcWp+nw7pf+w3L9D3bIIP7yMcWBEtZgDomApnoVeAyXNNW7WEPnt5pTwK5euJELhmHfiU/W9XnOaUwKEycb7XVVvF/ZnCDYMRPdFAUgRFJPovPyJOHSKFTsLgoyqB1lqHARJW6B8u7VnotcmLBhIjEWBg2hxEVlOkeh5TMPRSdk1UiljJEFMZAmSZSyd+PkLRPB4sw2qKN4F7O5D6ykZEeXOs7ZTmc05HqFtXogEFKgdXtGvKQj8HRj2gipWTw7uPwOjrbLvogDtGSAWkzPXBymaLvGKs2MqpM//UH+ejDPQ5l0omxvzqdS5LMyUsyuocjIPCUWYbiHm0ka5Kgx+70MhHUpX1IYFDoc06Yc0bpaBnFs8/1B6eka7K6B9HoQ3rXZ/qF04jk9KuP2a9rlSHjo2PyKYM9+o7cdKlu+nHkkEgdrqEPfaw+/ytbmbIm9ynLZwcd6Efn9ReZlUEW+qZP8qoTUs9kImPqD6kJTDJ3vkBHZFWuz+wDwbEB/qE/1eN+Zfs/h158lBz6Wvvcpw3jwfXa72gT50SoPWqnCBnAJZdcEsqWhehgHdaGOQuTczox3zHovabQLTyBsnbNkIbztt9dGTYgSG+Sn3rqqfH+ylve8pZZ3zy4MfkctxAQBUQkEVTk6DdcEEFElHxqI8oUCvM7ilSmCBmKVNhQBrEYTvQCkRiGSKWlo0Uqcx8I3JBEeo/shxmyWkN5c2OGVcOCGv5MEdSWTwaMNftlKpATh74fdExamDro20HfeQwr0sbM1+S82TCgSKVQKHSKGv4UCoVOUaRSKBQ6RZFKoVDoFEUqhUKhUxSpFAqFTlGkUigUOsWIR8rWKVjnYqWr9/29sGVthnUYud7BW6L+ty7BOpp8D8P6Ei/rWDlpzQBYXu46z9fzHY189u65u/UZoPxch2HdSZ6zrsZ11kRYS2HBFBm99q6+LMvamVw45VrnLDDTFutFwPsKylI+OX12nTUTZMzFaLl+wjXq0EZlZV0O7VGW77XXd9b4gO98Vo7vc+2I+siuXVlewot0uVaj3mUpDDtGkIql9pZz26DJSkqLkKz0dHA8G7V4Y9H/doSzHwUCAo5unYW3/7yaDvZetZKZ43FCDsMpEZXFdkcccUR8trISYXhD1aI252xOZOd911mEZRf/8847Lxbxuc86GiSATKz3uOqqq+K8axGBvUAtxLLsHJCExYPKJ6fPHNzqT6t1rbPg7GS0cMxCNnVYon7llVcGISiX7IjCAj0kRkfktZydKrXVAjGEQic77LBDlKc+i8OsZLb8XXmuRzZ21FOO9tNToTDMGDH8Ea05t1WeFsM5bGXISXL1quX+thv0HYfnDFYUcxrX2j+C83A0JCVbseDONVZgem0dEJJMwuEa18o43GeJNkJwkMX3ZEAoSIJDAqeU4VgSz/mVJWOwnN1n33llW71ep5eV2MpAucqwLJ3MVmcjEG2x5YLvbFxtywCv4Fv9mquhtduaH+VaKYxEXGe/DvqxqZWVxcqjS/VpD8JCdPb8RDb0idyUa4sJpKidmVkVCsOKvnMqHNvQw0pczimC7rTTTrH+wDmrQJGILfHe8Y53xG+8cCYOz2Hdk8OijNZ77rlns88++zS77757OGQ/IAkOjZjsi6kM52QP7UyH4yEM3/nsbwI52fXMZkqWxG+77baRdckGZBj2EbFnjDLIijwM6+xbsu+++zZ77bVXZBZIQrZhpSu57ahvSwbZid8r2mOPPWKLTYRJNsMze1bst99+zQEHHBAZkbUnyJPOEBcytheIH2rbddddo4wdd9wxSMnu67IlmVChMMwYRSoyghzeONZff/3ILjgOB5YJyBhEaft6cHRzKIZFlv8bUnBo104WMgnRmrMbVnFM5ZqnkBEgMmTCUcmhDk7ovoTzCEkWYtjih8/sk+r3hJCNzIeDIywO7n9DHftbGIrIRuzJa5sZmYR6pwLkKHPKeRk6o0Mka18M5aoLSSEmWR/yka0VCsOMUaSSWYFUXvQVRTkuJ+TEHBhxiMI5qcoZTTRK+ZFS70SkMh0TwR6kdv52rXmZ3C5R+ZwTkRku2P0L4dlL17DBkCzBgcks+zDkUYayZB+yDltkGnqks8tYZDTqyba7N+seRG66oRNkaCc8O47LgGRNyCInvLUDMdKb+pGlzyZqTYCTu02QhcIwYhSpcCpGbjs8QwaTtOYFOA3nSYKQMfgMCMT/onMOVyaDvN/wyaQpErDJjqchHC+BFGRDMhFbPJrItVGS4VZC3TIncyM2RpKpHHLIIbGDuWGM34G2DZ8sQVsd6s7MiiwyNZmFv0hyItAFIkVwdpQ3QY30lIFUkBa5lJ1tzf/V67Mjkef9LRSGDX3nVMD8A+eWqptfEXml85562OPB8IIzM3xkIsswV4EIzL2IyhzDgRjGIxpOiVAMR2RHshHDkd57TJAiOiThJwiOOuqoIArzOQlZBpmVZ1JU5OewJo9lEDNmzIgJU+dNwmoPkjKfQVbZi2EScnB/e4/SsYCYkIe5kqOPPjp+xuCwww6Lnyf1tMdErO0YEZTsxTBHuWQwyUxWk7raLQN03jBOdlPEUhg2jEkqyCEfmRoi5FMShCGLQDTOmbfwmyImVzmA76X0HiVzDKl+ZgVjgdObS5BheNKCUJBLLwxHOCeZZCzkMB9iniLhf2UYchgWkc1hI2/DE86sHoRlTsh8EUJBiNrih59M5iIXxDie3G1oOz3J6NyrTe5HmIY2CMzwzf8yGvpRl7+uMVRzkA0Bmgy3YbJyilgKw4QxSQVkK34Vj2NxOtmIXcwMKzgCw7d7uiEGp+WgHh2LtCZHPUqV1SAWzjQeOI95DE9q3DNVIDUykwPxHXrooSGj3+WVDXjy5HukiXzyh85nzpwZ7TBBa9jiVwOQjgxkItCFiWVzPIZZ6jvhhBPiiQ59mcMxBPI7y9poV3SZlrpMIMuWZDW+QyAI2js3nhblkLJQGBaMePlNus0RpeOcQVbAqPNdET9OZL7FOU94OJLorAjZiaGHiIxURHvDHg7jhTQR2PDCECDfg+HU7vU/wuJ4HBCJGWqRhcMjAEOa3qwhyyOv6K48RMjJfSYzGWUl7pUxcVwvwfnsOvMm2iKD0S5QhizNdeomIzmUp1wyaifITAxhtFc92ul6hzpyd3llmndxrTLI7hrIvW7pjwzqMSSTuZhglvGMN3wsFB5MqJ3fCoVCpxh3+FMoFAqTRZFKoVDoFEUqhUKhUxSpFAqFTlGkUigUOkWRSqFQ6BRFKoVCoUM0zf8C7BH1lfOQDXUAAAAASUVORK5CYII=;" vertex="1" parent="1">
          <mxGeometry x="10" y="130" width="137" height="45.01" as="geometry" />
        </mxCell>
        <mxCell id="yEgj6qXWK7Eluj3ogHR2-83" value="" style="shape=image;verticalLabelPosition=bottom;labelBackgroundColor=default;verticalAlign=top;aspect=fixed;imageAspect=0;image=data:image/png,iVBORw0KGgoAAAANSUhEUgAAAG0AAAA3CAYAAAAG7cTHAAAAAXNSR0IArs4c6QAAAARnQU1BAACxjwv8YQUAAAAJcEhZcwAADsMAAA7DAcdvqGQAAA0rSURBVHhe7dtrsFZjGwfwO1FyiIgcklJECKlQilL0odJkfIgwmfhihvHBmPGFb8aMMaNG00wzGGM6Tkknp2hSUYgiVCJnOcshZ+/rd7XvPc+7rf0+j3fv5u0x6z+z5tnPs+5139d9/a/Tutbabf71J1KJusI+DZ8l6gglaXWIkrQ6RElaHaIkrQ5RklaHKEmrQ5Sk1SFK0uoQVTsiv/zyS/ruu+/Shx9+mA499NB0/PHHN5ypjj/++CP9/PPP6d13343r99mn2EaM69KlSzr11FNjTJs2bRrOlChCVdK++OKL9MYbb6QHHngg9e/fP91www0NZ6oDYZ999lmaMmVKeuihh1K7du3+QpzlGcall16a7rnnntS+ffu07777NpwtUYRmSdu1a1d655130vPPP5+ee+65tHnz5jRu3Lh06623Noyojp9++int2LEj3XvvvWnp0qXpiiuuSEcddVTD2d2wzv33359OP/30NGPGjLT//vuXpFVBIWl+4iFPPvlkELZp06b0zTffpAkTJqTbbrutYVR1ZNLuu+++9OKLL6Zp06alPn36NJzdja+//jpdeeWV6ZBDDmkk7ddff01fffVVhGVzCJcdOnRIHTt2TJ07dw5SefEHH3wQpOct/P777xFqjz322NSpU6fw2m3btsUavNw8xhp30EEHRbg37vPPP09ffvll6tmzZzrwwAPj/CeffBJzu+boo4+O63/44YcY5xP222+/mEdo//HHH0Petm3bpgMOOCDGf/TRR3G9dfxmL59++mnIaI3ffvstHXzwwXH+sMMOi2trQaFJmwxJr776aijgrLPOSnPnzm04u+dBYU888URav359ev/992PjJ510UhowYEAaPXp0bFDYnj59etqyZUuEV6BMihbChw8fno477rgwlKeffjoUKzTb2/fffx97uuCCC9KwYcPSokWL0pIlS9Kdd96Z+vbtG8p95JFH0ptvvhkGcu2116Zjjjkmvfbaa2nZsmXp9ddfD/KPPPLIdMYZZ0QE2bp1a8jLsE4++eRYz9qIuPDCC0N+uX3WrFkhIxm+/fbbdPbZZ4ccl1xySRhMLSisDGyOYkaMGJEGDx6cunfvHh6wp0ERrJNyeCaDkeuEZRvi8Rs2bAhSKV80oLjx48enyy67LJ155pnxOxJ5K/BYHoFsY0aOHJl69OgRZPAMFr9z585Yl/f6m3daRy63hnFvv/12mj17dnivOazJKHie1PHee++FR7ved2mFF5544olRvPEwcvOq8847r3Ff5l6zZk2jLLWgkDTWccQRRwT7LNLitbpuS8EaeQ9P4lmTJ09O1113XTrllFNCKa+88kpUoiDMnHbaaen666+Pg7xyZqWBkZvRTZo0KcbwikGDBv0lt2ZQLo8RMjPxvGL79u1pxYoVqVu3bunqq68OmXgIPeVQng0AaS+//HLIPHTo0Ph0TsQgrygwZsyYOPzOGF3P4GrBXnefhhBhbuDAgeFpcgPF9+rVKzbvPIXyynxQRkthHkZA4Yom+U3o8nv2Np4lTPIWa55zzjmR53MoJvfatWvDS5FH5uzV5uJhSGeUjz76aJo5c2b8zThEhxZ52v8LFCShsziFiVBEOQ6JXIjM+UAoowyh73+F9TIoDWE8TXEgpMlLQKkIVQzxYmuSiTwIJCfD8ruixW/GiwzyFjKET2GfB1pDCmIA9mkfxlfK89/QYtIIVKuF1IKsEORRlo04KNVvNuuTMigNmS2F+RnDSy+9FAWY+1EKzYUBmSiWMTnyfskgTyGBlyFVISMiKEgUMvKjffBAxZU1XH/CCSeE54kmf9fwWkSazdqkgyC1WkpzQFbXrl0jh65bty59/PHHsWFz2zxPoEwEqtb8zbJbClbOe+VLa1188cWRq4BM/iaTYgVByHKN8QsXLkzPPvtsY54F1aOqdOPGjemFF14Ied3zukYec07otKYw6vPv6K9FpFlIOe1+jqX53lIoGuQTHkQpc+bMiTJZmS0EyQmKlOXLl0dFx3LdjjhWr14dSjXWuVqVQJmgEhUWGU5lMYMwOUth5N5wwYIFIZeqz3rCYfZKQDLiRAXn33rrrTjPExU0Ch3XqpARJrzmkF8LqrYeWJrQYNGmZT+SFi9eHCFDlaRoMLYSBCdscxVozg1IMpbSKNH9mU25h7JO7969456I8uQFocaNthD01FNPxVw8QCWn3M63LOYln3XAGpRkLz59J7e5VIPWyLnS+Sxbrhp5FoMhEy9XYChIVICMyTXylHPZm5wjP9iP+czrsL6xwnOtpFXtPQpPvIjlsihekEG5KiVTaPbaaCUxzhMEAcKAbgjyKmF+YcS1ymGbsAGdFGHX3+Z3nTGqOF0a1iuM8Q7XAHKc5wm85fbbb497LWvINcjIXRpKN5/rhTYy8nJeQpkMIId+vzM8c7vWXsiEeAQxJOcUHuakJ/K6fSFTNlgEup4cvjucN4/cpgBq6hhFqEra3gSbltsQQXFuTpvmNEXK3XffHRZ/yy23NHrYPwl7VclfDSyT1fIORQhimsIYIZb1/1NRV54mpPEk4VpYEcrko0rkfMjD5KF/oqfVFWkldqOuwmOJ3ShJq0OUpNUhStLqEIWFiMrMwz2dBf0/N46gjNYMdYOtIVorVH3uq9yIuyk2pyrPjaQbUTe+5lTGl6iOQtIQ5gZ2/vz5jd0DRLo/0lPzFDg/J6oF5vDcSJ9So9fzMMgtH90UnXVdby0eXYUSzaOQtFWrVkVDk7I1ST3p1Y3wcNA7Et7I8hoCL6kFyPcOBvL16oYMGRI3ybxPe8z7GObygg9Pzh32EsUoJE3nXKfcjat+oEMP8eGHH443pm6++eZoEFcLZx5J8NoHH3wwHtWPHTs2vAkxvMyNsudReoVuiPX89BP14HT4nefhRMxNXa/a8VTdcjI5p/donDE8l1HoNz7zzDPx3ojQ63dr8HRN5nPPPTeejrvOb/mNM9/JZs86K97WYqxu0snvEYtDv9Ic+pK+6zPaC8M01l6c1wMVPVoThfHNE1uhj8C65RTj8BsBCCUnVQOle2JrM9pLuugIy2GVt9m0x/Ue73i8QlHypS6+63ijtRCm4eycRxtCLTko2CESkBE5Qrfv3qe85pprYh+UyBB5/OOPPx6G5/0XnXlGaj25G2lyracFlK7rz6is5R0Ub6h5BCQv63uKEBrY5va8jbFoSmswO8ylM9OaKCRN7kIW5TpYtAeQuWstfFFiNeQOvw1ni0NeJXxHnM2bHynedpLjKIdX8FghmmeQi5UjghIRefjhhzc+p1LsNAXr1/qicI97KBV08kUATWhd9lGjRoWXSwuPPfZYeDDSABm6+PRgPs1oZHhehnSe6VU7+TivYywjam3SCkt+lssyfdoYxeUHnRSlinSuGmyOt9m8+RgAAiuRvQV5xhrDKHikzfJ633mP51NIM55yKNorarmibc6QhGgGwIh4RzYcj32ERYRQuoJIJctgclQA+2AUXsRhQEK0c4yFsTEmshpHX9ZzIF+kaG00e58mJFEiYZX+ChOKv+qqq8Jrmiq/CMiiXGNtSPhqCr9RJsUZ65pa5q4V1hXKhETh2ANLYQsQwGsZASLsTziTqy+//PLweKALUUD4ljcR65OsiLvoootibg9nV65cGZ8iTA63rY1mSbOgl1E8mUaalysdQieBawEFCH02bRNFryT47hyLlM+Ep9YkTc7yioAwxmuF0yy/dSjeUQnyymkKE3/zTJ514403hifJp7zUfuSyu+66K8Ip47MHuZK32kuRobYUhaQR1k2w0l9CF9clZa82s9LKvET4/HS5KXISFt5syEsu4rycQhk2zdLz7YWqj1G0JmlCu2IIWUKsXJhJEoqtlw2HjLnilevkJfsij3Hnn39+eKMCScXJ+1xHV+ZErHWEaZHDHvcECkmjSAr2lhEBJk6cGCERKDoLZENe5HQIA02JE3ZcJ99QlgrNnEp2nmXzkrZ3LniEJ9HyVGvCqwzCo3JdTqwEo/Ib2RUwyFJsSAnz5s0Lj8pgrGSzH0Yr+siHxguNyFIseTWOEShuGPyeIK6weqRI7s6ChAmvsxGUxbE0YdJNsnDj/9YIedNNN0XlV1SguDdzzkbFe0UBglmn8YoA3tyvX7+otloTlCgH8ficyzLI5J8jRBSpYOrUqSEXRecuDRkrPV/oE1kYmtfhhH864ZlCpWvVAgoUpOUWYGui7R1/ouHvRvA0sVulJbTZrDzg8LdWlnMsjCX7HYkIqAydGZQjYds8pQiPQpOYL+kLvZTBiv2eQTmKE94utJkDyOZ3xYOwRSbewnj8jXxeZB031+YW2l3jN/MixD7IRtE5Ulif4ej4II6MooCK2TUIskceZl5G4VrrIdga9uTtK7rzqcJtTRR2RAp++g9UWl4eW/lbc2hu3mrXuq7WNSvHVq7X9Pqm11aOhWrrNbdOEZqu1VIUklZi70azJX+JvRclaXWIkrQ6RElaHaIkrQ5RklaHKEmrQ5Sk1R1S+jfP/e2e5VNEBAAAAABJRU5ErkJggg==;" vertex="1" parent="1">
          <mxGeometry x="100" y="330" width="39.64" height="20" as="geometry" />
        </mxCell>
        <mxCell id="yEgj6qXWK7Eluj3ogHR2-84" value="" style="shape=image;verticalLabelPosition=bottom;labelBackgroundColor=default;verticalAlign=top;aspect=fixed;imageAspect=0;image=data:image/png,iVBORw0KGgoAAAANSUhEUgAAAG0AAAA3CAYAAAAG7cTHAAAAAXNSR0IArs4c6QAAAARnQU1BAACxjwv8YQUAAAAJcEhZcwAADsMAAA7DAcdvqGQAAA0rSURBVHhe7dtrsFZjGwfwO1FyiIgcklJECKlQilL0odJkfIgwmfhihvHBmPGFb8aMMaNG00wzGGM6Tkknp2hSUYgiVCJnOcshZ+/rd7XvPc+7rf0+j3fv5u0x6z+z5tnPs+5139d9/a/Tutbabf71J1KJusI+DZ8l6gglaXWIkrQ6RElaHaIkrQ5RklaHKEmrQ5Sk1SFK0uoQVTsiv/zyS/ruu+/Shx9+mA499NB0/PHHN5ypjj/++CP9/PPP6d13343r99mn2EaM69KlSzr11FNjTJs2bRrOlChCVdK++OKL9MYbb6QHHngg9e/fP91www0NZ6oDYZ999lmaMmVKeuihh1K7du3+QpzlGcall16a7rnnntS+ffu07777NpwtUYRmSdu1a1d655130vPPP5+ee+65tHnz5jRu3Lh06623Noyojp9++int2LEj3XvvvWnp0qXpiiuuSEcddVTD2d2wzv33359OP/30NGPGjLT//vuXpFVBIWl+4iFPPvlkELZp06b0zTffpAkTJqTbbrutYVR1ZNLuu+++9OKLL6Zp06alPn36NJzdja+//jpdeeWV6ZBDDmkk7ddff01fffVVhGVzCJcdOnRIHTt2TJ07dw5SefEHH3wQpOct/P777xFqjz322NSpU6fw2m3btsUavNw8xhp30EEHRbg37vPPP09ffvll6tmzZzrwwAPj/CeffBJzu+boo4+O63/44YcY5xP222+/mEdo//HHH0Petm3bpgMOOCDGf/TRR3G9dfxmL59++mnIaI3ffvstHXzwwXH+sMMOi2trQaFJmwxJr776aijgrLPOSnPnzm04u+dBYU888URav359ev/992PjJ510UhowYEAaPXp0bFDYnj59etqyZUuEV6BMihbChw8fno477rgwlKeffjoUKzTb2/fffx97uuCCC9KwYcPSokWL0pIlS9Kdd96Z+vbtG8p95JFH0ptvvhkGcu2116Zjjjkmvfbaa2nZsmXp9ddfD/KPPPLIdMYZZ0QE2bp1a8jLsE4++eRYz9qIuPDCC0N+uX3WrFkhIxm+/fbbdPbZZ4ccl1xySRhMLSisDGyOYkaMGJEGDx6cunfvHh6wp0ERrJNyeCaDkeuEZRvi8Rs2bAhSKV80oLjx48enyy67LJ155pnxOxJ5K/BYHoFsY0aOHJl69OgRZPAMFr9z585Yl/f6m3daRy63hnFvv/12mj17dnivOazJKHie1PHee++FR7ved2mFF5544olRvPEwcvOq8847r3Ff5l6zZk2jLLWgkDTWccQRRwT7LNLitbpuS8EaeQ9P4lmTJ09O1113XTrllFNCKa+88kpUoiDMnHbaaen666+Pg7xyZqWBkZvRTZo0KcbwikGDBv0lt2ZQLo8RMjPxvGL79u1pxYoVqVu3bunqq68OmXgIPeVQng0AaS+//HLIPHTo0Ph0TsQgrygwZsyYOPzOGF3P4GrBXnefhhBhbuDAgeFpcgPF9+rVKzbvPIXyynxQRkthHkZA4Yom+U3o8nv2Np4lTPIWa55zzjmR53MoJvfatWvDS5FH5uzV5uJhSGeUjz76aJo5c2b8zThEhxZ52v8LFCShsziFiVBEOQ6JXIjM+UAoowyh73+F9TIoDWE8TXEgpMlLQKkIVQzxYmuSiTwIJCfD8ruixW/GiwzyFjKET2GfB1pDCmIA9mkfxlfK89/QYtIIVKuF1IKsEORRlo04KNVvNuuTMigNmS2F+RnDSy+9FAWY+1EKzYUBmSiWMTnyfskgTyGBlyFVISMiKEgUMvKjffBAxZU1XH/CCSeE54kmf9fwWkSazdqkgyC1WkpzQFbXrl0jh65bty59/PHHsWFz2zxPoEwEqtb8zbJbClbOe+VLa1188cWRq4BM/iaTYgVByHKN8QsXLkzPPvtsY54F1aOqdOPGjemFF14Ied3zukYec07otKYw6vPv6K9FpFlIOe1+jqX53lIoGuQTHkQpc+bMiTJZmS0EyQmKlOXLl0dFx3LdjjhWr14dSjXWuVqVQJmgEhUWGU5lMYMwOUth5N5wwYIFIZeqz3rCYfZKQDLiRAXn33rrrTjPExU0Ch3XqpARJrzmkF8LqrYeWJrQYNGmZT+SFi9eHCFDlaRoMLYSBCdscxVozg1IMpbSKNH9mU25h7JO7969456I8uQFocaNthD01FNPxVw8QCWn3M63LOYln3XAGpRkLz59J7e5VIPWyLnS+Sxbrhp5FoMhEy9XYChIVICMyTXylHPZm5wjP9iP+czrsL6xwnOtpFXtPQpPvIjlsihekEG5KiVTaPbaaCUxzhMEAcKAbgjyKmF+YcS1ymGbsAGdFGHX3+Z3nTGqOF0a1iuM8Q7XAHKc5wm85fbbb497LWvINcjIXRpKN5/rhTYy8nJeQpkMIId+vzM8c7vWXsiEeAQxJOcUHuakJ/K6fSFTNlgEup4cvjucN4/cpgBq6hhFqEra3gSbltsQQXFuTpvmNEXK3XffHRZ/yy23NHrYPwl7VclfDSyT1fIORQhimsIYIZb1/1NRV54mpPEk4VpYEcrko0rkfMjD5KF/oqfVFWkldqOuwmOJ3ShJq0OUpNUhStLqEIWFiMrMwz2dBf0/N46gjNYMdYOtIVorVH3uq9yIuyk2pyrPjaQbUTe+5lTGl6iOQtIQ5gZ2/vz5jd0DRLo/0lPzFDg/J6oF5vDcSJ9So9fzMMgtH90UnXVdby0eXYUSzaOQtFWrVkVDk7I1ST3p1Y3wcNA7Et7I8hoCL6kFyPcOBvL16oYMGRI3ybxPe8z7GObygg9Pzh32EsUoJE3nXKfcjat+oEMP8eGHH443pm6++eZoEFcLZx5J8NoHH3wwHtWPHTs2vAkxvMyNsudReoVuiPX89BP14HT4nefhRMxNXa/a8VTdcjI5p/donDE8l1HoNz7zzDPx3ojQ63dr8HRN5nPPPTeejrvOb/mNM9/JZs86K97WYqxu0snvEYtDv9Ic+pK+6zPaC8M01l6c1wMVPVoThfHNE1uhj8C65RTj8BsBCCUnVQOle2JrM9pLuugIy2GVt9m0x/Ue73i8QlHypS6+63ijtRCm4eycRxtCLTko2CESkBE5Qrfv3qe85pprYh+UyBB5/OOPPx6G5/0XnXlGaj25G2lyracFlK7rz6is5R0Ub6h5BCQv63uKEBrY5va8jbFoSmswO8ylM9OaKCRN7kIW5TpYtAeQuWstfFFiNeQOvw1ni0NeJXxHnM2bHynedpLjKIdX8FghmmeQi5UjghIRefjhhzc+p1LsNAXr1/qicI97KBV08kUATWhd9lGjRoWXSwuPPfZYeDDSABm6+PRgPs1oZHhehnSe6VU7+TivYywjam3SCkt+lssyfdoYxeUHnRSlinSuGmyOt9m8+RgAAiuRvQV5xhrDKHikzfJ633mP51NIM55yKNorarmibc6QhGgGwIh4RzYcj32ERYRQuoJIJctgclQA+2AUXsRhQEK0c4yFsTEmshpHX9ZzIF+kaG00e58mJFEiYZX+ChOKv+qqq8Jrmiq/CMiiXGNtSPhqCr9RJsUZ65pa5q4V1hXKhETh2ANLYQsQwGsZASLsTziTqy+//PLweKALUUD4ljcR65OsiLvoootibg9nV65cGZ8iTA63rY1mSbOgl1E8mUaalysdQieBawEFCH02bRNFryT47hyLlM+Ep9YkTc7yioAwxmuF0yy/dSjeUQnyymkKE3/zTJ514403hifJp7zUfuSyu+66K8Ip47MHuZK32kuRobYUhaQR1k2w0l9CF9clZa82s9LKvET4/HS5KXISFt5syEsu4rycQhk2zdLz7YWqj1G0JmlCu2IIWUKsXJhJEoqtlw2HjLnilevkJfsij3Hnn39+eKMCScXJ+1xHV+ZErHWEaZHDHvcECkmjSAr2lhEBJk6cGCERKDoLZENe5HQIA02JE3ZcJ99QlgrNnEp2nmXzkrZ3LniEJ9HyVGvCqwzCo3JdTqwEo/Ib2RUwyFJsSAnz5s0Lj8pgrGSzH0Yr+siHxguNyFIseTWOEShuGPyeIK6weqRI7s6ChAmvsxGUxbE0YdJNsnDj/9YIedNNN0XlV1SguDdzzkbFe0UBglmn8YoA3tyvX7+otloTlCgH8ficyzLI5J8jRBSpYOrUqSEXRecuDRkrPV/oE1kYmtfhhH864ZlCpWvVAgoUpOUWYGui7R1/ouHvRvA0sVulJbTZrDzg8LdWlnMsjCX7HYkIqAydGZQjYds8pQiPQpOYL+kLvZTBiv2eQTmKE94utJkDyOZ3xYOwRSbewnj8jXxeZB031+YW2l3jN/MixD7IRtE5Ulif4ej4II6MooCK2TUIskceZl5G4VrrIdga9uTtK7rzqcJtTRR2RAp++g9UWl4eW/lbc2hu3mrXuq7WNSvHVq7X9Pqm11aOhWrrNbdOEZqu1VIUklZi70azJX+JvRclaXWIkrQ6RElaHaIkrQ5RklaHKEmrQ5Sk1R1S+jfP/e2e5VNEBAAAAABJRU5ErkJggg==;" vertex="1" parent="1">
          <mxGeometry x="760" y="360.32" width="39" height="19.68" as="geometry" />
        </mxCell>
        <mxCell id="yEgj6qXWK7Eluj3ogHR2-85" value="" style="shape=image;verticalLabelPosition=bottom;labelBackgroundColor=default;verticalAlign=top;aspect=fixed;imageAspect=0;image=data:image/png,iVBORw0KGgoAAAANSUhEUgAAALkAAAA3CAYAAABQF+v0AAAAAXNSR0IArs4c6QAAAARnQU1BAACxjwv8YQUAAAAJcEhZcwAADsMAAA7DAcdvqGQAABeaSURBVHhe7dxVrCTVFgbgPYK7u7u7u7sGCRoGDwk8EPyFQcID8oAEAgl2kITB3d3d3d3d9V6+dc+aVPpWz+me4U5m+tZKOt2natfaS/4ltWvXGfSvv6k01FAP0+D+74Ya6llqQN5Qz1MD8oZ6nhqQN9Tz1IC8oZ6nBuQN9Tw1IG+o56mjdfI///yzfPDBB+Xzzz8v3377bVl88cXLTDPN1H+2M/rrr7/KTz/9VD788MPy6quvlq+//rr88ssvZdCgQWW66aYrc8wxR1lkkUXKpJNOWoYMGdJ/VUMNjTkNCPLff/+9fP/99+Xuu+8uL7zwQvnkk0/KXnvtVZZffvn+EQOTKfB5++23y0MPPVRuueWW8t5775XvvvsuQD733HOXFVdcsWy33XZl9tlnL1NOOWX/lQ01NObUFuQOy+CvvPJKue+++8rtt99efvjhhzL//PN3DfJff/21fPrpp+Wss84qX375ZVlwwQWDz9RTTx0Z/oknnijvv/9+ZHBAX3311fuvbKihMae2IAfwL774ojz55JPlrrvuKm+99VYAcpZZZuka5B999FF57rnnSl9fX7QmO+20UwB9mmmmiWB69NFHy1NPPVVefPHFsv3225d11lkn5nrnnXfi8+OPP8bfE044YZlrrrlCBtdqnQTHG2+8MfK8KrDQQgtFO4W3AHr99dfLxBNPXAYPHhzjfv7552iN6GCMAMRDEDun6kw++eQxz2KLLRbzs4WWbZ555onKg1Qjx6addtoyySSTBC+6Ct5FF1005iLfY489VmadddZoyWabbbaYx5xsKgGoZhNNNFGZc845gz89yFolvJ9++ung99tvv408z0+unWGGGcpSSy0VieKbb76JlpB9nB86dGiZeeaZI7FMNtlk5Y8//ihfffVVJDB6TTDBBMGfHNrFhRdeOMarvPQzFg9zGqftZIPVVlstdFCRyUw3dmOvZ599NlpSNuYrcpDJfK7Ha8YZZww+7KVDePjhhyPBsSfbfvbZZ6Ejm+BFbq0yX+ou4Ia+aVe61dHQ/u//Igw//vjjyLwUMLkempG7JX34448/XqaYYopwxKqrrtp/5j+00korBQicpziQAdsDDzxQrr/++jAAx0411VRlo402KmuttVZZeumlwwEqzMUXXxyAcr12Z9999y3TTz99GHbEiBERXPhzJlC5bv/99y/LLbdcjOHsSy+9NOSkLwNysnkEFeAK9ptvvrnssMMOI0H+zDPPROtFJ3KjO++8M4IMyM1F7yOOOKJssMEGZdNNNw0wmkfbdu211waAOIpuG2+8cdlmm20iEQBulYDLeDIACdABJZ8IbLoIEjpqK9nkzTffDLsBxSqrrBIJZL755gvbGnPOOedE4AAhmwMe+dhvzTXXLHfccUfoA7DkwxsuAJCceD7yyCORINI37P/uu+8G75dffrmccMIJYQvAv/zyy4MX8NJZAGyxxRZlySWXDD4HHXRQXLfEEkuUG2+8MexLpq233jrklRyAmW/JcOqpp4adNt9887Lhhht2D3IKcaaoIgRFGG10SKQLGLwYsZUoDCQyOINz/D333BPGkvF32223UMaNr+MUl2UBklEPPPDA4E3GSy65JLK/DCwrAQxn7LrrrmEcQXriiSfGvAAOwIIIiHbeeefgy+GMzBmqi3PdEt4yuA+w4+EYgD344IPhbPOR23Gys9PVV19dttpqq9CrjoBUknCe3eiDV5Lsdtttt4Xd1ltvvQhWOsrKZ555ZjnggAPiWGZFFW2NNdYIXcmg4lZJ9vdZeeWVw5aqA/sJsDriZ4lFhs/qCez+FnDACMR0VWGvvPLK8EsSIEtCKrvEKkDIWiUVQXcBD5LXQNR2CZFwyojswBAi1bHRIU4mvJJeF20M5risKStlKZKlBBgnrLvuumFoBJQMocIIxGWWWSbKpPHmYRSZXcYz57zzzhsGSx7GJplbYMm+dAVygYiH0sppshDgCyrZBYh8ZEFtB+dVybXkeP755yPgOELAGccxnC4z0dMx9jEHIHIuALQjPpG12US2XWGFFUa2ZubFQ2AusMACZe21147E4dt1eLOdudjGdSqiMeziGjatEttoX9J+5gT2OpCzjwwrOWXLBzOO0VdAL7vsshF8PvSQmQVDys+m7GZevidfypStpmA0jm/hciAaa+vkjCLz+AxEHPDaa68F4DlRAMjkjMvgAMOZQAnAQHLBBRdEFs+WxzcQMXIau5WUfBnRys4mm2wSANAeKfXArKIwqkxLJpXMHEceeWR8LrroonCec1USbDKjTAVQAEQm4wBA4AD6GWecUYYPH16OO+64yH5ACCgA0i0lAGRa8wMs3ejITpnxBJDg1ePyBdu2y8rdEvv48JMAAlRzCGy2lSz11445t/7665ejjz46fEp+fpTZtXJaFDpUZRMEfML3Asd5/AaisQJy0cbIDJs3E1USxYxz2mmnRSnPbOw4JauK+u04IDCKLKCE6yP32GOPALfsKkgYArhlZs5uJTyU0VtvvTVKOeNxENArk7J6BkdWhB133LEcc8wx8XEDbZygqxKeV1xxRdwQuTnT+qUOAoaDBe+hhx46khdn693d1Mtuo0Ps4oOqdqvaz/zZErCdVqF6fnQIQFUkQcqG7i0AMAl/dvSpziUYBTU/Oi6RuVb2lmxkbLyTAFwb6Vje33Qi+xiD3IQASWDfdcSQlCYkMOsRZR3XMnr2YG4iAVOkK68MJwMAo3FpFMcBSzYEZuVMttSrOi5baRP0bngBG6C1Er7kUR5l3QSyzKK0ujaBYw56uFlyo+MDqAIhy6lxAKRP1ttqv5RcfJBvQWge/N1wuyHVp3KsrMRxdbIORJyNP1l8W2EhCxuraH6zoWBnP2AEchWmrsp1Q3gLbAkMfzfi1YeFfEJvMpGFnQCbDJ6/yPTItVoYGR/Akye54cVvvmI/yUPyHCsgTwGytNeRzAQQMrklPasmFHMtg+c6vHKehtcjA6vxSj6jKLOAzahKsdLW19cXxnIt57oeX2P1bY65cWpdrUCCkiF9CxK9KyMDM32sgrQL3DoyrwA2N7Dl0lY6grMB37jsXbUXHM8Gsr9PXbUbiAAVf46nq6CVPMhvHr/ZGtiQ5AAs1Wo1ukReKzHm5mcJqhqoAtfNrqRDFoEH8Pfee285+eSTQ9YktudbcpHZTTW5JTd/uxY+JCO+7oTarq50ShxqCY7AbmAsu7USYbQrlp0oamyucRIaiBnICojyr2WQ3axMGO8hEgJ0wGFIYHETxEDnn39+XC/TZ6bKZT/BJFvr783n71xtsC4r42TwAYRx5uEEv4E9gTEQyVBk4NAtt9wyZGWfJLLh6SaOLJYf2cJvFct4N2bamdEhweR69gRiemdlA+Rddtkl9HbcfFdddVXcUzhHThVIEpFFycKOnZDrBZbVmuqNYpKVHnrff//9kbnd72TlVxFhI+2EF/vxP/9pXyUfPjGHG1YrZ2zZSRZHQ/6+8Rne/7stAaKMo7xjThkRhwBEViKQ6KJQK6URAMpv0QxomfXwYhw3fyI4s7nsLEu4UQNORrEcqGUAcsCmvNUEoAQyxzmWvOTKDA6ssgF5jQNcujCYrEMmhs/Man7tg28fPJ03PtfJyQRQbuwEprnIa4wnt8CquplXNuNM15qbjgIUDyCUVVURDgUIdqoSmVUdckgEeJMff9e7gXR93vBp1wCZPMCqXbSObd0ekM3herqSj94qpL9lUvIiNvabLcwNA643Rsvg/scxN/f66WzP2JPM/Mo+bEhXcwkmMrOFa/Dyt+PaN7Jq5/gPBuCNbGT2nMI9GKIbu+FtjrqVO9TRBi1DgImxAC1XOxAFOZ+zKVpdnqsSHsp0jsUnpwYyTseXgUSowOJASuZYjqeUsbKFuY3BDznPcbKFjAV4AJGgRMbLVPm0T3YDPkasZga8yOJDPvO7loycjfzt47xxxgCJv5VsPMhOPrzJTHbH2NNxeiJj8cXf2LosBYhsaIw5UNoAHyBwnWP0qdrYvOawxu38sGHDYr7MusZpzyyNChItnmDlT7qxu2/zsBs7G8c/fAobAiJtA7SOuT7tRybH6IBgyHjn8ZCI+IysxuCR+tKRPuyaMuOHb1W+OuoI5OMbAbmsIEOoLL6TgEuGUKb1eB68yAL/DwRInigCO5ADGbAmyfwetgGdwPfQpl3SGp9ojG88x0VSXrUt2WZUiYM5zg2hbNV6vpdJpssnmH6zRZVkUAEvKWghqwEwPlNPZvIsbZwkK1WdRV3nqq1XrzhzIKK7lkdLo7VB1bZIa8B2iE20Ba2BMD5ST4K8oYaq1JPtSkMNVakBeUM9Tw3IG+p5GmVPbk3UDZplN2SoGxVLT27o2q1LVsk1eFi+spbphqb1ZgZ/Nz14t94oNtTQmFJbkAOdRX+Pu70dAqSGAqFHrvZwD7TvwXgrGB4weKPFDj5rrxb0q2QDvCd0lvY8tcsnWg019E9QW4QCtUf1dn15qmWpDQiB1nGPhwVCJ+QJm8e59ix42pikUsjiNuHYTCWT98KSVUPjFrXdu2IvyHnnnRePqe0psRfD2yiyt/3XnhraZyCztyOg1dIAsxbEU0a/ZWvntDH4201o/XbPPfeMvRfOGZcfwZQFxzm/fRyvjnPMeR/k7+r1OS6DM8fW8fN3jsnzjtfxz98o/84x/m4nv3PVT55vR8mr9Tof/KpytY5D1fPI8ZStOrY6rno8P65BElIec01el2Oqx+t4OZbn/S2BJo8c7xu1jvc7ZUd5XR21bVfsG/C+oT7apihPwAzVwhx11FHB1O7ATh77ArC9JGeffXY8jfRigG+87DJTLWzI2WeffWJPiaxuFx0lzKOS2Pxlh53NWfYsuOall14KHiqFYLKxZ7PNNgteDGZOrZbgsimKU/Ckm73cxpLDJiNVxsYjFYeenvrZu2Gno41Fdu6Riy1ci7RyrsvNYohcHolLDGSwT76vry/2WGvxbGAis92V+YIIubJVw99T2Nb7Ek72IjAZ2MM1bEN313qKue2220YFxtsOS3tBjLPHxPx08VRTYrGBShuZOxXZhQ2Nlbzs6cZDlWVHOEhQ2+RmazJ/XXbZZSGPV+MkqKzMdpniud9++wVPNuQLm8zIZS5bLvCx49EmO0nVC+aeurJtbsFlE9s06GbXIlvbgsCukixc0M++lzpq2xu4ueQUH05jHE/DMMc4NwN1QsbaJAUMFGc8SttdaJ8JUHIwQzoGvHYocgYDUtYxDgEKCtuTnu9X4slpwAxknMDYzjOeFxhyMxSetvDip1oBtRaKTMCHl3Gc4TrfZHHP4I1ym5iSHAdiYxz3AUL88CCnuW644YZo8eyVIZdgwsv8eVPuWscBhI51RGbz2X3HF64jM72Bgt54sCk/mQt/stNFQEo4rmNndmU3geK4ceyQgKraPe3nONvTRzIwN5nMzVfmNb83eIxzjLzGmZ8N2NhxdrJXxnmdgf9GkPa2BZkc9HSeH9nG37Djt3cQJApy55PaOmq7jAHktjgiEYxMag8ywIvCTldBBAMA2wtMce2JwBHRXhbQBolG/BhAds1sQg4VJbfScgg5KHnwwQfHq2qCjlwMwTiqTu481F7JJN7ol2kY8/jjj49jMi0DpSONUSnoe+GFF8Yxe6DJ0y0BhPuWfFvf3z6cwTHmPOyww2ILK50ya9KDnK0350kqmtfuVC32UvFuuummcLwK5f1IwFFtJSi2ue6662I+WXfvvfcO+9Cdf+1tt8+fTckLnFVSIWRSr5vZ581nbFiX4AQAEAO5MXaAIoFHJnbgVxUUcAW/6pQ4Q5nEBJH/LAAbZK+SSuUlDTp30kmMEqUJbk5gANlHdFtdoXinIEeMzUEilbKiUMmy39hmKSXTfJmhlKR8WcE8KYvfnJe9PnDIzsojw6UDkzjDWPswBEzux8hSrxQzmqziBWbGc45jBJyAJhu5yA4o+W8bXCcjAlyV6McBAEg2gUguPGTOzNrKMzCbRwYUyOaSfdsR2diSHmzhm37mBA6JQPkHSIGMJBDyCAaBwLbmwsfv6pJwK3jZKuep2q+OAJN+sFHlwy+yMzlgQMKzec6LzJIR+zlPh2uuuSZAL6gkUnIlL35VMfhMcsKrkx2kbdsVxGAiV4YEcNHJgIDpPUhG6ZQYRs+kZfFRvggrkwA5ZZCyqJRpcRijlQCb0Z0DDODEh/OA1seYTgi4lHtA5EDfWhx8rSaRK/c34wl8jAzYPn4LyNb5ciWJHloxzhCwrneOM11DZuBjYzqpGJxmvm4JAPBBAor9MhD4TMYDJPL6AJ7zQN4K7G7J3Gwn45oDyM2ZxKfOq95kM59gViX08lkpE29aJ/LzSZXY0xx85jxb4TcQjTIVZ881YsSIiHxr3LvvvnsYJkHZLSnPbpBs3sfDmyGyThJj+MhCmUGTAMM5AXfuuefGi8tamnxjnoHT0UkMOion0pHxBZ7/5pRr9OYVBGQEaGXUOfvP3fwgr69Z4zd3lbQ5AoWzZSNJggzmogPgu3k95JBDIqM5DijAb86qPbohvPFqJcd88PYNLNoKcwvidpm5U8JPBmd/tlBptaXpC7rXVQnXCXp4QkDNtto1bYxWs3oziZ+3+OHQuLTrQNRWO07W3ylBjO/dTeVF1MmiyZzhZAZB4LuO0sg+shmgAhVwUkjmclxW42z8swxXyTngoawM5Y4akFSVzE7pSB/jUTsn4pFVRPtATxlcC+EG1mqAzCFj09c4GRFIffyulm9zqwTkoI9MoxynrehpPsS5MhyenJs3v/p1tuyWyIE3vQFOtuNDcgAD22aroIJoO/0e6IFeJyQJ6OUB0itxqlbVd47DTd6gZxWTrKzQaT0QO9EBNvhB58AvdOAD10o2+ElurcmlHdVqlxnTDQRBlA+TOq4MAz4jAZFopKRVBQCsI87nUNe4uSK4UuUmD19go4S+Hw88jVVFjJUhEjyMg5Qr13IqUHAq4HCsMcYynvbF2LrWyrwqC8C63lz003MDGz0dB/5OiH2MZxd8lWwVqQpyoMoSyxZWJtjODa5vfXWn81UJyFUkupAjl2LNwa5s6gVwvFUaLR6/AY4gcP8gu/M13wMTPp2Q8fwlqPmULFUil76bb83FvvT2kUzMmSRAAB2IjbdqJIEZw6+qnCCQHFvnaUe17YrIARiZ3CQinfOrPZI1V//MUYawguCGzPuS1fcpkwBPdvEPfAAJH/8MyA1ZAoDhTznllAC0+RhcliMLZwArBfXwyqzA6evri7GADshABGQczIluJN0/cG5rf4fw5xhzCAo3w8okmQCRw1QwAUbPgYgceOFpC4O19sxSSKDJ/laZyGN1Afgc9/ESszJMv27J9Wygsgky2yiyAsnYbO1mTnWyogVA7OPBHpKEJAu6agcArV1lbiWBJaC1ZuyWFTRJpWVrba8bezeXAsj4YcOGRULg9yR+Zgf/rUwllRjYVVKzMkO+bqj2YRAhtQQMJdIBKcGYpD81IeMoK4LA3TNQtZLsgZ8+DQgZXVkTEJRHDK9H9bDEBwjMyRiuF/0McfjhhwdQrGxQHNiRjMnRMhCjuZZMoj7/z6HIlxHMBRDaJf0gMMhEAjErhfJKPi2Ra8ytpXANp6H8tw+yitJJFgHP6W6o6ClZqEgCEE8tAzCxmawmAZDVeXw9gKI7XarETZZHBQX7mINf8Cc7PmzKJqqBQE9d2Iu/ZNPTTz89As/fdDcvIjvfsDOd+dI5/nG9a32b35Kk34LG0qDAIA/wASheZJU4jJGd2ZA/BBcfIUmAPbUfbO8eB7jZiOxsyTf0pSO7WYLMJMeuApEvXeO7jsaZN4MsAR577LGxjmvdtpWsrTOCp2yAIKob6o4EwkknnRQB5N8kC0ItW5KEZplRMsjWI5dxx2caszuOf5BkBn2YjFBHol0fb1xrlmuoM5L5ZU+tCBu2VmfgVpVkSlm+V+zc0T8XGhvE4ACsjLZ72qcl0X5oDTisoe6IjQFXj6utaG1D/QZ0fbVk07pKMr7SONOuNNTQ/4qadNhQz1MD8oZ6nhqQN9Tz1IC8oZ6nBuQN9Tw1IG+o56kBeUM9Tw3IG+pxKuXfe6GIinz27mwAAAAASUVORK5CYII=;" vertex="1" parent="1">
          <mxGeometry x="592.5" y="242.89999999999998" width="57.5" height="17.1" as="geometry" />
        </mxCell>
        <mxCell id="yEgj6qXWK7Eluj3ogHR2-86" value="&lt;div style=&quot;font-size: 8px;&quot;&gt;&lt;font style=&quot;font-size: 8px;&quot;&gt;Создание&lt;/font&gt;&lt;/div&gt;&lt;div style=&quot;font-size: 8px;&quot;&gt;&lt;font style=&quot;font-size: 8px;&quot;&gt;динамических&lt;/font&gt;&lt;/div&gt;&lt;div style=&quot;font-size: 8px;&quot;&gt;&lt;font style=&quot;font-size: 8px;&quot;&gt;очередей на&lt;/font&gt;&lt;/div&gt;&lt;div style=&quot;font-size: 8px;&quot;&gt;&lt;font style=&quot;font-size: 8px;&quot;&gt;Exchange&lt;/font&gt;&lt;/div&gt;" style="text;html=1;align=center;verticalAlign=middle;resizable=0;points=[];autosize=1;strokeColor=none;fillColor=none;" vertex="1" parent="1">
          <mxGeometry x="245" y="292.89" width="80" height="50" as="geometry" />
        </mxCell>
        <mxCell id="yEgj6qXWK7Eluj3ogHR2-87" value="&lt;div style=&quot;font-size: 8px;&quot;&gt;&lt;font style=&quot;font-size: 8px;&quot;&gt;Создание&lt;/font&gt;&lt;/div&gt;&lt;div style=&quot;font-size: 8px;&quot;&gt;&lt;font style=&quot;font-size: 8px;&quot;&gt;динамических&lt;/font&gt;&lt;/div&gt;&lt;div style=&quot;font-size: 8px;&quot;&gt;&lt;font style=&quot;font-size: 8px;&quot;&gt;очередей на&lt;/font&gt;&lt;/div&gt;&lt;div style=&quot;font-size: 8px;&quot;&gt;&lt;font style=&quot;font-size: 8px;&quot;&gt;Exchange&lt;/font&gt;&lt;/div&gt;" style="text;html=1;align=center;verticalAlign=middle;resizable=0;points=[];autosize=1;strokeColor=none;fillColor=none;" vertex="1" parent="1">
          <mxGeometry x="470" y="292.89" width="80" height="50" as="geometry" />
        </mxCell>
        <mxCell id="yEgj6qXWK7Eluj3ogHR2-88" value="&lt;font style=&quot;font-size: 8px;&quot;&gt;Отписка&lt;/font&gt;" style="text;html=1;align=center;verticalAlign=middle;resizable=0;points=[];autosize=1;strokeColor=none;fillColor=none;" vertex="1" parent="1">
          <mxGeometry x="730" y="292.89" width="50" height="30" as="geometry" />
        </mxCell>
        <mxCell id="yEgj6qXWK7Eluj3ogHR2-89" value="&lt;p style=&quot;line-height: 40%;&quot;&gt;&lt;font style=&quot;font-size: 8px;&quot;&gt;Просроченные&lt;br&gt;подписки&lt;br&gt;&lt;/font&gt;&lt;/p&gt;" style="text;html=1;align=center;verticalAlign=middle;resizable=0;points=[];autosize=1;strokeColor=none;fillColor=none;" vertex="1" parent="1">
          <mxGeometry x="581.25" y="260" width="80" height="50" as="geometry" />
        </mxCell>
        <mxCell id="yEgj6qXWK7Eluj3ogHR2-90" value="&lt;p style=&quot;line-height: 90%; font-size: 8px;&quot;&gt;&lt;b&gt;Передача&lt;br&gt;сведений&lt;br&gt;о подписке&lt;br&gt;для s. cache&lt;/b&gt;&lt;br&gt;&lt;/p&gt;" style="text;html=1;align=center;verticalAlign=middle;resizable=0;points=[];autosize=1;strokeColor=none;fillColor=none;" vertex="1" parent="1">
          <mxGeometry x="147" y="255" width="70" height="60" as="geometry" />
        </mxCell>
        <mxCell id="yEgj6qXWK7Eluj3ogHR2-91" value="&lt;p style=&quot;line-height: 90%; font-size: 8px;&quot;&gt;Получение&lt;br&gt;текущих&lt;br&gt;подписок&lt;br&gt;&lt;/p&gt;" style="text;html=1;align=center;verticalAlign=middle;resizable=0;points=[];autosize=1;strokeColor=none;fillColor=none;" vertex="1" parent="1">
          <mxGeometry x="667.5" y="380" width="60" height="50" as="geometry" />
        </mxCell>
      </root>
    </mxGraphModel>
  </diagram>
</mxfile>
